aileron_ultralight.sfdir

StartChar: exclam
Encoding: 33 33 249
Width: 202
Flags: MW
HStem: -14 40<95.5 106.5> 670 20G<87 115 115 115>
VStem: 89 24
LayerCount: 2
Fore
SplineSet
111 110 m 1
 91 110 l 1
 87 690 l 1
 115 690 l 1
 111 110 l 1
101 26 m 0
 112 26 121 17 121 6 c 0
 121 -5 112 -14 101 -14 c 0
 90 -14 81 -5 81 6 c 0
 81 17 90 26 101 26 c 0
EndSplineSet
EndChar

StartChar: quotedbl
Encoding: 34 34 256
Width: 150
Flags: MW
HStem: 715 20G<21 43 43 43 93 115 115 115>
VStem: 22.5 19 94.5 19
LayerCount: 2
Fore
SplineSet
40 491 m 1
 24 491 l 1
 21 735 l 1
 43 735 l 1
 40 491 l 1
112 491 m 1
 96 491 l 1
 93 735 l 1
 115 735 l 1
 112 491 l 1
EndSplineSet
EndChar

StartChar: numbersign
Encoding: 35 35 251
Width: 530
Flags: MW
HStem: 0 21G<115 136 115 115 247 268 247 247> 245 21<55 167 55 172 193 299 55 188 325 445> 424 21<85 205 85 210 85 227 231 338 363 475> 670 20G<262 283 283 283 394 415 415 415>
VStem: 55 420<245 445 266 445>
LayerCount: 2
Fore
SplineSet
358 424 m 1
 325 266 l 1
 445 266 l 1
 445 245 l 1
 320 245 l 1
 268 0 l 1
 247 0 l 1
 299 245 l 1
 188 245 l 1
 136 0 l 1
 115 0 l 1
 167 245 l 1
 55 245 l 1
 55 266 l 1
 172 266 l 1
 205 424 l 1
 85 424 l 1
 85 445 l 1
 210 445 l 1
 262 690 l 1
 283 690 l 1
 231 445 l 1
 342 445 l 1
 394 690 l 1
 415 690 l 1
 363 445 l 1
 475 445 l 1
 475 424 l 1
 358 424 l 1
338 424 m 1
 227 424 l 1
 193 266 l 1
 304 266 l 1
 338 424 l 1
EndSplineSet
EndChar

StartChar: dollar
Encoding: 36 36 283
Width: 530
Flags: MW
HStem: -14 21<264 264> 683 21<264 264>
VStem: 52 22<180 180> 82 24<474.5 575.5 474.5 578> 264 22<-90 -14 -90 -14 7 329 358 683 704 780> 453 24<112 198.5>
LayerCount: 2
Fore
SplineSet
286 683 m 1
 286 354 l 1
 407 319 477 256 477 155 c 0
 477 68 411 -10 286 -14 c 1
 286 -90 l 1
 264 -90 l 1
 264 -14 l 1
 158 -9 65 52 52 180 c 1
 74 180 l 1xfc
 86 72 162 12 264 7 c 1
 264 333 l 1
 169 361 82 409 82 525 c 0
 82 631 162 698 264 704 c 1
 264 780 l 1
 286 780 l 1
 286 704 l 1
 406 700 466 615 479 514 c 1
 457 514 l 1
 444 617 383 679 286 683 c 1
106 525 m 0xdc
 106 424 176 385 264 358 c 1
 264 683 l 1
 183 678 106 626 106 525 c 0xdc
286 329 m 1
 286 7 l 1
 393 10 453 71 453 153 c 0
 453 244 393 296 286 329 c 1
EndSplineSet
EndChar

StartChar: percent
Encoding: 37 37 303
Width: 699
Flags: MW
HStem: -14 21<466 534 466 540> 0 21G<113 139 113 113> 283 21<466 534> 386 21<165 233 165 239> 670 20G<560 586 586 586> 683 21<165 233>
VStem: 71 24<505 585.5 505 590> 303 24<505 585.5> 372 24<105 185.5 105 190> 604 24<105 185.5>
LayerCount: 2
Fore
SplineSet
199 704 m 0xb7c0
 279 704 327 635 327 545 c 0
 327 457 279 386 199 386 c 0
 119 386 71 457 71 545 c 0
 71 635 119 704 199 704 c 0xb7c0
139 0 m 1x7bc0
 113 0 l 1
 560 690 l 1
 586 690 l 1
 139 0 l 1x7bc0
199 683 m 0xb7c0
 131 683 95 626 95 545 c 0
 95 465 131 407 199 407 c 0
 267 407 303 465 303 545 c 0
 303 626 267 683 199 683 c 0xb7c0
500 304 m 0
 580 304 628 235 628 145 c 0
 628 57 580 -14 500 -14 c 0
 420 -14 372 57 372 145 c 0
 372 235 420 304 500 304 c 0
500 283 m 0
 432 283 396 226 396 145 c 0
 396 65 432 7 500 7 c 0
 568 7 604 65 604 145 c 0
 604 226 568 283 500 283 c 0
EndSplineSet
EndChar

StartChar: ampersand
Encoding: 38 38 311
Width: 640
Flags: MW
HStem: -14 21<262.5 355> 1 21G<508 508> 334 21<365 486 376 486 508 618> 674 20G<452 452> 683 21<273.5 353.5>
VStem: 70 24<98 213> 108 24<459.5 569 451.5 570> 486 22<19 334 1 334 355 507>
LayerCount: 2
Fore
SplineSet
618 355 m 1xad
 618 334 l 1
 508 334 l 1
 508 1 l 1
 451 -9 377 -14 333 -14 c 0
 172 -14 70 22 70 158 c 0xad
 70 268 152 331 264 344 c 1
 177 355 108 403 108 516 c 0
 108 624 199 704 332 704 c 0xaf
 381 704 414 701 452 694 c 1xb5
 452 672 l 1
 411 680 378 683 329 683 c 0
 218 683 132 621 132 517 c 0xaf
 132 386 235 360 315 356 c 0
 335 355 354 355 376 355 c 2
 486 355 l 1
 486 507 l 1
 508 507 l 1
 508 355 l 1
 618 355 l 1xad
94 158 m 0
 94 38 190 7 335 7 c 0xad
 376 7 446 11 486 19 c 1x6d
 486 334 l 1
 376 334 l 2
 354 334 335 334 315 332 c 0
 200 322 94 283 94 158 c 0
EndSplineSet
EndChar

StartChar: quotesingle
Encoding: 39 39 257
Width: 78
Flags: MW
HStem: 715 20G<21 43 43 43>
VStem: 22.5 19
LayerCount: 2
Fore
SplineSet
40 491 m 1
 24 491 l 1
 21 735 l 1
 43 735 l 1
 40 491 l 1
EndSplineSet
EndChar

StartChar: parenleft
Encoding: 40 40 265
Width: 293
Flags: MW
HStem: -80 860<237 259 237 259>
VStem: 121 24<271 429>
LayerCount: 2
Fore
SplineSet
237 780 m 1
 259 780 l 1
 187 662 145 510 145 350 c 0
 145 190 187 38 259 -80 c 1
 237 -80 l 1
 167 26 121 192 121 350 c 0
 121 508 167 674 237 780 c 1
EndSplineSet
EndChar

StartChar: parenright
Encoding: 41 41 266
Width: 293
Flags: MW
HStem: -80 860<34 56 34 56>
VStem: 148 24<271 429 271 430>
LayerCount: 2
Fore
SplineSet
34 780 m 1
 56 780 l 1
 126 674 172 508 172 350 c 0
 172 192 126 26 56 -80 c 1
 34 -80 l 1
 106 38 148 190 148 350 c 0
 148 510 106 662 34 780 c 1
EndSplineSet
EndChar

StartChar: asterisk
Encoding: 42 42 243
Width: 530
Flags: MW
HStem: 100 374<157 277 253 373>
VStem: 254.5 21
LayerCount: 2
Fore
SplineSet
274 280 m 1
 433 337 l 1
 440 315 l 1
 280 263 l 1
 393 114 l 1
 373 100 l 1
 265 254 l 1
 157 100 l 1
 137 114 l 1
 250 263 l 1
 90 315 l 1
 97 337 l 1
 256 280 l 1
 253 474 l 1
 277 474 l 1
 274 280 l 1
EndSplineSet
EndChar

StartChar: plus
Encoding: 43 43 305
Width: 530
Flags: MW
HStem: 307 21<65 254 65 254 276 465>
VStem: 254 22<87 307 87 307 328 548>
LayerCount: 2
Fore
SplineSet
465 307 m 1
 276 307 l 1
 276 87 l 1
 254 87 l 1
 254 307 l 1
 65 307 l 1
 65 328 l 1
 254 328 l 1
 254 548 l 1
 276 548 l 1
 276 328 l 1
 465 328 l 1
 465 307 l 1
EndSplineSet
EndChar

StartChar: comma
Encoding: 44 44 247
Width: 150
Flags: MW
HStem: -116 140<-2 67 -2 67>
VStem: -2 70
LayerCount: 2
Fore
SplineSet
68 19 m 1
 17 -116 l 1
 -2 -116 l 1
 44 24 l 1
 67 24 l 1
 68 19 l 1
EndSplineSet
EndChar

StartChar: hyphen
Encoding: 45 45 269
Width: 274
Flags: MW
HStem: 271 21<32 242 32 242>
VStem: 32 210<271 292 271 292>
LayerCount: 2
Fore
SplineSet
242 271 m 1
 32 271 l 1
 32 292 l 1
 242 292 l 1
 242 271 l 1
EndSplineSet
EndChar

StartChar: period
Encoding: 46 46 252
Width: 150
Flags: MW
HStem: -14 40<54.5 65.5>
VStem: 40 40<0.5 11.5>
LayerCount: 2
Fore
SplineSet
60 26 m 0
 71 26 80 17 80 6 c 0
 80 -5 71 -14 60 -14 c 0
 49 -14 40 -5 40 6 c 0
 40 17 49 26 60 26 c 0
EndSplineSet
EndChar

StartChar: slash
Encoding: 47 47 259
Width: 263
Flags: MW
HStem: -30 750<-5 268 -5 268>
VStem: -5 273
LayerCount: 2
Fore
SplineSet
17 -30 m 1
 -5 -30 l 1
 246 720 l 1
 268 720 l 1
 17 -30 l 1
EndSplineSet
EndChar

StartChar: zero
Encoding: 48 48 232
Width: 530
Flags: MW
HStem: -14 21<188.5 341.5 188.5 347.5> 683 21<188.5 341.5>
VStem: 36 24<250 440.5 250 450.5> 470 24<249.5 440>
LayerCount: 2
Fore
SplineSet
265 704 m 0
 430 704 494 555 494 345 c 0
 494 134 430 -14 265 -14 c 0
 100 -14 36 135 36 345 c 0
 36 556 100 704 265 704 c 0
265 7 m 0
 418 7 470 154 470 345 c 0
 470 535 418 683 265 683 c 0
 112 683 60 536 60 345 c 0
 60 155 112 7 265 7 c 0
EndSplineSet
EndChar

StartChar: one
Encoding: 49 49 233
Width: 530
Flags: MW
HStem: 0 21G<327 349 327 327> 666 24<327 349> 670 20G<338 349 349 349>
VStem: 327 22<0 666 666 666>
LayerCount: 2
Fore
SplineSet
349 690 m 1xb0
 349 0 l 1
 327 0 l 1
 327 666 l 1xd0
 137 548 l 1
 137 573 l 1
 296 673 l 2
 320 688 327 690 338 690 c 2
 349 690 l 1xb0
EndSplineSet
EndChar

StartChar: two
Encoding: 50 50 234
Width: 530
Flags: MW
HStem: 0 21<74 481 74 481> 683 21<231.5 337.5>
VStem: 70.5 22 452 24<477 563>
LayerCount: 2
Fore
SplineSet
481 21 m 1
 481 0 l 1
 40 0 l 1
 40 16 l 1
 279 248 l 2
 412 378 452 438 452 516 c 0
 452 610 392 683 283 683 c 0
 180 683 104 610 93 498 c 2
 92 488 l 1
 70 488 l 1
 71 498 l 2
 84 623 170 704 283 704 c 0
 412 704 476 619 476 516 c 0
 476 428 416 350 298 237 c 2
 74 21 l 1
 481 21 l 1
EndSplineSet
EndChar

StartChar: three
Encoding: 51 51 235
Width: 530
Flags: MW
HStem: -14 21<205 321 205 327.5> 343 21<239 256 239 256> 683 21<234.5 332.5>
VStem: 45.5 22 76.5 22 453 24<488 580 488 582> 464 24<126.5 228.5>
LayerCount: 2
Fore
SplineSet
328 357 m 1xf2
 426 342 488 287 488 183 c 0
 488 60 391 -14 264 -14 c 0
 144 -14 60 58 46 194 c 2
 45 204 l 1
 67 204 l 1
 68 194 l 2
 79 86 146 7 264 7 c 0
 378 7 464 70 464 183 c 0xf2
 464 274 401 343 256 343 c 2
 239 343 l 1
 239 364 l 1
 256 364 l 2
 348 364 453 425 453 529 c 0
 453 635 379 683 286 683 c 0
 183 683 110 619 99 509 c 2
 98 499 l 1
 76 499 l 1
 77 509 l 2
 89 633 176 704 287 704 c 0
 411 704 477 629 477 531 c 0xfc
 477 445 413 375 328 357 c 1xf2
EndSplineSet
EndChar

StartChar: four
Encoding: 52 52 236
Width: 530
Flags: MW
HStem: 0 21G<383 405 383 383> 200 21<50 383 50 383 405 504> 656 34<383 405> 670 20G<388 405 405 405>
VStem: 383 22<0 200 0 200 221 656 656 656>
LayerCount: 2
Fore
SplineSet
504 200 m 1xd8
 405 200 l 1
 405 0 l 1
 383 0 l 1
 383 200 l 1
 21 200 l 1
 21 216 l 1
 388 690 l 1
 405 690 l 1
 405 221 l 1
 504 221 l 1
 504 200 l 1xd8
383 221 m 1
 383 656 l 1xe8
 363 628 332 585 293 535 c 2
 50 221 l 1
 383 221 l 1
EndSplineSet
EndChar

StartChar: five
Encoding: 53 53 237
Width: 530
Flags: MW
HStem: -14 21<210 306 204.5 317.5> 411 21<245.5 327> 665 21<148 479 148 148>
VStem: 50.5 22 457 24<140 271.5>
LayerCount: 2
Fore
SplineSet
275 432 m 0
 404 432 481 336 481 211 c 0
 481 69 378 -14 257 -14 c 0
 163 -14 65 41 51 178 c 2
 50 188 l 1
 72 188 l 1
 73 178 l 2
 83 79 151 7 258 7 c 0
 354 7 457 70 457 210 c 0
 457 333 381 411 273 411 c 0
 191 411 124 376 86 295 c 1
 64 295 l 1
 129 686 l 1
 479 686 l 1
 479 665 l 1
 148 665 l 1
 90 334 l 1
 128 383 l 1
 169 414 216 432 275 432 c 0
EndSplineSet
EndChar

StartChar: six
Encoding: 54 54 238
Width: 530
Flags: MW
HStem: -14 21<203.5 329.5 203.5 334> 437 21<235.5 333> 683 21<230 333.5>
VStem: 43 20<304 304 304 442> 461 22 471 24<160 281>
LayerCount: 2
Fore
SplineSet
275 458 m 0xf4
 418 458 495 347 495 219 c 0xf4
 495 90 402 -14 266 -14 c 0
 130 -14 43 75 43 299 c 0
 43 585 134 704 285 704 c 0
 407 704 460 636 482 528 c 2
 484 518 l 1
 462 518 l 1
 460 528 l 2xf8
 439 633 382 683 285 683 c 0
 175 683 68 617 63 304 c 1
 83 355 l 1
 127 422 196 458 275 458 c 0xf4
267 7 m 0
 392 7 471 102 471 218 c 0
 471 344 393 437 273 437 c 0
 161 437 70 351 70 236 c 0
 70 109 140 7 267 7 c 0
EndSplineSet
EndChar

StartChar: seven
Encoding: 55 55 239
Width: 530
Flags: MW
HStem: 0 21G<107 133 107 107> 669 21<45 467 45 497>
VStem: 45 452<679 690 679 690 679 690>
LayerCount: 2
Fore
SplineSet
497 690 m 1
 497 679 l 1
 133 0 l 1
 107 0 l 1
 467 669 l 1
 45 669 l 1
 45 690 l 1
 497 690 l 1
EndSplineSet
EndChar

StartChar: eight
Encoding: 56 56 240
Width: 530
Flags: MW
HStem: -15 21<217.5 312.5 217.5 325.5> 348 21<230 316 230 334.5> 683 21<219.5 326.5>
VStem: 39 24<115.5 221> 73 24<483.5 573.5 470.5 574> 449 24<483 573.5> 467 24<115.5 221.5 113.5 225.5>
LayerCount: 2
Fore
SplineSet
344 359 m 1xf2
 442 336 491 268 491 175 c 0
 491 52 386 -15 265 -15 c 0
 136 -15 39 52 39 175 c 0xf2
 39 267 97 335 194 359 c 1
 117 380 73 442 73 525 c 0
 73 623 144 704 273 704 c 0
 408 704 473 623 473 525 c 0xfc
 473 441 424 378 344 359 c 1xf2
97 525 m 0xfc
 97 416 187 369 273 369 c 0
 359 369 449 416 449 525 c 0
 449 622 380 683 273 683 c 0
 166 683 97 622 97 525 c 0xfc
267 6 m 0xf2
 358 6 467 56 467 175 c 0
 467 276 400 348 269 348 c 0
 138 348 63 276 63 175 c 0
 63 56 168 6 267 6 c 0xf2
EndSplineSet
EndChar

StartChar: nine
Encoding: 57 57 241
Width: 530
Flags: MW
HStem: -14 21<197.5 301 197.5 321.5> 232 21<197 294.5> 683 21<200.5 326.5>
VStem: 35 24<409 530 409 535.5> 47 22 467 20<386 386>
LayerCount: 2
Fore
SplineSet
264 704 m 0xf4
 400 704 487 615 487 391 c 0
 487 115 397 -14 246 -14 c 0
 124 -14 70 54 48 162 c 2
 46 172 l 1
 68 172 l 1
 70 162 l 2xec
 91 57 149 7 246 7 c 0
 356 7 462 82 467 386 c 1
 447 335 l 1
 403 268 334 232 255 232 c 0
 112 232 35 343 35 471 c 0
 35 600 128 704 264 704 c 0xf4
257 253 m 0
 369 253 460 339 460 454 c 0
 460 581 390 683 263 683 c 0
 138 683 59 588 59 472 c 0
 59 346 137 253 257 253 c 0
EndSplineSet
EndChar

StartChar: colon
Encoding: 58 58 246
Width: 150
Flags: MW
HStem: -14 40<54.5 65.5> 500 40<54.5 65.5>
VStem: 40 40<0.5 11.5 514.5 525.5>
LayerCount: 2
Fore
SplineSet
60 540 m 0
 71 540 80 531 80 520 c 0
 80 509 71 500 60 500 c 0
 49 500 40 509 40 520 c 0
 40 531 49 540 60 540 c 0
60 26 m 0
 71 26 80 17 80 6 c 0
 80 -5 71 -14 60 -14 c 0
 49 -14 40 -5 40 6 c 0
 40 17 49 26 60 26 c 0
EndSplineSet
EndChar

StartChar: semicolon
Encoding: 59 59 258
Width: 150
Flags: MW
HStem: -116 140<-2 67 -2 67> 500 40<54.5 65.5>
VStem: -2 82
LayerCount: 2
Fore
SplineSet
60 540 m 0
 71 540 80 531 80 520 c 0
 80 509 71 500 60 500 c 0
 49 500 40 509 40 520 c 0
 40 531 49 540 60 540 c 0
68 19 m 1
 17 -116 l 1
 -2 -116 l 1
 44 24 l 1
 67 24 l 1
 68 19 l 1
EndSplineSet
EndChar

StartChar: less
Encoding: 60 60 296
Width: 530
Flags: MW
HStem: 60 410<472 472>
VStem: 71 30<265 265 265 275 265 275>
LayerCount: 2
Fore
SplineSet
472 445 m 1
 101 265 l 1
 472 85 l 1
 472 60 l 1
 71 255 l 1
 71 275 l 1
 472 470 l 1
 472 445 l 1
EndSplineSet
EndChar

StartChar: equal
Encoding: 61 61 291
Width: 530
Flags: MW
HStem: 217 21<55 475 55 475> 397 21<55 475 55 475>
VStem: 55 420<217 238 217 238 397 418 217 418>
LayerCount: 2
Fore
SplineSet
475 397 m 1
 55 397 l 1
 55 418 l 1
 475 418 l 1
 475 397 l 1
475 217 m 1
 55 217 l 1
 55 238 l 1
 475 238 l 1
 475 217 l 1
EndSplineSet
EndChar

StartChar: greater
Encoding: 62 62 292
Width: 530
Flags: MW
HStem: 60 410<58 58>
VStem: 429 30<265 265>
LayerCount: 2
Fore
SplineSet
459 275 m 1
 459 255 l 1
 58 60 l 1
 58 85 l 1
 429 265 l 1
 58 445 l 1
 58 470 l 1
 459 275 l 1
EndSplineSet
EndChar

StartChar: question
Encoding: 63 63 254
Width: 522
Flags: MW
HStem: -14 40<236.5 247.5> 683 21<202 309>
VStem: 50 22<494 494> 231 20<110 160.5> 426 24<494 575.5>
LayerCount: 2
Fore
SplineSet
259 704 m 0
 384 704 450 625 450 526 c 0
 450 455 413 392 357 339 c 0
 266 252 251 211 251 110 c 1
 231 110 l 1
 232 220 245 258 341 352 c 0
 399 409 426 462 426 526 c 0
 426 625 359 683 259 683 c 0
 145 683 80 607 72 494 c 1
 50 494 l 1
 55 618 139 704 259 704 c 0
242 26 m 0
 253 26 262 17 262 6 c 0
 262 -5 253 -14 242 -14 c 0
 231 -14 222 -5 222 6 c 0
 222 17 231 26 242 26 c 0
EndSplineSet
EndChar

StartChar: at
Encoding: 64 64 313
Width: 851
Flags: MW
HStem: -104 21<315 445> -15 21G<681 681> 67 21<346 396> 75 21<591 658.5 591 660.5> 462 21<410 481.5 401.5 491.5> 643 21<377.5 555.5>
VStem: 61 24<138.5 371 138.5 375.5> 250 24<176 288.5> 512 24<145 173> 545.34 12.66 773 24<261 430>
LayerCount: 2
Fore
SplineSet
599 465 m 1xefe0
 549 256 l 2
 538 207 536 187 536 168 c 0
 536 122 567 96 615 96 c 0
 702 96 773 189 773 333 c 0
 773 527 647 643 464 643 c 0
 291 643 85 495 85 247 c 0
 85 30 235 -83 395 -83 c 0
 499 -83 572 -63 669 4 c 1
 681 -15 l 1
 569 -90 495 -104 395 -104 c 0
 230 -104 61 9 61 244 c 0
 61 507 275 664 470 664 c 0
 665 664 797 530 797 338 c 0
 797 165 708 75 613 75 c 0
 564 75 512 97 512 173 c 1xdfa0
 494 135 l 1xefa0
 459 88 419 67 373 67 c 0
 319 67 250 98 250 218 c 0
 250 359 341 483 462 483 c 0
 501 483 524 467 537 449 c 1
 558 397 l 1
 574 465 l 1
 599 465 l 1xefe0
532 279 m 2
 541 319 l 2xdfe0
 559 397 525 462 458 462 c 0
 362 462 274 356 274 222 c 0
 274 130 315 88 377 88 c 0xefa0
 438 88 500 139 532 279 c 2
EndSplineSet
EndChar

StartChar: B
Encoding: 66 66 12
Width: 587
GlyphClass: 2
Flags: MW
HStem: 0 21<118 288> 351 21<118 284 284 292 118 298 118 284> 669 21<118 118 118 270>
VStem: 96 22<21 351 372 669> 498 24<481.5 573 481.5 574.5> 524 24<128 221.5>
LayerCount: 2
Fore
SplineSet
388 364 m 1
 496 348 548 277 548 183 c 0xf4
 548 73 459 8 356 2 c 0
 331 0 312 0 288 0 c 2
 96 0 l 1
 96 690 l 1
 270 690 l 2
 297 690 313 690 348 688 c 0
 452 681 522 621 522 525 c 0xf8
 522 438 471 377 388 364 c 1
118 669 m 1xf8
 118 372 l 1
 284 372 l 2
 300 372 316 372 339 373 c 0
 411 377 498 411 498 520 c 0
 498 629 415 665 335 668 c 0
 312 669 296 669 270 669 c 2
 118 669 l 1xf8
349 22 m 0xf4
 434 28 524 73 524 182 c 0
 524 261 484 344 350 350 c 0
 327 351 314 351 298 351 c 2
 118 351 l 1
 118 21 l 1
 304 21 l 2
 320 21 336 21 349 22 c 0xf4
EndSplineSet
Position2: "'cpsp' Capital Spacing in Latin lookup 0 subtable" dx=5 dy=0 dh=10 dv=0
EndChar

StartChar: F
Encoding: 70 70 31
Width: 531
GlyphClass: 2
Flags: MW
HStem: 0 21G<96 118 96 96> 335 20<118 485 118 485> 670 20<118 118 118 515>
VStem: 96 22<0 335 355 670>
LayerCount: 2
Fore
SplineSet
118 670 m 1
 118 355 l 1
 485 355 l 1
 485 335 l 1
 118 335 l 1
 118 0 l 1
 96 0 l 1
 96 690 l 1
 515 690 l 1
 515 670 l 1
 118 670 l 1
EndSplineSet
Position2: "'cpsp' Capital Spacing in Latin lookup 0 subtable" dx=5 dy=0 dh=10 dv=0
EndChar

StartChar: H
Encoding: 72 72 36
Width: 655
GlyphClass: 2
Flags: MW
HStem: 0 21G<96 118 96 96 562 584 562 562> 328 21<118 562 118 562> 670 20G<96 118 118 118 562 584 584 584>
VStem: 96 22<0 328 0 349 349 690> 562 22<0 328 328 328 349 690 0 690>
LayerCount: 2
Fore
SplineSet
584 690 m 1
 584 0 l 1
 562 0 l 1
 562 328 l 1
 118 328 l 1
 118 0 l 1
 96 0 l 1
 96 690 l 1
 118 690 l 1
 118 349 l 1
 562 349 l 1
 562 690 l 1
 584 690 l 1
EndSplineSet
Position2: "'cpsp' Capital Spacing in Latin lookup 0 subtable" dx=5 dy=0 dh=10 dv=0
EndChar

StartChar: I
Encoding: 73 73 38
Width: 189
GlyphClass: 2
Flags: MW
HStem: 0 21G<96 118 96 96> 670 20G<96 118 118 118>
VStem: 96 22<0 690>
LayerCount: 2
Fore
SplineSet
118 0 m 1
 96 0 l 1
 96 690 l 1
 118 690 l 1
 118 0 l 1
EndSplineSet
Position2: "'cpsp' Capital Spacing in Latin lookup 0 subtable" dx=5 dy=0 dh=10 dv=0
EndChar

StartChar: J
Encoding: 74 74 47
Width: 495
GlyphClass: 2
Flags: MW
HStem: -14 21<194.5 290 194.5 302> 670 20G<407 429 429 429>
VStem: 47.5 22 407 22<252 260 260 690>
LayerCount: 2
Fore
SplineSet
429 690 m 1
 429 260 l 2
 429 229 429 201 427 169 c 0
 421 77 365 -14 239 -14 c 0
 123 -14 53 53 48 194 c 2
 47 224 l 1
 69 224 l 1
 70 194 l 2
 75 56 148 7 241 7 c 0
 339 7 396 68 405 172 c 0
 407 194 407 221 407 252 c 2
 407 690 l 1
 429 690 l 1
EndSplineSet
Position2: "'cpsp' Capital Spacing in Latin lookup 0 subtable" dx=5 dy=0 dh=10 dv=0
EndChar

StartChar: K
Encoding: 75 75 48
Width: 553
GlyphClass: 2
Flags: MW
HStem: 0 21G<96 118 96 96 502 535 502 502> 670 20G<96 118 118 118 512 541 541 541>
VStem: 96 22<0 299 324 690>
AnchorPoint: "Anchor-0" 297 0 basechar 0
LayerCount: 2
Fore
SplineSet
180 355 m 1
 535 0 l 1
 502 0 l 1
 163 341 l 1
 118 299 l 1
 118 0 l 1
 96 0 l 1
 96 690 l 1
 118 690 l 1
 118 324 l 1
 512 690 l 1
 541 690 l 1
 180 355 l 1
EndSplineSet
Position2: "'cpsp' Capital Spacing in Latin lookup 0 subtable" dx=5 dy=0 dh=10 dv=0
EndChar

StartChar: M
Encoding: 77 77 56
Width: 794
GlyphClass: 2
Flags: MW
HStem: 0 21<410 410 410 423 395 410> 673 17
VStem: 96 22<0 400 0 690> 702 21<0 400 400 444>
LayerCount: 2
Fore
SplineSet
723 690 m 1
 723 0 l 1
 702 0 l 1
 702 400 l 2
 702 488 701 586 703 673 c 1
 669 586 629 487 592 400 c 2
 423 0 l 1
 395 0 l 1
 227 400 l 2
 191 487 150 586 116 673 c 1
 118 586 118 488 118 400 c 2
 118 0 l 1
 96 0 l 1
 96 690 l 1
 131 690 l 1
 410 21 l 1
 691 690 l 1
 723 690 l 1
EndSplineSet
Position2: "'cpsp' Capital Spacing in Latin lookup 0 subtable" dx=5 dy=0 dh=10 dv=0
EndChar

StartChar: N
Encoding: 78 78 57
Width: 637
GlyphClass: 2
Flags: MW
HStem: 0 20<546 546 546 566 532 546> 670 20<116 116>
VStem: 96 22<0 375 0 690> 544 22<315 690>
AnchorPoint: "Anchor-0" 331 0 basechar 0
LayerCount: 2
Fore
SplineSet
566 0 m 1
 532 0 l 1
 116 670 l 1
 118 577 118 468 118 375 c 2
 118 0 l 1
 96 0 l 1
 96 690 l 1
 129 690 l 1
 546 20 l 1
 544 113 544 222 544 315 c 2
 544 690 l 1
 566 690 l 1
 566 0 l 1
EndSplineSet
Position2: "'cpsp' Capital Spacing in Latin lookup 0 subtable" dx=5 dy=0 dh=10 dv=0
EndChar

StartChar: O
Encoding: 79 79 63
Width: 713
GlyphClass: 2
Flags: MW
HStem: -14 21<286 440 286 457> 683 21<286 440>
VStem: 51 24<242 448.5> 651 24<242 448.5 242 453.5>
LayerCount: 2
Fore
SplineSet
363 704 m 0
 551 704 675 552 675 345 c 0
 675 139 551 -14 363 -14 c 0
 175 -14 51 139 51 345 c 0
 51 552 175 704 363 704 c 0
363 7 m 0
 517 7 651 129 651 345 c 0
 651 562 517 683 363 683 c 0
 209 683 75 562 75 345 c 0
 75 129 209 7 363 7 c 0
EndSplineSet
Position2: "'cpsp' Capital Spacing in Latin lookup 0 subtable" dx=5 dy=0 dh=10 dv=0
EndChar

StartChar: P
Encoding: 80 80 73
Width: 521
GlyphClass: 2
Flags: MW
HStem: 0 21G<96 118 96 96> 308 21<118 249 118 249> 669 21<118 249 118 118>
VStem: 96 22<0 308 0 329 329 669> 491 24<449.5 555.5>
LayerCount: 2
Fore
SplineSet
348 685 m 0
 441 673 515 621 515 504 c 0
 515 384 441 325 348 313 c 0
 316 309 284 308 249 308 c 2
 118 308 l 1
 118 0 l 1
 96 0 l 1
 96 690 l 1
 249 690 l 2
 284 690 316 689 348 685 c 0
344 334 m 0
 428 344 491 395 491 504 c 0
 491 607 428 654 344 664 c 0
 312 668 285 669 249 669 c 2
 118 669 l 1
 118 329 l 1
 249 329 l 2
 285 329 312 330 344 334 c 0
EndSplineSet
Position2: "'cpsp' Capital Spacing in Latin lookup 0 subtable" dx=5 dy=0 dh=10 dv=0
EndChar

StartChar: Q
Encoding: 81 81 75
Width: 715
GlyphClass: 2
Flags: MW
HStem: -14 21<286 377.5> 2 22 683 21<286 440>
VStem: 51 24<242 448.5> 651 24<287 448.5 287 453.5>
LayerCount: 2
Fore
SplineSet
675 345 m 0xb8
 675 229 640 102 510 24 c 1
 572 22 607 4 656 -35 c 1
 642 -52 l 1
 590 -11 552 2 501 2 c 0x78
 479 2 462 -1 434 -7 c 0
 410 -12 392 -14 363 -14 c 0
 175 -14 51 139 51 345 c 0
 51 552 175 704 363 704 c 0
 551 704 675 552 675 345 c 0xb8
75 345 m 0
 75 129 209 7 363 7 c 0
 517 7 651 129 651 345 c 0
 651 562 517 683 363 683 c 0
 209 683 75 562 75 345 c 0
EndSplineSet
Position2: "'cpsp' Capital Spacing in Latin lookup 0 subtable" dx=5 dy=0 dh=10 dv=0
EndChar

StartChar: T
Encoding: 84 84 85
Width: 580
GlyphClass: 2
Flags: MW
HStem: 0 21G<296 318 296 296> 670 20<32 296 32 582 318 582 318 318>
VStem: 296 22<0 670 0 670>
AnchorPoint: "Anchor-0" 307 0 basechar 0
LayerCount: 2
Fore
SplineSet
582 670 m 1
 318 670 l 1
 318 0 l 1
 296 0 l 1
 296 670 l 1
 32 670 l 1
 32 690 l 1
 582 690 l 1
 582 670 l 1
EndSplineSet
Position2: "'cpsp' Capital Spacing in Latin lookup 0 subtable" dx=5 dy=0 dh=10 dv=0
EndChar

StartChar: U
Encoding: 85 85 90
Width: 600
GlyphClass: 2
Flags: MW
HStem: -14 21<246.5 377.5 246.5 381> 670 20G<90 112 112 112 512 534 534 534>
VStem: 90 22<233 690> 512 22<229 233 233 690>
LayerCount: 2
Fore
SplineSet
534 690 m 1
 534 233 l 2
 534 218 533 197 531 166 c 0
 524 60 450 -14 312 -14 c 0
 174 -14 100 60 93 166 c 0
 91 197 90 218 90 233 c 2
 90 690 l 1
 112 690 l 1
 112 229 l 2
 112 206 113 188 115 167 c 0
 123 80 181 7 312 7 c 0
 443 7 501 80 509 167 c 0
 511 188 512 206 512 229 c 2
 512 690 l 1
 534 690 l 1
EndSplineSet
Position2: "'cpsp' Capital Spacing in Latin lookup 0 subtable" dx=5 dy=0 dh=10 dv=0
EndChar

StartChar: V
Encoding: 86 86 99
Width: 583
GlyphClass: 2
Flags: MW
HStem: 0 19<308 308 308 323 293 308> 670 20G<26 50 50 50 566 590 590 590>
VStem: 26 564<690 690>
LayerCount: 2
Fore
SplineSet
323 0 m 1
 293 0 l 1
 26 690 l 1
 50 690 l 1
 308 19 l 1
 566 690 l 1
 590 690 l 1
 323 0 l 1
EndSplineSet
Position2: "'cpsp' Capital Spacing in Latin lookup 0 subtable" dx=5 dy=0 dh=10 dv=0
EndChar

StartChar: W
Encoding: 87 87 100
Width: 823
GlyphClass: 2
Flags: MW
HStem: 0 22<215 215 215 228 199 215> 656 24<427 427> 670 20G<26 49 49 49 804 826 826 826>
VStem: 26 800<690 690>
LayerCount: 2
Fore
SplineSet
826 690 m 1xb0
 640 0 l 1
 612 0 l 1
 427 656 l 1xd0
 228 0 l 1
 199 0 l 1
 26 690 l 1
 49 690 l 1xb0
 215 22 l 1
 412 680 l 1
 442 680 l 1xd0
 626 24 l 1
 804 690 l 1
 826 690 l 1xb0
EndSplineSet
Position2: "'cpsp' Capital Spacing in Latin lookup 0 subtable" dx=5 dy=0 dh=10 dv=0
EndChar

StartChar: X
Encoding: 88 88 105
Width: 572
GlyphClass: 2
Flags: MW
HStem: 0 21G<28 56 28 28 526 556 526 526> 670 20G<45 70 70 70 533 562 562 562>
VStem: 28 534
LayerCount: 2
Fore
SplineSet
304 345 m 1
 556 0 l 1
 526 0 l 1
 291 329 l 1
 56 0 l 1
 28 0 l 1
 276 344 l 1
 45 690 l 1
 70 690 l 1
 290 363 l 1
 533 690 l 1
 562 690 l 1
 304 345 l 1
EndSplineSet
Position2: "'cpsp' Capital Spacing in Latin lookup 0 subtable" dx=5 dy=0 dh=10 dv=0
EndChar

StartChar: Y
Encoding: 89 89 106
Width: 545
GlyphClass: 2
Flags: MW
HStem: 0 21G<268 290 268 268> 670 20G<23 49 49 49 509 536 536 536>
VStem: 268 22<0 282 0 282>
LayerCount: 2
Fore
SplineSet
290 282 m 1
 290 0 l 1
 268 0 l 1
 268 282 l 1
 23 690 l 1
 49 690 l 1
 280 305 l 1
 509 690 l 1
 536 690 l 1
 290 282 l 1
EndSplineSet
Position2: "'cpsp' Capital Spacing in Latin lookup 0 subtable" dx=5 dy=0 dh=10 dv=0
EndChar

StartChar: Z
Encoding: 90 90 111
Width: 537
GlyphClass: 2
Flags: MW
HStem: 0 21<64 512 64 512> 669 21<64 480 64 506>
VStem: 36 476<0 17 17 17>
LayerCount: 2
Fore
SplineSet
512 21 m 1
 512 0 l 1
 36 0 l 1
 36 17 l 1
 480 669 l 1
 64 669 l 1
 64 690 l 1
 506 690 l 1
 506 670 l 1
 64 21 l 1
 512 21 l 1
EndSplineSet
Position2: "'cpsp' Capital Spacing in Latin lookup 0 subtable" dx=5 dy=0 dh=10 dv=0
EndChar

StartChar: bracketleft
Encoding: 91 91 263
Width: 311
Flags: MW
HStem: -80 21<154 285 154 285> 759 21<154 285 154 154>
VStem: 132 22<-59 759 -59 780 -59 780>
LayerCount: 2
Fore
SplineSet
285 780 m 1
 285 759 l 1
 154 759 l 1
 154 -59 l 1
 285 -59 l 1
 285 -80 l 1
 132 -80 l 1
 132 780 l 1
 285 780 l 1
EndSplineSet
EndChar

StartChar: backslash
Encoding: 92 92 244
Width: 263
Flags: MW
HStem: -30 750<-5 268 -5 246>
VStem: -5 273
LayerCount: 2
Fore
SplineSet
268 -30 m 1
 246 -30 l 1
 -5 720 l 1
 17 720 l 1
 268 -30 l 1
EndSplineSet
EndChar

StartChar: bracketright
Encoding: 93 93 264
Width: 311
Flags: MW
HStem: -80 21<26 157 26 179 26 157> 759 21<26 157 26 179>
VStem: 157 22<-59 759 759 759>
LayerCount: 2
Fore
SplineSet
179 -80 m 1
 26 -80 l 1
 26 -59 l 1
 157 -59 l 1
 157 759 l 1
 26 759 l 1
 26 780 l 1
 179 780 l 1
 179 -80 l 1
EndSplineSet
EndChar

StartChar: asciicircum
Encoding: 94 94 312
Width: 530
Flags: MW
HStem: 595 21<267 267>
VStem: 82 369<215 215>
LayerCount: 2
Fore
SplineSet
426 215 m 1
 267 595 l 1
 106 215 l 1
 82 215 l 1
 254 616 l 1
 281 616 l 1
 451 215 l 1
 426 215 l 1
EndSplineSet
EndChar

StartChar: underscore
Encoding: 95 95 260
Width: 500
Flags: MW
HStem: -80 21<50 450 50 450>
VStem: 50 400<-80 -59 -80 -59>
LayerCount: 2
Fore
SplineSet
450 -80 m 1
 50 -80 l 1
 50 -59 l 1
 450 -59 l 1
 450 -80 l 1
EndSplineSet
EndChar

StartChar: grave
Encoding: 96 96 331
Width: 300
Flags: MW
HStem: 580 110<74 162 74 143>
VStem: 74 88
LayerCount: 2
Fore
SplineSet
162 580 m 1
 143 580 l 1
 74 690 l 1
 102 690 l 1
 162 580 l 1
EndSplineSet
EndChar

StartChar: a
Encoding: 97 97 115
Width: 494
GlyphClass: 2
Flags: MW
HStem: -14 21<164 244.5> 0 21G<409 409 409 432> 281 22<367 401> 519 21<217 297>
VStem: 47 24<91.5 188 91.5 188.5> 67 22<382 382> 401 22<209 281 281 281 303 330 330 332>
LayerCount: 2
Fore
SplineSet
409 0 m 1x76
 402 129 l 1
 379 76 l 1
 342 17 280 -14 209 -14 c 0
 109 -14 47 33 47 127 c 0xba
 47 250 203 303 367 303 c 2
 401 303 l 1
 401 330 l 2
 401 355 401 375 399 398 c 0
 392 477 340 519 254 519 c 0
 180 519 101 480 89 382 c 1
 67 382 l 1
 73 470 150 540 254 540 c 0
 357 540 414 489 421 401 c 0
 423 374 423 360 423 332 c 2
 423 170 l 2
 423 110 426 69 432 0 c 1
 409 0 l 1x76
212 7 m 0
 325 7 401 105 401 209 c 2
 401 281 l 1
 247 291 71 248 71 128 c 0
 71 55 116 7 212 7 c 0
EndSplineSet
EndChar

StartChar: b
Encoding: 98 98 126
Width: 544
GlyphClass: 2
Flags: MW
HStem: -14 21<241.5 338 234 338.5> 0 21G<71 93 71 71> 519 21<251 351.5> 715 20G<71 93 93 93>
VStem: 71 22<0 120 143 229 229 288 406 735> 490 24<187.5 332>
LayerCount: 2
Fore
SplineSet
287 540 m 0xbc
 424 540 514 427 514 267 c 0
 514 81 402 -14 275 -14 c 0
 208 -14 165 6 122 54 c 1xbc
 93 120 l 1
 93 0 l 1
 71 0 l 1x7c
 71 735 l 1
 93 735 l 1
 93 406 l 1
 121 466 l 1
 168 522 215 540 287 540 c 0xbc
275 7 m 0
 401 7 490 112 490 263 c 0
 490 401 418 519 285 519 c 0
 181 519 93 461 93 288 c 2
 93 229 l 2
 93 57 193 7 275 7 c 0
EndSplineSet
EndChar

StartChar: c
Encoding: 99 99 127
Width: 517
GlyphClass: 2
Flags: MW
HStem: -14 20<212 310.5 212 317> 520 20<219.5 322.5>
VStem: 30 24<179 348>
AnchorPoint: "Anchor-0" 255 0 basechar 0
LayerCount: 2
Fore
SplineSet
271 540 m 0
 385 540 466 468 481 363 c 1
 459 363 l 1
 442 458 376 520 269 520 c 0
 170 520 54 438 54 268 c 0
 54 90 159 6 265 6 c 0
 356 6 435 60 455 157 c 1
 477 157 l 1
 456 51 371 -14 263 -14 c 0
 134 -14 30 88 30 263 c 0
 30 433 139 540 271 540 c 0
EndSplineSet
EndChar

StartChar: d
Encoding: 100 100 132
Width: 544
GlyphClass: 2
Flags: MW
HStem: -14 21<192.5 293> 0 21G<451 473 451 451> 519 21<206 302.5 205.5 310> 715 20G<451 473 473 473>
VStem: 30 24<194 338.5 194 352> 451 22<0 120 120 120 238 297 297 383 406 735 0 735>
LayerCount: 2
Fore
SplineSet
473 735 m 1xbc
 473 0 l 1
 451 0 l 1x7c
 451 120 l 1
 423 60 l 1
 376 4 329 -14 257 -14 c 0
 120 -14 30 99 30 259 c 0
 30 445 142 540 269 540 c 0
 336 540 379 520 422 472 c 1
 451 406 l 1
 451 735 l 1
 473 735 l 1xbc
259 7 m 0xbc
 363 7 451 65 451 238 c 2
 451 297 l 2
 451 469 351 519 269 519 c 0
 143 519 54 414 54 263 c 0
 54 125 126 7 259 7 c 0xbc
EndSplineSet
EndChar

StartChar: f
Encoding: 102 102 145
Width: 230
GlyphClass: 2
Flags: MW
HStem: 0 21G<82 104 82 82> 501 21<25 82 25 82 104 211> 732.55 16.45
VStem: 82 22<0 501 0 501 522 606>
LayerCount: 2
Fore
SplineSet
106 656 m 0
 104 634 104 621 104 606 c 2
 104 522 l 1
 211 522 l 1
 211 501 l 1
 104 501 l 1
 104 0 l 1
 82 0 l 1
 82 501 l 1
 25 501 l 1
 25 522 l 1
 82 522 l 1
 82 606 l 2
 82 621 82 638 84 659 c 0
 90 725 134 754 175 754 c 0
 195 754 204 753 222 749 c 1
 222 728 l 1
 144 747 111 709 106 656 c 0
EndSplineSet
EndChar

StartChar: g
Encoding: 103 103 146
Width: 544
GlyphClass: 2
Flags: MW
HStem: -220 21<214.5 320 214.5 323> -14 21<192.5 293> 510 20G<451 473 473 473> 519 21<206 302.5 205.5 310>
VStem: 30 24<194 338.5 194 352> 54 22 451 22<100 120 120 120 238 297 297 383 406 530>
LayerCount: 2
Fore
SplineSet
473 530 m 1xea
 473 140 l 2
 473 57 473 16 472 -18 c 0
 468 -137 390 -220 256 -220 c 0
 159 -220 71 -181 55 -62 c 2
 53 -47 l 1
 75 -47 l 1
 77 -62 l 2xd6
 90 -163 171 -199 258 -199 c 0
 382 -199 447 -121 450 -11 c 0
 451 24 451 51 451 100 c 2
 451 120 l 1
 423 60 l 1
 376 4 329 -14 257 -14 c 0
 120 -14 30 99 30 259 c 0
 30 445 142 540 269 540 c 0
 336 540 379 520 422 472 c 1xda
 451 406 l 1
 451 530 l 1
 473 530 l 1xea
259 7 m 0
 363 7 451 65 451 238 c 2
 451 297 l 2
 451 469 351 519 269 519 c 0
 143 519 54 414 54 263 c 0xda
 54 125 126 7 259 7 c 0
EndSplineSet
EndChar

StartChar: h
Encoding: 104 104 150
Width: 530
GlyphClass: 2
Flags: MW
HStem: 0 21G<71 93 71 71 442 464 442 442> 519 21<246.5 329> 720 20G<71 93 93 93>
VStem: 71 22<0 312 406 740> 442 22<0 283 283 292 0 301.5>
LayerCount: 2
Fore
SplineSet
460 378 m 0
 463 351 464 335 464 292 c 2
 464 0 l 1
 442 0 l 1
 442 283 l 2
 442 320 441 343 438 370 c 0
 428 459 379 519 279 519 c 0
 183 519 93 452 93 312 c 2
 93 0 l 1
 71 0 l 1
 71 740 l 1
 93 740 l 1
 93 406 l 1
 114 458 l 1
 153 513 214 540 279 540 c 0
 385 540 449 481 460 378 c 0
EndSplineSet
EndChar

StartChar: i
Encoding: 105 105 152
Width: 164
GlyphClass: 2
Flags: MW
HStem: 0 21G<71 93 71 71> 506 20G<71 93 93 93> 613 40<76.5 87.5>
VStem: 71 22<0 526>
LayerCount: 2
Fore
SplineSet
82 653 m 0
 93 653 102 644 102 633 c 0
 102 622 93 613 82 613 c 0
 71 613 62 622 62 633 c 0
 62 644 71 653 82 653 c 0
93 0 m 1
 71 0 l 1
 71 526 l 1
 93 526 l 1
 93 0 l 1
EndSplineSet
EndChar

StartChar: j
Encoding: 106 106 161
Width: 156
GlyphClass: 2
Flags: MW
HStem: -210 19.93 506 20G<64 86 86 86> 613 40<69.5 80.5>
VStem: 64 22<-83 -73 -73 526>
LayerCount: 2
Fore
SplineSet
75 653 m 0
 86 653 95 644 95 633 c 0
 95 622 86 613 75 613 c 0
 64 613 55 622 55 633 c 0
 55 644 64 653 75 653 c 0
86 526 m 1
 86 -73 l 2
 86 -93 86 -107 85 -125 c 0
 82 -184 45 -210 3 -210 c 0
 -8 -210 -19 -209 -32 -206 c 1
 -32 -187 l 1
 23 -197 60 -186 63 -123 c 0
 64 -109 64 -99 64 -84 c 2
 64 526 l 1
 86 526 l 1
EndSplineSet
EndChar

StartChar: l
Encoding: 108 108 164
Width: 173
GlyphClass: 2
Flags: MW
HStem: -5 21 715 20G<68 90 90 90>
VStem: 68 22<120 735>
AnchorPoint: "Anchor-0" 112 0 basechar 0
LayerCount: 2
Fore
SplineSet
90 735 m 1
 90 120 l 2
 90 85 90 65 91 51 c 0
 93 18 106 11 147 16 c 1
 147 -3 l 1
 137 -5 128 -5 118 -5 c 0
 91 -5 71 6 69 46 c 0
 68 66 68 82 68 120 c 2
 68 735 l 1
 90 735 l 1
EndSplineSet
EndChar

StartChar: m
Encoding: 109 109 170
Width: 809
GlyphClass: 2
Flags: MW
HStem: 0 21G<71 93 71 71 396 418 396 396 721 743 721 721> 506 20G<71 93 93 93> 520 20<228.5 298 553.5 623>
VStem: 71 22<0 302 414 526> 396 22<0 283 283 301.5> 721 22<0 283 283 292 0 301.5>
LayerCount: 2
Fore
SplineSet
739 378 m 0xbc
 742 351 743 335 743 292 c 2
 743 0 l 1
 721 0 l 1
 721 283 l 2
 721 320 720 343 717 370 c 0
 707 459 666 520 580 520 c 0
 492 520 418 452 418 302 c 2
 418 0 l 1
 396 0 l 1
 396 283 l 2
 396 320 395 343 392 370 c 0
 382 459 341 520 255 520 c 0xbc
 167 520 93 452 93 302 c 2
 93 0 l 1
 71 0 l 1
 71 526 l 1
 93 526 l 1xdc
 93 414 l 1
 117 471 l 1
 153 518 201 540 256 540 c 0
 342 540 394 490 410 403 c 1
 442 471 l 1
 478 518 526 540 581 540 c 0
 675 540 728 481 739 378 c 0xbc
EndSplineSet
EndChar

StartChar: p
Encoding: 112 112 187
Width: 544
GlyphClass: 2
Flags: MW
HStem: -14 21<241.5 338 234 338.5> 514 20G<71 93 93 93> 519 21<251 351.5>
VStem: 71 22<-196 120 143 229 229 288 406 534> 490 24<187.5 332>
LayerCount: 2
Fore
SplineSet
287 540 m 0xb8
 424 540 514 427 514 267 c 0
 514 81 402 -14 275 -14 c 0
 208 -14 165 6 122 54 c 1
 93 120 l 1
 93 -196 l 1
 71 -196 l 1
 71 534 l 1
 93 534 l 1xd8
 93 406 l 1
 121 466 l 1
 168 522 215 540 287 540 c 0xb8
275 7 m 0
 401 7 490 112 490 263 c 0
 490 401 418 519 285 519 c 0
 181 519 93 461 93 288 c 2
 93 229 l 2
 93 57 193 7 275 7 c 0
EndSplineSet
EndChar

StartChar: q
Encoding: 113 113 189
Width: 545
GlyphClass: 2
Flags: MW
HStem: -14 21<192.5 293> 514 20G<452 474 474 474> 519 21<206 302.5 205.5 310>
VStem: 30 24<194 338.5 194 352> 452 22<-196 122 122 122 227 303 303 303 404 534 -196 534>
LayerCount: 2
Fore
SplineSet
474 534 m 1xd8
 474 -196 l 1
 452 -196 l 1
 452 122 l 1
 423 60 l 1
 376 4 329 -14 257 -14 c 0
 120 -14 30 99 30 259 c 0
 30 445 142 540 269 540 c 0
 336 540 379 520 422 472 c 1xb8
 452 404 l 1
 452 534 l 1
 474 534 l 1xd8
452 227 m 1
 452 303 l 1
 451 297 l 1
 451 469 351 519 269 519 c 0
 143 519 54 414 54 263 c 0
 54 125 126 7 259 7 c 0
 363 7 451 65 451 238 c 1
 452 227 l 1
EndSplineSet
EndChar

StartChar: r
Encoding: 114 114 190
Width: 257
GlyphClass: 2
Flags: MW
HStem: 0 21G<71 93 71 71> 506 20G<71 93 93 93> 519 21<208.5 256>
VStem: 71 22<0 288 413 526>
AnchorPoint: "Anchor-0" 82 0 basechar 0
LayerCount: 2
Fore
SplineSet
233 540 m 0xb0
 241 540 249 540 256 539 c 1
 256 519 l 1xb0
 160 527 93 462 93 288 c 2
 93 0 l 1
 71 0 l 1
 71 526 l 1
 93 526 l 1xd0
 93 413 l 1
 114 473 l 1
 142 515 184 540 233 540 c 0xb0
EndSplineSet
EndChar

StartChar: u
Encoding: 117 117 205
Width: 526
GlyphClass: 2
Flags: MW
HStem: -14 21<197 279.5> 0 21G<433 455 433 433> 506 20G<62 84 84 84 433 455 455 455>
VStem: 62 22<234 243 243 526> 433 22<0 120 120 120 214 526 0 526>
LayerCount: 2
Fore
SplineSet
455 526 m 1xb8
 455 0 l 1
 433 0 l 1x78
 433 120 l 1
 412 68 l 1
 373 13 312 -14 247 -14 c 0
 141 -14 77 45 66 148 c 0
 63 175 62 191 62 234 c 2
 62 526 l 1
 84 526 l 1
 84 243 l 2
 84 206 85 183 88 156 c 0
 98 67 147 7 247 7 c 0
 343 7 433 74 433 214 c 2
 433 526 l 1
 455 526 l 1xb8
EndSplineSet
EndChar

StartChar: v
Encoding: 118 118 214
Width: 468
GlyphClass: 2
Flags: MW
HStem: 0 19<237 237 237 252 221 237> 506 20G<13 38 38 38 435 460 460 460>
VStem: 13 447<526 526>
LayerCount: 2
Fore
SplineSet
460 526 m 1
 252 0 l 1
 221 0 l 1
 13 526 l 1
 38 526 l 1
 237 19 l 1
 435 526 l 1
 460 526 l 1
EndSplineSet
EndChar

StartChar: w
Encoding: 119 119 215
Width: 716
GlyphClass: 2
Flags: MW
HStem: 0 22<197 197 197 214 180 197> 499 25<364 364>
VStem: 13 695<526 526>
LayerCount: 2
Fore
SplineSet
708 526 m 1
 542 0 l 1
 514 0 l 1
 364 499 l 1
 214 0 l 1
 180 0 l 1
 13 526 l 1
 38 526 l 1
 197 22 l 1
 348 524 l 1
 379 524 l 1
 530 25 l 1
 684 526 l 1
 708 526 l 1
EndSplineSet
EndChar

StartChar: x
Encoding: 120 120 220
Width: 417
GlyphClass: 2
Flags: MW
HStem: 0 21G<3 30 3 3 376 404 376 376> 506 20G<11 37 37 37 377 404 404 404>
VStem: 3 401<0 0>
LayerCount: 2
Fore
SplineSet
218 264 m 1
 404 0 l 1
 376 0 l 1
 205 249 l 1
 30 0 l 1
 3 0 l 1
 190 264 l 1
 11 526 l 1
 37 526 l 1
 205 280 l 1
 377 526 l 1
 404 526 l 1
 218 264 l 1
EndSplineSet
EndChar

StartChar: y
Encoding: 121 121 221
Width: 457
GlyphClass: 2
Flags: MW
HStem: -210 20<72.5 99 72.5 104> 506 20G<13 38 38 38 424 449 449 449>
VStem: 13 436<526 526>
LayerCount: 2
Fore
SplineSet
449 526 m 1
 246 0 l 2
 175 -185 133 -210 75 -210 c 0
 61 -210 51 -209 40 -206 c 1
 40 -186 l 1
 53 -189 66 -190 79 -190 c 0
 119 -190 157 -162 202 -52 c 2
 219 -10 l 1
 13 526 l 1
 38 526 l 1
 231 18 l 1
 424 526 l 1
 449 526 l 1
EndSplineSet
EndChar

StartChar: z
Encoding: 122 122 226
Width: 444
GlyphClass: 2
Flags: MW
HStem: 0 19<41 422 41 422> 497 21<40 390 40 419>
VStem: 13 409<0 18 18 18>
LayerCount: 2
Fore
SplineSet
422 19 m 1
 422 0 l 1
 13 0 l 1
 13 18 l 1
 390 497 l 1
 40 497 l 1
 40 518 l 1
 419 518 l 1
 419 498 l 1
 41 19 l 1
 422 19 l 1
EndSplineSet
EndChar

StartChar: braceleft
Encoding: 123 123 261
Width: 296
Flags: MW
HStem: -80 21<266 267 267 284> 759 21<235 284 267 284 267 284>
VStem: 78 29 138 22<-4 41.5 -4 41.5 658.5 704> 159 22<234 264 234 267 435.5 466>
LayerCount: 2
Fore
SplineSet
284 759 m 1xd0
 266 759 l 2
 204 759 160 738 160 670 c 0xd0
 160 647 163 629 170 575 c 0
 179 509 181 477 181 455 c 0
 181 416 166 365 107 351 c 1
 166 336 181 283 181 245 c 0xe8
 181 223 179 191 170 125 c 0
 163 71 160 53 160 30 c 0
 160 -38 204 -59 266 -59 c 2
 284 -59 l 1
 284 -80 l 1
 267 -80 l 2
 192 -80 138 -52 138 31 c 0xd0
 138 52 140 74 149 135 c 0
 157 193 159 221 159 245 c 0
 159 289 138 333 78 339 c 1
 78 361 l 1
 138 367 159 411 159 455 c 0xe8
 159 479 157 507 149 565 c 0
 140 626 138 648 138 669 c 0
 138 752 192 780 267 780 c 2
 284 780 l 1
 284 759 l 1xd0
EndSplineSet
EndChar

StartChar: bar
Encoding: 124 124 314
Width: 250
Flags: MW
HStem: -200 1000<114 136 114 136>
VStem: 114 22<-200 800>
LayerCount: 2
Fore
SplineSet
136 -200 m 1
 114 -200 l 1
 114 800 l 1
 136 800 l 1
 136 -200 l 1
EndSplineSet
EndChar

StartChar: braceright
Encoding: 125 125 262
Width: 296
Flags: MW
HStem: -80 21<12 29 12 30> 759 21<12 29 29 30 12 29>
VStem: 115 22<234 264.5 436 466> 136 22<-4 41.5 658.5 704> 189 29
LayerCount: 2
Fore
SplineSet
137 455 m 0xe0
 137 411 158 367 218 361 c 1
 218 339 l 1
 158 333 137 289 137 245 c 0xe8
 137 221 139 193 147 135 c 0
 156 74 158 52 158 31 c 0
 158 -52 104 -80 29 -80 c 2
 12 -80 l 1
 12 -59 l 1
 30 -59 l 2
 92 -59 136 -38 136 30 c 0xd0
 136 53 133 71 126 125 c 0
 117 191 115 223 115 245 c 0
 115 284 130 335 189 349 c 1
 130 364 115 417 115 455 c 0xe8
 115 477 117 509 126 575 c 0
 133 629 136 647 136 670 c 0
 136 738 92 759 30 759 c 2
 12 759 l 1
 12 780 l 1
 29 780 l 2
 104 780 158 752 158 669 c 0xd0
 158 648 156 626 147 565 c 0
 139 507 137 479 137 455 c 0xe0
EndSplineSet
EndChar

StartChar: asciitilde
Encoding: 126 126 288
Width: 530
Flags: MW
HStem: 233 21<374 412 374 415> 325 21<118.5 156.5>
VStem: 56 21<229 260 229 270.5> 454 21<319 350>
LayerCount: 2
Fore
SplineSet
454 350 m 1
 475 350 l 1
 475 267 442 233 388 233 c 0
 351 233 331 240 259 280 c 0
 196 315 172 325 141 325 c 0
 96 325 77 291 77 229 c 1
 56 229 l 1
 56 312 89 346 142 346 c 0
 180 346 201 338 272 299 c 0
 337 263 359 254 389 254 c 0
 435 254 454 288 454 350 c 1
EndSplineSet
EndChar

StartChar: exclamdown
Encoding: 161 161 250
Width: 202
Flags: MW
HStem: 504 40<95.5 106.5>
VStem: 89 24
LayerCount: 2
Fore
SplineSet
101 504 m 0
 90 504 81 513 81 524 c 0
 81 535 90 544 101 544 c 0
 112 544 121 535 121 524 c 0
 121 513 112 504 101 504 c 0
91 420 m 1
 111 420 l 1
 115 -160 l 1
 87 -160 l 1
 91 420 l 1
EndSplineSet
EndChar

StartChar: cent
Encoding: 162 162 281
Width: 530
Flags: MW
HStem: -14 20<265 265> 524 20<287 287>
VStem: 43 24<184.5 346> 265 22<-90 -14 -90 -14 6 523 523 523 544 620>
LayerCount: 2
Fore
SplineSet
287 524 m 1
 287 6 l 1
 374 10 449 63 468 157 c 1
 490 157 l 1
 470 55 390 -10 287 -14 c 1
 287 -90 l 1
 265 -90 l 1
 265 -14 l 1
 141 -8 43 95 43 265 c 0
 43 427 142 533 265 543 c 1
 265 620 l 1
 287 620 l 1
 287 544 l 1
 399 543 479 471 494 367 c 1
 472 367 l 1
 455 461 391 522 287 524 c 1
67 270 m 0
 67 99 164 13 265 6 c 1
 265 523 l 1
 170 514 67 430 67 270 c 0
EndSplineSet
EndChar

StartChar: sterling
Encoding: 163 163 285
Width: 530
Flags: MW
HStem: 0 21<106 474 106 474> 352 21<64 146 64 159 64 146 186 186 186 408> 683 21<240.5 335>
VStem: 99 24<499 573 499 577.5> 211 24<165.5 228.5 165.5 230> 451 22<508 508>
LayerCount: 2
Fore
SplineSet
474 21 m 1
 474 0 l 1
 55 0 l 1
 55 20 l 1
 132 42 211 101 211 205 c 0
 211 255 193 297 159 352 c 1
 64 352 l 1
 64 373 l 1
 146 373 l 1
 119 417 99 465 99 524 c 0
 99 631 180 704 285 704 c 0
 410 704 465 621 473 508 c 1
 451 508 l 1
 444 620 387 683 283 683 c 0
 198 683 123 621 123 525 c 0
 123 473 140 428 173 373 c 1
 408 373 l 1
 408 352 l 1
 186 352 l 1
 219 301 235 252 235 205 c 0
 235 126 191 60 106 21 c 1
 474 21 l 1
EndSplineSet
EndChar

StartChar: currency
Encoding: 164 164 282
Width: 530
Flags: MW
HStem: 121 21<242 288> 460 21<242 288 242 309.5>
VStem: 89 24<277 325> 417 24<277 325 277 346>
LayerCount: 2
Fore
SplineSet
441 301 m 0
 441 253 425 211 398 180 c 1
 455 123 l 1
 439 107 l 1
 382 164 l 1
 351 137 311 121 265 121 c 0
 219 121 179 137 148 164 c 1
 91 107 l 1
 75 123 l 1
 132 180 l 1
 105 211 89 253 89 301 c 0
 89 349 105 391 132 422 c 1
 75 479 l 1
 91 495 l 1
 148 438 l 1
 179 465 219 481 265 481 c 0
 311 481 351 465 382 438 c 1
 439 495 l 1
 455 479 l 1
 398 422 l 1
 425 391 441 349 441 301 c 0
265 142 m 0
 354 142 417 211 417 301 c 0
 417 391 354 460 265 460 c 0
 176 460 113 391 113 301 c 0
 113 211 176 142 265 142 c 0
EndSplineSet
EndChar

StartChar: yen
Encoding: 165 165 286
Width: 530
Flags: MW
HStem: 0 21G<254 276 254 254> 221 21<70 254 70 254 276 460> 321 21<70 242 70 254 70 242 287 460> 670 20G<21 51 51 51 479 507 507 507>
VStem: 254 22<0 221 0 221 242 321>
LayerCount: 2
Fore
SplineSet
287 342 m 1
 460 342 l 1
 460 321 l 1
 276 321 l 1
 276 242 l 1
 460 242 l 1
 460 221 l 1
 276 221 l 1
 276 0 l 1
 254 0 l 1
 254 221 l 1
 70 221 l 1
 70 242 l 1
 254 242 l 1
 254 321 l 1
 70 321 l 1
 70 342 l 1
 242 342 l 1
 21 690 l 1
 51 690 l 1
 265 345 l 1
 479 690 l 1
 507 690 l 1
 287 342 l 1
EndSplineSet
EndChar

StartChar: brokenbar
Encoding: 166 166 315
Width: 250
Flags: MW
HStem: 670 20G<114 136 136 136>
VStem: 114 22<-160 180 350 690>
LayerCount: 2
Fore
SplineSet
136 350 m 1
 114 350 l 1
 114 690 l 1
 136 690 l 1
 136 350 l 1
136 -160 m 1
 114 -160 l 1
 114 180 l 1
 136 180 l 1
 136 -160 l 1
EndSplineSet
EndChar

StartChar: section
Encoding: 167 167 322
Width: 530
Flags: MW
HStem: -174 21<225.5 312.5 225.5 320.5> 104 15 683 21<224.5 304>
VStem: 49 24<240.5 324> 99 24<528.5 604 521.5 605.5> 424 24<-75 -4 -79 -1.5> 475 24<212.5 297>
LayerCount: 2
Fore
SplineSet
499 259 m 0
 499 166 428 117 344 104 c 1
 418 73 448 29 448 -37 c 0
 448 -121 372 -174 269 -174 c 0
 167 -174 99 -124 74 -9 c 1
 96 -9 l 1
 121 -108 180 -153 271 -153 c 0
 354 -153 424 -111 424 -39 c 0
 424 36 386 79 231 112 c 0
 148 130 49 182 49 278 c 0xf6
 49 370 116 417 194 432 c 1
 141 455 99 495 99 562 c 0
 99 649 166 704 262 704 c 0
 371 704 425 637 442 549 c 1
 420 549 l 1
 397 639 347 683 261 683 c 0
 188 683 123 643 123 565 c 0xba
 123 478 207 443 291 428 c 0
 412 406 499 355 499 259 c 0
303 119 m 1xf2
 385 120 475 160 475 257 c 0
 475 337 406 381 280 406 c 0
 263 409 245 414 227 419 c 1
 156 412 73 379 73 281 c 0
 73 200 157 151 241 134 c 0
 264 130 284 125 303 119 c 1xf2
EndSplineSet
EndChar

StartChar: dieresis
Encoding: 168 168 329
Width: 300
Flags: MW
HStem: 613 40<104.5 115.5 184.5 195.5>
VStem: 110 80<613 613 653 653>
LayerCount: 2
Fore
SplineSet
110 653 m 0
 121 653 130 644 130 633 c 0
 130 622 121 613 110 613 c 0
 99 613 90 622 90 633 c 0
 90 644 99 653 110 653 c 0
190 653 m 0
 201 653 210 644 210 633 c 0
 210 622 201 613 190 613 c 0
 179 613 170 622 170 633 c 0
 170 644 179 653 190 653 c 0
EndSplineSet
EndChar

StartChar: guillemotleft
Encoding: 171 171 270
Width: 502
Flags: MW
HStem: 82 332<276 305 276 305 276 396 396 425>
VStem: 139 286<82 248>
LayerCount: 2
Fore
SplineSet
305 414 m 1
 168 248 l 1
 305 82 l 1
 276 82 l 1
 139 248 l 1
 276 414 l 1
 305 414 l 1
425 414 m 1
 288 248 l 1
 425 82 l 1
 396 82 l 1
 259 248 l 1
 396 414 l 1
 425 414 l 1
EndSplineSet
EndChar

StartChar: logicalnot
Encoding: 172 172 298
Width: 530
Flags: MW
HStem: 344 21<86 415 86 437>
VStem: 415 22<210 344 344 344>
LayerCount: 2
Fore
SplineSet
437 210 m 1
 415 210 l 1
 415 344 l 1
 86 344 l 1
 86 365 l 1
 437 365 l 1
 437 210 l 1
EndSplineSet
EndChar

StartChar: registered
Encoding: 174 174 321
Width: 522
Flags: MW
HStem: 344 21<206 316 206 322.5> 537 19<223 251 251 255.5 223 264 223 251> 641 19<223 253 253 256.5 203 259 223 223> 743 21<206 316>
VStem: 51 23<499.5 610 499.5 616> 203 20<456 537 556 641> 311 21<587 611> 448 23<499.5 610>
LayerCount: 2
Fore
SplineSet
261 764 m 0
 384 764 471 677 471 555 c 0
 471 431 384 344 261 344 c 0
 138 344 51 431 51 555 c 0
 51 677 138 764 261 764 c 0
261 365 m 0
 371 365 448 444 448 555 c 0
 448 665 371 743 261 743 c 0
 151 743 74 665 74 555 c 0
 74 444 151 365 261 365 c 0
291 549 m 1
 305 543 314 530 317 510 c 0
 321 485 328 467 335 456 c 1
 311 456 l 1
 305 468 300 482 296 507 c 0
 293 526 286 537 264 537 c 2
 223 537 l 1
 223 456 l 1
 203 456 l 1
 203 660 l 1
 253 660 l 2
 260 660 267 660 276 659 c 0
 310 655 332 637 332 600 c 0
 332 574 317 556 291 549 c 1
223 556 m 1
 251 556 l 2
 260 556 268 556 274 557 c 0
 294 560 311 573 311 597 c 0
 311 625 293 637 275 640 c 0
 269 641 265 641 259 641 c 2
 223 641 l 1
 223 556 l 1
EndSplineSet
EndChar

StartChar: macron
Encoding: 175 175 333
Width: 300
Flags: MW
HStem: 620 21<80 220 80 220>
VStem: 80 140<620 641 620 641>
LayerCount: 2
Fore
SplineSet
220 620 m 1
 80 620 l 1
 80 641 l 1
 220 641 l 1
 220 620 l 1
EndSplineSet
EndChar

StartChar: degree
Encoding: 176 176 319
Width: 276
Flags: MW
HStem: 502 21<114.5 161.5 114.5 167.5> 683 21<114.5 161.5>
VStem: 36 23<579 627 579 632.5> 217 23<579 627>
LayerCount: 2
Fore
SplineSet
138 704 m 0
 197 704 240 662 240 603 c 0
 240 544 197 502 138 502 c 0
 79 502 36 544 36 603 c 0
 36 662 79 704 138 704 c 0
138 683 m 0
 91 683 59 651 59 603 c 0
 59 555 91 523 138 523 c 0
 185 523 217 555 217 603 c 0
 217 651 185 683 138 683 c 0
EndSplineSet
EndChar

StartChar: plusminus
Encoding: 177 177 306
Width: 530
Flags: MW
HStem: 0 21<50 450 50 450> 307 21<50 239 50 239 261 450> 518 20G<239 261 261 261>
VStem: 239 22<97 307 97 307 328 538>
LayerCount: 2
Fore
SplineSet
261 328 m 1
 450 328 l 1
 450 307 l 1
 261 307 l 1
 261 97 l 1
 239 97 l 1
 239 307 l 1
 50 307 l 1
 50 328 l 1
 239 328 l 1
 239 538 l 1
 261 538 l 1
 261 328 l 1
450 0 m 1
 50 0 l 1
 50 21 l 1
 450 21 l 1
 450 0 l 1
EndSplineSet
EndChar

StartChar: acute
Encoding: 180 180 324
Width: 300
Flags: MW
HStem: 580 110<138 226 138 226>
VStem: 138 88
LayerCount: 2
Fore
SplineSet
157 580 m 1
 138 580 l 1
 198 690 l 1
 226 690 l 1
 157 580 l 1
EndSplineSet
EndChar

StartChar: paragraph
Encoding: 182 182 320
Width: 529
Flags: MW
HStem: 669 21<308 436 308 308>
VStem: 286 22<-110 320 320 320> 436 22<-110 669 669 669>
LayerCount: 2
Fore
SplineSet
458 690 m 1
 458 -110 l 1
 436 -110 l 1
 436 669 l 1
 308 669 l 1
 308 -110 l 1
 286 -110 l 1
 286 320 l 1
 263 320 l 2
 245 320 224 320 207 321 c 0
 105 327 50 410 50 505 c 0
 50 600 105 683 207 689 c 0
 224 690 245 690 263 690 c 2
 458 690 l 1
EndSplineSet
EndChar

StartChar: periodcentered
Encoding: 183 183 253
Width: 136
Flags: MW
HStem: 283 44<61.5 74.5>
VStem: 46 44<298.5 311.5>
LayerCount: 2
Fore
SplineSet
68 327 m 0
 81 327 90 318 90 305 c 0
 90 292 81 283 68 283 c 0
 55 283 46 292 46 305 c 0
 46 318 55 327 68 327 c 0
EndSplineSet
EndChar

StartChar: cedilla
Encoding: 184 184 327
Width: 300
Flags: MW
HStem: -210 21<110 143.5 110 145.5> -69 18
VStem: 199 23<-148.5 -108.5>
LayerCount: 2
Fore
SplineSet
165 7 m 1
 134 -51 l 1
 188 -56 222 -79 222 -128 c 0
 222 -186 170 -210 121 -210 c 0
 99 -210 82 -207 68 -200 c 1
 68 -178 l 1
 83 -186 99 -189 121 -189 c 0
 166 -189 199 -169 199 -128 c 0
 199 -89 169 -66 101 -69 c 1
 140 7 l 1
 165 7 l 1
EndSplineSet
EndChar

StartChar: guillemotright
Encoding: 187 187 271
Width: 502
Flags: MW
HStem: 82 332<77 106 77 106 77 197 197 226>
VStem: 77 286<82 248 248 414>
LayerCount: 2
Fore
SplineSet
243 248 m 1
 106 82 l 1
 77 82 l 1
 214 248 l 1
 77 414 l 1
 106 414 l 1
 243 248 l 1
363 248 m 1
 226 82 l 1
 197 82 l 1
 334 248 l 1
 197 414 l 1
 226 414 l 1
 363 248 l 1
EndSplineSet
EndChar

StartChar: questiondown
Encoding: 191 191 255
Width: 472
Flags: MW
HStem: -179 21<213 320 213 323> 499 40<274.5 285.5>
VStem: 72 24<-50.5 31 -50.5 34.5> 271 20<364.5 415> 450 22<31 31>
LayerCount: 2
Fore
SplineSet
280 499 m 0
 269 499 260 508 260 519 c 0
 260 530 269 539 280 539 c 0
 291 539 300 530 300 519 c 0
 300 508 291 499 280 499 c 0
263 -179 m 0
 138 -179 72 -100 72 -1 c 0
 72 70 109 133 165 186 c 0
 256 273 271 314 271 415 c 1
 291 415 l 1
 290 305 277 267 181 173 c 0
 123 116 96 63 96 -1 c 0
 96 -100 163 -158 263 -158 c 0
 377 -158 442 -82 450 31 c 1
 472 31 l 1
 467 -93 383 -179 263 -179 c 0
EndSplineSet
EndChar

StartChar: Agrave
Encoding: 192 192 6
Width: 616
GlyphClass: 2
Flags: MW
HStem: 0 21G<36 59 36 36 575 575 575 599> 269 21<170 462 170 471 162 462> 671 19<317 317> 736 94<245 307 245 326>
VStem: 36 563<0 0>
LayerCount: 2
Fore
SplineSet
307 736 m 1
 245 830 l 1
 273 830 l 1
 326 736 l 1
 307 736 l 1
471 269 m 1
 162 269 l 1
 59 0 l 1
 36 0 l 1
 303 690 l 1
 332 690 l 1
 599 0 l 1
 575 0 l 1
 471 269 l 1
170 290 m 1
 462 290 l 1
 317 671 l 1
 170 290 l 1
EndSplineSet
Position2: "'cpsp' Capital Spacing in Latin lookup 0 subtable" dx=5 dy=0 dh=10 dv=0
EndChar

StartChar: Acircumflex
Encoding: 194 194 4
Width: 616
GlyphClass: 2
Flags: MW
HStem: 0 21G<36 59 36 36 575 575 575 599> 269 21<170 462 170 471 162 462> 671 19<317 317> 816 14<317 317>
VStem: 36 563<0 0>
LayerCount: 2
Fore
SplineSet
264 736 m 1
 241 736 l 1
 306 830 l 1
 329 830 l 1
 394 736 l 1
 370 736 l 1
 317 816 l 1
 264 736 l 1
471 269 m 1
 162 269 l 1
 59 0 l 1
 36 0 l 1
 303 690 l 1
 332 690 l 1
 599 0 l 1
 575 0 l 1
 471 269 l 1
170 290 m 1
 462 290 l 1
 317 671 l 1
 170 290 l 1
EndSplineSet
Position2: "'cpsp' Capital Spacing in Latin lookup 0 subtable" dx=5 dy=0 dh=10 dv=0
EndChar

StartChar: Atilde
Encoding: 195 195 10
Width: 616
GlyphClass: 2
Flags: MW
HStem: 0 21G<36 59 36 36 575 575 575 599> 269 21<170 462 170 471 162 462> 671 19<317 317> 761 20<364.5 374 364.5 381> 786 20<260 269.5>
VStem: 229 20<765 772.5 765 778> 385 20<794.5 802>
LayerCount: 2
Fore
SplineSet
265 786 m 0
 255 786 249 780 249 765 c 1
 229 765 l 1
 229 791 241 806 265 806 c 0xee
 281 806 295 802 322 793 c 0
 346 785 360 781 369 781 c 0
 379 781 385 787 385 802 c 1
 405 802 l 1
 405 776 393 761 369 761 c 0xf6
 353 761 339 765 312 774 c 0
 288 782 274 786 265 786 c 0
471 269 m 1
 162 269 l 1
 59 0 l 1
 36 0 l 1
 303 690 l 1
 332 690 l 1
 599 0 l 1
 575 0 l 1
 471 269 l 1
170 290 m 1
 462 290 l 1
 317 671 l 1
 170 290 l 1
EndSplineSet
Position2: "'cpsp' Capital Spacing in Latin lookup 0 subtable" dx=5 dy=0 dh=10 dv=0
EndChar

StartChar: Adieresis
Encoding: 196 196 5
Width: 616
GlyphClass: 2
Flags: MW
HStem: 0 21G<36 59 36 36 575 575 575 599> 269 21<170 462 170 471 162 462> 671 19<317 317> 763 40<276.5 287.5 346.5 357.5>
VStem: 282 70<763 763 803 803>
LayerCount: 2
Fore
SplineSet
282 763 m 0
 271 763 262 772 262 783 c 0
 262 794 271 803 282 803 c 0
 293 803 302 794 302 783 c 0
 302 772 293 763 282 763 c 0
352 763 m 0
 341 763 332 772 332 783 c 0
 332 794 341 803 352 803 c 0
 363 803 372 794 372 783 c 0
 372 772 363 763 352 763 c 0
471 269 m 1
 162 269 l 1
 59 0 l 1
 36 0 l 1
 303 690 l 1
 332 690 l 1
 599 0 l 1
 575 0 l 1
 471 269 l 1
170 290 m 1
 462 290 l 1
 317 671 l 1
 170 290 l 1
EndSplineSet
Position2: "'cpsp' Capital Spacing in Latin lookup 0 subtable" dx=5 dy=0 dh=10 dv=0
EndChar

StartChar: Aring
Encoding: 197 197 9
Width: 616
GlyphClass: 2
Flags: MW
HStem: 0 21G<36 59 36 36 575 575 575 599> 269 21<170 462 170 471 162 462> 671 19<317 317> 722 21<304.5 329.5 304.5 334> 823 21<304.5 329.5>
VStem: 254 24<772 794 772 802> 356 24<772 794>
LayerCount: 2
Fore
SplineSet
317 722 m 0
 283 722 254 745 254 783 c 0
 254 821 283 844 317 844 c 0
 351 844 380 821 380 783 c 0
 380 745 351 722 317 722 c 0
317 823 m 0
 292 823 278 805 278 783 c 0
 278 761 292 743 317 743 c 0
 342 743 356 761 356 783 c 0
 356 805 342 823 317 823 c 0
471 269 m 1
 162 269 l 1
 59 0 l 1
 36 0 l 1
 303 690 l 1
 332 690 l 1
 599 0 l 1
 575 0 l 1
 471 269 l 1
170 290 m 1
 462 290 l 1
 317 671 l 1
 170 290 l 1
EndSplineSet
Position2: "'cpsp' Capital Spacing in Latin lookup 0 subtable" dx=5 dy=0 dh=10 dv=0
EndChar

StartChar: AE
Encoding: 198 198 11
Width: 897
GlyphClass: 2
Flags: MW
HStem: 0 20<484 865 484 865> 269 21<198 451 198 451 184 451> 335 20<470 835 470 835> 670 20<456 855 456 456>
VStem: 442.5 20.5 457 20
LayerCount: 2
Fore
SplineSet
865 20 m 1xf4
 865 0 l 1
 463 0 l 1
 451 269 l 1xf4
 184 269 l 1
 16 0 l 1
 -10 0 l 1
 424 690 l 1
 855 690 l 1
 855 670 l 1
 456 670 l 1
 470 355 l 1xf8
 835 355 l 1
 835 335 l 1
 470 335 l 1
 484 20 l 1
 865 20 l 1xf4
451 290 m 1xf8
 434 668 l 1
 198 290 l 1
 451 290 l 1xf8
EndSplineSet
Position2: "'cpsp' Capital Spacing in Latin lookup 0 subtable" dx=5 dy=0 dh=10 dv=0
EndChar

StartChar: Ccedilla
Encoding: 199 199 16
Width: 677
GlyphClass: 2
Flags: MW
HStem: -210 21<320 353.5 320 355.5> -69 18 -14 21<339 339 364 364> 683 21<288 428.5>
VStem: 51 24<233 450.5> 409 23<-148.5 -108.5> 603 22
AnchorPoint: "Anchor-0" 360 0 basechar 0
LayerCount: 2
Fore
SplineSet
628 227 m 1
 626 217 l 2
 601 92 520 -8 364 -14 c 1
 344 -51 l 1
 398 -56 432 -79 432 -128 c 0
 432 -186 380 -210 331 -210 c 0
 309 -210 292 -207 278 -200 c 1
 278 -178 l 1
 293 -186 309 -189 331 -189 c 0
 376 -189 409 -169 409 -128 c 0
 409 -89 379 -66 311 -69 c 1
 339 -14 l 1
 174 -8 51 123 51 343 c 0
 51 558 187 704 364 704 c 0
 515 704 599 608 624 484 c 2
 626 474 l 1
 604 474 l 1
 602 484 l 2
 579 597 497 683 360 683 c 0
 216 683 75 565 75 344 c 0
 75 115 204 7 352 7 c 0
 500 7 580 99 604 217 c 2
 606 227 l 1
 628 227 l 1
EndSplineSet
Position2: "'cpsp' Capital Spacing in Latin lookup 0 subtable" dx=5 dy=0 dh=10 dv=0
EndChar

StartChar: Egrave
Encoding: 200 200 28
Width: 557
GlyphClass: 2
Flags: MW
HStem: 0 20<118 525 118 525> 335 20<118 495 118 495> 670 20<118 515 118 118> 670 160<218 246 218 515 118 246>
VStem: 96 22<20 335 355 670>
AnchorPoint: "Anchor-0" 290 0 basechar 0
LayerCount: 2
Fore
SplineSet
280 736 m 1xd8
 218 830 l 1
 246 830 l 1
 299 736 l 1
 280 736 l 1xd8
525 20 m 1
 525 0 l 1
 96 0 l 1
 96 690 l 1
 515 690 l 1
 515 670 l 1
 118 670 l 1xe8
 118 355 l 1
 495 355 l 1
 495 335 l 1
 118 335 l 1
 118 20 l 1
 525 20 l 1
EndSplineSet
Position2: "'cpsp' Capital Spacing in Latin lookup 0 subtable" dx=5 dy=0 dh=10 dv=0
EndChar

StartChar: Eacute
Encoding: 201 201 23
Width: 557
GlyphClass: 2
Flags: MW
HStem: 0 20<118 525 118 525> 335 20<118 495 118 495> 670 20<118 515 118 118> 670 160<331 359 331 515>
VStem: 96 22<20 335 355 670>
AnchorPoint: "Anchor-0" 290 0 basechar 0
LayerCount: 2
Fore
SplineSet
297 736 m 1xd8
 278 736 l 1
 331 830 l 1
 359 830 l 1
 297 736 l 1xd8
525 20 m 1
 525 0 l 1
 96 0 l 1
 96 690 l 1
 515 690 l 1
 515 670 l 1
 118 670 l 1xe8
 118 355 l 1
 495 355 l 1
 495 335 l 1
 118 335 l 1
 118 20 l 1
 525 20 l 1
EndSplineSet
Position2: "'cpsp' Capital Spacing in Latin lookup 0 subtable" dx=5 dy=0 dh=10 dv=0
EndChar

StartChar: Ecircumflex
Encoding: 202 202 25
Width: 557
GlyphClass: 2
Flags: MW
HStem: 0 20<118 525 118 525> 335 20<118 495 118 495> 670 20<118 515 118 118> 816 14<290 290>
VStem: 96 22<20 335 355 670>
AnchorPoint: "Anchor-0" 290 0 basechar 0
LayerCount: 2
Fore
SplineSet
237 736 m 1
 214 736 l 1
 279 830 l 1
 302 830 l 1
 367 736 l 1
 343 736 l 1
 290 816 l 1
 237 736 l 1
525 20 m 1
 525 0 l 1
 96 0 l 1
 96 690 l 1
 515 690 l 1
 515 670 l 1
 118 670 l 1
 118 355 l 1
 495 355 l 1
 495 335 l 1
 118 335 l 1
 118 20 l 1
 525 20 l 1
EndSplineSet
Position2: "'cpsp' Capital Spacing in Latin lookup 0 subtable" dx=5 dy=0 dh=10 dv=0
EndChar

StartChar: Edieresis
Encoding: 203 203 26
Width: 557
GlyphClass: 2
Flags: MW
HStem: 0 20<118 525 118 525> 335 20<118 495 118 495> 670 20<118 515 118 118> 670 133<249.5 260.5 319.5 330.5 249.5 515 118 260.5>
VStem: 96 22<20 335 355 670> 255 70<763 763 803 803>
AnchorPoint: "Anchor-0" 290 0 basechar 0
LayerCount: 2
Fore
SplineSet
255 763 m 0xdc
 244 763 235 772 235 783 c 0
 235 794 244 803 255 803 c 0
 266 803 275 794 275 783 c 0
 275 772 266 763 255 763 c 0xdc
325 763 m 0
 314 763 305 772 305 783 c 0
 305 794 314 803 325 803 c 0
 336 803 345 794 345 783 c 0
 345 772 336 763 325 763 c 0
525 20 m 1
 525 0 l 1
 96 0 l 1
 96 690 l 1
 515 690 l 1
 515 670 l 1
 118 670 l 1xec
 118 355 l 1
 495 355 l 1
 495 335 l 1
 118 335 l 1
 118 20 l 1
 525 20 l 1
EndSplineSet
Position2: "'cpsp' Capital Spacing in Latin lookup 0 subtable" dx=5 dy=0 dh=10 dv=0
EndChar

StartChar: Igrave
Encoding: 204 204 44
Width: 189
GlyphClass: 2
Flags: MW
HStem: 0 21G<96 118 96 96> 670 20G<96 118 118 118> 736 94<35 116 35 97>
VStem: 96 22<0 690>
LayerCount: 2
Fore
SplineSet
116 736 m 1
 97 736 l 1
 35 830 l 1
 63 830 l 1
 116 736 l 1
118 0 m 1
 96 0 l 1
 96 690 l 1
 118 690 l 1
 118 0 l 1
EndSplineSet
Position2: "'cpsp' Capital Spacing in Latin lookup 0 subtable" dx=5 dy=0 dh=10 dv=0
EndChar

StartChar: Iacute
Encoding: 205 205 40
Width: 189
GlyphClass: 2
Flags: MW
HStem: 0 21G<96 118 96 96> 670 20G<96 118 118 118> 736 94<95 176 95 176>
VStem: 96 22<0 690>
LayerCount: 2
Fore
SplineSet
114 736 m 1
 95 736 l 1
 148 830 l 1
 176 830 l 1
 114 736 l 1
118 0 m 1
 96 0 l 1
 96 690 l 1
 118 690 l 1
 118 0 l 1
EndSplineSet
Position2: "'cpsp' Capital Spacing in Latin lookup 0 subtable" dx=5 dy=0 dh=10 dv=0
EndChar

StartChar: Icircumflex
Encoding: 206 206 41
Width: 189
GlyphClass: 2
Flags: MW
HStem: 0 21G<96 118 96 96> 670 20G<96 118 118 118> 816 14<107 107>
VStem: 96 22<0 690 0 690>
LayerCount: 2
Fore
SplineSet
184 736 m 1
 160 736 l 1
 107 816 l 1
 54 736 l 1
 31 736 l 1
 96 830 l 1
 119 830 l 1
 184 736 l 1
96 690 m 1
 118 690 l 1
 118 0 l 1
 96 0 l 1
 96 690 l 1
EndSplineSet
Position2: "'cpsp' Capital Spacing in Latin lookup 0 subtable" dx=5 dy=0 dh=10 dv=0
EndChar

StartChar: Idieresis
Encoding: 207 207 42
Width: 189
GlyphClass: 2
Flags: MW
HStem: 0 21G<96 118 96 96> 670 20G<96 118 118 118> 763 40<66.5 77.5 136.5 147.5>
VStem: 96 22<0 690>
LayerCount: 2
Fore
SplineSet
72 803 m 0
 83 803 92 794 92 783 c 0
 92 772 83 763 72 763 c 0
 61 763 52 772 52 783 c 0
 52 794 61 803 72 803 c 0
142 803 m 0
 153 803 162 794 162 783 c 0
 162 772 153 763 142 763 c 0
 131 763 122 772 122 783 c 0
 122 794 131 803 142 803 c 0
118 0 m 1
 96 0 l 1
 96 690 l 1
 118 690 l 1
 118 0 l 1
EndSplineSet
Position2: "'cpsp' Capital Spacing in Latin lookup 0 subtable" dx=5 dy=0 dh=10 dv=0
EndChar

StartChar: Ntilde
Encoding: 209 209 62
Width: 637
GlyphClass: 2
Flags: MW
HStem: 0 20<546 546 546 566 532 546> 670 20<116 116> 761 20<378.5 388 378.5 395> 786 20<274 283.5>
VStem: 96 22<0 375 0 690> 243 20<765 772.5 765 778> 399 20<794.5 802> 544 22<315 690>
AnchorPoint: "Anchor-0" 331 0 basechar 0
LayerCount: 2
Fore
SplineSet
279 806 m 0
 295 806 309 802 336 793 c 0
 360 785 374 781 383 781 c 0
 393 781 399 787 399 802 c 1
 419 802 l 1
 419 776 407 761 383 761 c 0xef
 367 761 353 765 326 774 c 0
 302 782 288 786 279 786 c 0
 269 786 263 780 263 765 c 1
 243 765 l 1
 243 791 255 806 279 806 c 0
566 0 m 1
 532 0 l 1
 116 670 l 1
 118 577 118 468 118 375 c 2
 118 0 l 1
 96 0 l 1
 96 690 l 1
 129 690 l 1
 546 20 l 1
 544 113 544 222 544 315 c 2
 544 690 l 1
 566 690 l 1
 566 0 l 1
EndSplineSet
Position2: "'cpsp' Capital Spacing in Latin lookup 0 subtable" dx=5 dy=0 dh=10 dv=0
EndChar

StartChar: Otilde
Encoding: 213 213 71
Width: 713
GlyphClass: 2
Flags: MW
HStem: -14 21<286 440 286 457> 683 21<286 440> 761 20<410.5 420 410.5 427> 786 20<306 315.5>
VStem: 51 24<242 448.5> 275 20<765 772.5 765 778> 431 20<794.5 802> 651 24<242 448.5 242 453.5>
LayerCount: 2
Fore
SplineSet
311 786 m 0
 301 786 295 780 295 765 c 1
 275 765 l 1
 275 791 287 806 311 806 c 0xdf
 327 806 341 802 368 793 c 0
 392 785 406 781 415 781 c 0
 425 781 431 787 431 802 c 1
 451 802 l 1
 451 776 439 761 415 761 c 0xef
 399 761 385 765 358 774 c 0
 334 782 320 786 311 786 c 0
363 704 m 0
 551 704 675 552 675 345 c 0
 675 139 551 -14 363 -14 c 0
 175 -14 51 139 51 345 c 0
 51 552 175 704 363 704 c 0
363 7 m 0
 517 7 651 129 651 345 c 0
 651 562 517 683 363 683 c 0
 209 683 75 562 75 345 c 0
 75 129 209 7 363 7 c 0
EndSplineSet
Position2: "'cpsp' Capital Spacing in Latin lookup 0 subtable" dx=5 dy=0 dh=10 dv=0
EndChar

StartChar: Odieresis
Encoding: 214 214 66
Width: 713
GlyphClass: 2
Flags: MW
HStem: -14 21<286 440 286 457> 683 21<286 440> 763 40<322.5 333.5 392.5 403.5>
VStem: 51 24<242 448.5> 328 70<763 763 803 803> 651 24<242 448.5 242 453.5>
LayerCount: 2
Fore
SplineSet
328 763 m 0
 317 763 308 772 308 783 c 0
 308 794 317 803 328 803 c 0
 339 803 348 794 348 783 c 0
 348 772 339 763 328 763 c 0
398 763 m 0
 387 763 378 772 378 783 c 0
 378 794 387 803 398 803 c 0
 409 803 418 794 418 783 c 0
 418 772 409 763 398 763 c 0
363 704 m 0
 551 704 675 552 675 345 c 0
 675 139 551 -14 363 -14 c 0
 175 -14 51 139 51 345 c 0
 51 552 175 704 363 704 c 0
363 7 m 0
 517 7 651 129 651 345 c 0
 651 562 517 683 363 683 c 0
 209 683 75 562 75 345 c 0
 75 129 209 7 363 7 c 0
EndSplineSet
Position2: "'cpsp' Capital Spacing in Latin lookup 0 subtable" dx=5 dy=0 dh=10 dv=0
EndChar

StartChar: multiply
Encoding: 215 215 300
Width: 530
Flags: MW
HStem: 147 332<114 114 114 416>
VStem: 99 332<162 162 162 464>
LayerCount: 2
Fore
SplineSet
280 313 m 1
 431 162 l 1
 416 147 l 1
 265 298 l 1
 114 147 l 1
 99 162 l 1
 250 313 l 1
 99 464 l 1
 114 479 l 1
 265 328 l 1
 416 479 l 1
 431 464 l 1
 280 313 l 1
EndSplineSet
EndChar

StartChar: Oslash
Encoding: 216 216 70
Width: 713
GlyphClass: 2
Flags: MW
HStem: -14 21<320.5 440 320.5 457> 683 21<286 405.5>
VStem: 51 24<301 448.5> 651 24<242 389>
LayerCount: 2
Fore
SplineSet
679 646 m 1
 609 576 l 1
 651 515 675 435 675 345 c 0
 675 139 551 -14 363 -14 c 0
 265 -14 184 28 130 97 c 1
 62 29 l 1
 47 44 l 1
 117 114 l 1
 75 175 51 255 51 345 c 0
 51 552 175 704 363 704 c 0
 461 704 542 663 597 594 c 1
 664 661 l 1
 679 646 l 1
75 345 m 0
 75 257 97 185 133 130 c 1
 580 577 l 1
 527 646 448 683 363 683 c 0
 209 683 75 562 75 345 c 0
651 345 m 0
 651 433 629 505 593 560 c 1
 146 113 l 1
 200 44 278 7 363 7 c 0
 517 7 651 129 651 345 c 0
EndSplineSet
Position2: "'cpsp' Capital Spacing in Latin lookup 0 subtable" dx=5 dy=0 dh=10 dv=0
EndChar

StartChar: Udieresis
Encoding: 220 220 93
Width: 600
GlyphClass: 2
Flags: MW
HStem: -14 21<246.5 377.5 246.5 381> 670 20G<90 112 112 112 512 534 534 534> 763 40<271.5 282.5 341.5 352.5>
VStem: 90 22<233 690> 277 70<763 763 803 803> 512 22<229 233 233 690>
LayerCount: 2
Fore
SplineSet
277 803 m 0
 288 803 297 794 297 783 c 0
 297 772 288 763 277 763 c 0
 266 763 257 772 257 783 c 0
 257 794 266 803 277 803 c 0
347 803 m 0
 358 803 367 794 367 783 c 0
 367 772 358 763 347 763 c 0
 336 763 327 772 327 783 c 0
 327 794 336 803 347 803 c 0
534 690 m 1
 534 233 l 2
 534 218 533 197 531 166 c 0
 524 60 450 -14 312 -14 c 0
 174 -14 100 60 93 166 c 0
 91 197 90 218 90 233 c 2
 90 690 l 1
 112 690 l 1
 112 229 l 2
 112 206 113 188 115 167 c 0
 123 80 181 7 312 7 c 0
 443 7 501 80 509 167 c 0
 511 188 512 206 512 229 c 2
 512 690 l 1
 534 690 l 1
EndSplineSet
Position2: "'cpsp' Capital Spacing in Latin lookup 0 subtable" dx=5 dy=0 dh=10 dv=0
EndChar

StartChar: Yacute
Encoding: 221 221 107
Width: 545
GlyphClass: 2
Flags: MW
HStem: 0 21G<268 290 268 268> 670 20G<23 49 49 49 509 536 536 536> 736 94<267 348 267 348>
VStem: 268 22<0 282 0 282>
LayerCount: 2
Fore
SplineSet
286 736 m 1
 267 736 l 1
 320 830 l 1
 348 830 l 1
 286 736 l 1
290 282 m 1
 290 0 l 1
 268 0 l 1
 268 282 l 1
 23 690 l 1
 49 690 l 1
 280 305 l 1
 509 690 l 1
 536 690 l 1
 290 282 l 1
EndSplineSet
Position2: "'cpsp' Capital Spacing in Latin lookup 0 subtable" dx=5 dy=0 dh=10 dv=0
EndChar

StartChar: Thorn
Encoding: 222 222 74
Width: 640
GlyphClass: 2
Flags: MW
HStem: 0 21G<96 118 96 96> 210 21<118 249 118 249> 551 21<118 249 118 249> 670 20G<96 118 118 118>
VStem: 96 22<0 210 0 231 231 551 572 690> 491 24<344 445>
LayerCount: 2
Fore
SplineSet
348 567 m 0
 441 555 515 508 515 396 c 0
 515 281 441 227 348 215 c 0
 316 211 284 210 249 210 c 2
 118 210 l 1
 118 0 l 1
 96 0 l 1
 96 690 l 1
 118 690 l 1
 118 572 l 1
 249 572 l 2
 284 572 316 571 348 567 c 0
344 236 m 0
 428 246 491 292 491 396 c 0
 491 494 428 536 344 546 c 0
 312 550 285 551 249 551 c 2
 118 551 l 1
 118 231 l 1
 249 231 l 2
 285 231 312 232 344 236 c 0
EndSplineSet
Position2: "'cpsp' Capital Spacing in Latin lookup 0 subtable" dx=5 dy=0 dh=10 dv=0
EndChar

StartChar: germandbls
Encoding: 223 223 199
Width: 533
GlyphClass: 2
Flags: MW
HStem: -4 21<295.5 358 295.5 367.5> 0 21G<71 93 71 71> 733 21<224 315.5>
VStem: 71 22<0 490 490 492 0 500> 307 24<375 414 375 419> 429 24<574 634.5> 464 24<93 151>
LayerCount: 2
Fore
SplineSet
275 754 m 0xbc
 370 754 453 694 453 589 c 0xbc
 453 553 445 523 420 486 c 1
 363 459 331 435 331 393 c 0
 331 357 344 330 390 290 c 0
 456 232 488 186 488 132 c 0
 488 46 423 -4 312 -4 c 0
 279 -4 243 -2 204 6 c 1
 204 29 l 1
 244 20 279 17 312 17 c 0
 404 17 464 57 464 129 c 0xbe
 464 173 446 206 378 269 c 0
 319 323 307 349 307 393 c 0
 307 445 342 472 407 506 c 1
 422 530 429 560 429 588 c 0
 429 681 359 733 272 733 c 0
 176 733 103 668 95 552 c 0
 94 538 93 519 93 492 c 2
 93 0 l 1
 71 0 l 1x7c
 71 490 l 2
 71 510 72 536 73 554 c 0
 80 681 165 754 275 754 c 0xbc
EndSplineSet
EndChar

StartChar: atilde
Encoding: 227 227 124
Width: 494
GlyphClass: 2
Flags: MW
HStem: -14 21<164 244.5> 0 21G<409 409 409 432> 281 22<367 401> 519 21<217 297> 626 20<302.5 312 302.5 319> 651 20<198 207.5>
VStem: 47 24<91.5 188 91.5 188.5> 67 22<382 382> 167 20<630 637.5 630 643> 323 20<659.5 667> 401 22<209 281 281 281 303 330 330 332>
LayerCount: 2
Fore
SplineSet
203 651 m 0xb6e0
 193 651 187 645 187 630 c 1
 167 630 l 1
 167 656 179 671 203 671 c 0xb6e0
 219 671 233 667 260 658 c 0
 284 650 298 646 307 646 c 0
 317 646 323 652 323 667 c 1
 343 667 l 1
 343 641 331 626 307 626 c 0xbae0
 291 626 277 630 250 639 c 0
 226 647 212 651 203 651 c 0xb6e0
409 0 m 1x75e0
 402 129 l 1
 379 76 l 1
 342 17 280 -14 209 -14 c 0
 109 -14 47 33 47 127 c 0xb6e0
 47 250 203 303 367 303 c 2
 401 303 l 1
 401 330 l 2
 401 355 401 375 399 398 c 0
 392 477 340 519 254 519 c 0
 180 519 101 480 89 382 c 1
 67 382 l 1
 73 470 150 540 254 540 c 0
 357 540 414 489 421 401 c 0
 423 374 423 360 423 332 c 2
 423 170 l 2
 423 110 426 69 432 0 c 1
 409 0 l 1x75e0
212 7 m 0
 325 7 401 105 401 209 c 2
 401 281 l 1
 247 291 71 248 71 128 c 0
 71 55 116 7 212 7 c 0
EndSplineSet
EndChar

StartChar: adieresis
Encoding: 228 228 119
Width: 494
GlyphClass: 2
Flags: MW
HStem: -14 21<164 244.5> 0 21G<409 409 409 432> 281 22<367 401> 519 21<217 297> 613 40<209.5 220.5 289.5 300.5>
VStem: 47 24<91.5 188 91.5 188.5> 67 22<382 382> 215 80<613 613 653 653> 401 22<209 281 281 281 303 330 330 332>
LayerCount: 2
Fore
SplineSet
215 613 m 0xbd80
 204 613 195 622 195 633 c 0
 195 644 204 653 215 653 c 0
 226 653 235 644 235 633 c 0
 235 622 226 613 215 613 c 0xbd80
295 613 m 0
 284 613 275 622 275 633 c 0
 275 644 284 653 295 653 c 0
 306 653 315 644 315 633 c 0
 315 622 306 613 295 613 c 0
409 0 m 1x7b80
 402 129 l 1
 379 76 l 1
 342 17 280 -14 209 -14 c 0
 109 -14 47 33 47 127 c 0xbd80
 47 250 203 303 367 303 c 2
 401 303 l 1
 401 330 l 2
 401 355 401 375 399 398 c 0
 392 477 340 519 254 519 c 0
 180 519 101 480 89 382 c 1
 67 382 l 1
 73 470 150 540 254 540 c 0
 357 540 414 489 421 401 c 0
 423 374 423 360 423 332 c 2
 423 170 l 2
 423 110 426 69 432 0 c 1
 409 0 l 1x7b80
212 7 m 0
 325 7 401 105 401 209 c 2
 401 281 l 1
 247 291 71 248 71 128 c 0
 71 55 116 7 212 7 c 0
EndSplineSet
EndChar

StartChar: aring
Encoding: 229 229 123
Width: 494
GlyphClass: 2
Flags: MW
HStem: -14 21<164 244.5> 0 21G<409 409 409 432> 281 22<367 401> 519 21<217 297> 572 21<242.5 267.5 242.5 272> 675 21<242.5 267.5>
VStem: 47 24<91.5 188 91.5 188.5> 67 22<382 382> 193 23<623 645 623 653> 294 23<623 645> 401 22<209 281 281 281 303 330 330 332>
LayerCount: 2
Fore
SplineSet
255 572 m 0xbee0
 221 572 193 596 193 634 c 0
 193 672 221 696 255 696 c 0
 289 696 317 672 317 634 c 0
 317 596 289 572 255 572 c 0xbee0
255 675 m 0
 230 675 216 656 216 634 c 0
 216 612 230 593 255 593 c 0
 280 593 294 612 294 634 c 0
 294 656 280 675 255 675 c 0
409 0 m 1x7de0
 402 129 l 1
 379 76 l 1
 342 17 280 -14 209 -14 c 0
 109 -14 47 33 47 127 c 0xbee0
 47 250 203 303 367 303 c 2
 401 303 l 1
 401 330 l 2
 401 355 401 375 399 398 c 0
 392 477 340 519 254 519 c 0
 180 519 101 480 89 382 c 1
 67 382 l 1
 73 470 150 540 254 540 c 0
 357 540 414 489 421 401 c 0
 423 374 423 360 423 332 c 2
 423 170 l 2
 423 110 426 69 432 0 c 1
 409 0 l 1x7de0
212 7 m 0
 325 7 401 105 401 209 c 2
 401 281 l 1
 247 291 71 248 71 128 c 0
 71 55 116 7 212 7 c 0
EndSplineSet
EndChar

StartChar: ae
Encoding: 230 230 125
Width: 922
GlyphClass: 2
Flags: MW
HStem: -14 21<176 261.5 612.5 700.5> 258 21<454 862 454 885 454 862> 519 21<222 313 206 319.5 618.5 712>
VStem: 47 24<91.5 184.5 91.5 188.5> 64 22<382 382> 431 23<229 258 258 258 258 304> 862 24<279 279>
LayerCount: 2
Fore
SplineSet
886 277 m 0xf6
 886 273 886 269 885 258 c 1
 454 258 l 1
 458 76 552 7 659 7 c 0
 742 7 825 54 856 161 c 1
 878 161 l 1
 846 45 757 -14 657 -14 c 0
 568 -14 468 37 444 160 c 1
 423 96 l 1
 372 20 304 -14 219 -14 c 0
 129 -14 47 27 47 127 c 0xf6
 47 250 223 280 397 280 c 2
 431 280 l 1
 431 304 l 2
 431 444 380 519 259 519 c 0
 185 519 98 480 86 382 c 1
 64 382 l 1xee
 70 470 153 540 259 540 c 0
 367 540 434 488 448 381 c 1
 477 486 571 540 666 540 c 0
 823 540 886 408 886 277 c 0xf6
454 279 m 1
 862 279 l 1
 858 461 760 519 664 519 c 0
 556 519 458 444 454 279 c 1
431 229 m 2
 431 258 l 1
 267 265 71 241 71 128 c 0
 71 55 130 7 222 7 c 0
 343 7 431 97 431 229 c 2
EndSplineSet
EndChar

StartChar: ccedilla
Encoding: 231 231 130
Width: 517
GlyphClass: 2
Flags: MW
HStem: -210 21<215 248.5 215 250.5> -69 18 -14 20<259 269 259 269> 520 20<219.5 322.5>
VStem: 30 24<184.5 348> 304 23<-148.5 -108.5>
AnchorPoint: "Anchor-0" 255 0 basechar 0
LayerCount: 2
Fore
SplineSet
270 7 m 1
 269 6 l 1
 359 8 435 62 455 157 c 1
 477 157 l 1
 456 51 371 -14 263 -14 c 2
 259 -14 l 1
 239 -51 l 1
 293 -56 327 -79 327 -128 c 0
 327 -186 275 -210 226 -210 c 0
 204 -210 187 -207 173 -200 c 1
 173 -178 l 1
 188 -186 204 -189 226 -189 c 0
 271 -189 304 -169 304 -128 c 0
 304 -89 274 -66 206 -69 c 1
 235 -12 l 1
 119 1 30 101 30 263 c 0
 30 433 139 540 271 540 c 0
 385 540 466 468 481 363 c 1
 459 363 l 1
 442 458 376 520 269 520 c 0
 170 520 54 438 54 268 c 0
 54 101 146 17 245 7 c 1
 270 7 l 1
EndSplineSet
EndChar

StartChar: eacute
Encoding: 233 233 137
Width: 521
GlyphClass: 2
Flags: MW
HStem: -14 21<209.5 299.5 209.5 306> 258 21<53 463 53 484 53 463> 519 21<215.5 307> 580 110<244 332 244 332>
VStem: 30 23<258 258 258 279 258 348> 463 22<279 279>
AnchorPoint: "Anchor-0" 256 0 basechar 0
LayerCount: 2
Fore
SplineSet
263 580 m 1
 244 580 l 1
 304 690 l 1
 332 690 l 1
 263 580 l 1
485 277 m 0
 485 273 485 269 484 258 c 1
 53 258 l 1
 57 76 161 7 258 7 c 0
 341 7 424 54 455 161 c 1
 477 161 l 1
 445 45 356 -14 256 -14 c 0
 134 -14 30 81 30 265 c 0
 30 431 134 540 264 540 c 0
 415 540 485 408 485 277 c 0
262 519 m 0
 169 519 57 444 53 279 c 1
 463 279 l 1
 459 461 352 519 262 519 c 0
EndSplineSet
EndChar

StartChar: edieresis
Encoding: 235 235 140
Width: 521
GlyphClass: 2
Flags: MW
HStem: -14 21<209.5 299.5 209.5 306> 258 21<53 463 53 484 53 463> 519 21<215.5 307> 613 40<210.5 221.5 290.5 301.5>
VStem: 30 23<258 258 258 279 258 348> 216 80<613 613 653 653> 463 22<279 279>
AnchorPoint: "Anchor-0" 256 0 basechar 0
LayerCount: 2
Fore
SplineSet
216 613 m 0
 205 613 196 622 196 633 c 0
 196 644 205 653 216 653 c 0
 227 653 236 644 236 633 c 0
 236 622 227 613 216 613 c 0
296 613 m 0
 285 613 276 622 276 633 c 0
 276 644 285 653 296 653 c 0
 307 653 316 644 316 633 c 0
 316 622 307 613 296 613 c 0
485 277 m 0
 485 273 485 269 484 258 c 1
 53 258 l 1
 57 76 161 7 258 7 c 0
 341 7 424 54 455 161 c 1
 477 161 l 1
 445 45 356 -14 256 -14 c 0
 134 -14 30 81 30 265 c 0
 30 431 134 540 264 540 c 0
 415 540 485 408 485 277 c 0
262 519 m 0
 169 519 57 444 53 279 c 1
 463 279 l 1
 459 461 352 519 262 519 c 0
EndSplineSet
EndChar

StartChar: igrave
Encoding: 236 236 157
Width: 164
GlyphClass: 2
Flags: MW
HStem: 0 21G<71 93 71 71> 506 20G<71 93 93 93> 580 110<-9 79 -9 60>
VStem: 71 22<0 526>
LayerCount: 2
Fore
SplineSet
79 580 m 1
 60 580 l 1
 -9 690 l 1
 19 690 l 1
 79 580 l 1
93 0 m 1
 71 0 l 1
 71 526 l 1
 93 526 l 1
 93 0 l 1
EndSplineSet
EndChar

StartChar: iacute
Encoding: 237 237 154
Width: 164
GlyphClass: 2
Flags: MW
HStem: 0 21G<71 93 71 71> 506 20G<71 93 93 93> 580 110<70 158 70 158>
VStem: 71 22<0 526>
LayerCount: 2
Fore
SplineSet
89 580 m 1
 70 580 l 1
 130 690 l 1
 158 690 l 1
 89 580 l 1
93 0 m 1
 71 0 l 1
 71 526 l 1
 93 526 l 1
 93 0 l 1
EndSplineSet
EndChar

StartChar: icircumflex
Encoding: 238 238 155
Width: 164
GlyphClass: 2
Flags: MW
HStem: 0 21G<71 93 71 71> 506 20G<71 93 93 93> 674 16<82 82>
VStem: 71 22<0 526 0 526>
LayerCount: 2
Fore
SplineSet
159 580 m 1
 135 580 l 1
 82 674 l 1
 29 580 l 1
 6 580 l 1
 71 690 l 1
 94 690 l 1
 159 580 l 1
71 526 m 1
 93 526 l 1
 93 0 l 1
 71 0 l 1
 71 526 l 1
EndSplineSet
EndChar

StartChar: idieresis
Encoding: 239 239 156
Width: 164
GlyphClass: 2
Flags: MW
HStem: 0 21G<71 93 71 71> 506 20G<71 93 93 93> 613 40<36.5 47.5 116.5 127.5>
VStem: 71 22<0 526>
LayerCount: 2
Fore
SplineSet
42 653 m 0
 53 653 62 644 62 633 c 0
 62 622 53 613 42 613 c 0
 31 613 22 622 22 633 c 0
 22 644 31 653 42 653 c 0
122 653 m 0
 133 653 142 644 142 633 c 0
 142 622 133 613 122 613 c 0
 111 613 102 622 102 633 c 0
 102 644 111 653 122 653 c 0
93 0 m 1
 71 0 l 1
 71 526 l 1
 93 526 l 1
 93 0 l 1
EndSplineSet
EndChar

StartChar: eth
Encoding: 240 240 133
Width: 522
GlyphClass: 2
Flags: MW
HStem: -14 21 523 21<206.5 287.5 189.5 319> 725 20G<234 248>
VStem: 30 24<179.5 338.5> 451 24<290 309 309 372.5>
LayerCount: 2
Fore
SplineSet
448 694 m 1
 382 667 l 1
 441 601 475 491 475 307 c 0
 475 83 385 -13 248 -14 c 0
 110 -15 30 102 30 257 c 0
 30 420 116 544 263 544 c 0
 312 544 357 530 396 499 c 1
 445 434 l 1
 435 537 405 610 360 658 c 1
 193 589 l 1
 185 609 l 1
 343 674 l 1
 312 700 276 717 234 725 c 1
 248 745 l 1
 293 732 332 713 365 683 c 1
 440 714 l 1
 448 694 l 1
451 290 m 2
 451 309 l 2
 451 436 375 523 263 523 c 0
 150 523 54 432 54 258 c 0
 54 94 145 7 251 7 c 0
 379 7 451 115 451 290 c 2
EndSplineSet
EndChar

StartChar: ntilde
Encoding: 241 241 176
Width: 530
GlyphClass: 2
Flags: MW
HStem: 0 21G<71 93 71 71 442 464 442 442> 506 20G<71 93 93 93> 519 21<246.5 329> 626 20<309.5 319 309.5 326> 651 20<205 214.5>
VStem: 71 22<0 312 406 526> 174 20<630 637.5 630 643> 330 20<659.5 667> 442 22<0 283 283 292 0 301.5>
AnchorPoint: "Anchor-0" 262 0 basechar 0
LayerCount: 2
Fore
SplineSet
210 651 m 0xaf80
 200 651 194 645 194 630 c 1
 174 630 l 1
 174 656 186 671 210 671 c 0xaf80
 226 671 240 667 267 658 c 0
 291 650 305 646 314 646 c 0
 324 646 330 652 330 667 c 1
 350 667 l 1
 350 641 338 626 314 626 c 0xb780
 298 626 284 630 257 639 c 0
 233 647 219 651 210 651 c 0xaf80
460 378 m 0
 463 351 464 335 464 292 c 2
 464 0 l 1
 442 0 l 1
 442 283 l 2
 442 320 441 343 438 370 c 0
 428 459 379 519 279 519 c 0xaf80
 183 519 93 452 93 312 c 2
 93 0 l 1
 71 0 l 1
 71 526 l 1
 93 526 l 1xcf80
 93 406 l 1
 114 458 l 1
 153 513 214 540 279 540 c 0
 385 540 449 481 460 378 c 0
EndSplineSet
EndChar

StartChar: ograve
Encoding: 242 242 181
Width: 554
GlyphClass: 2
Flags: MW
HStem: -14 21<220 334 220 351> 519 21<220 334> 580 110<205 274 205 293>
VStem: 30 24<179 345.5> 500 24<179 345.5 179 350.5>
LayerCount: 2
Fore
SplineSet
274 580 m 1
 205 690 l 1
 233 690 l 1
 293 580 l 1
 274 580 l 1
277 540 m 0
 425 540 524 429 524 262 c 0
 524 96 425 -14 277 -14 c 0
 129 -14 30 96 30 262 c 0
 30 429 129 540 277 540 c 0
277 7 m 0
 391 7 500 86 500 262 c 0
 500 439 391 519 277 519 c 0
 163 519 54 439 54 262 c 0
 54 86 163 7 277 7 c 0
EndSplineSet
EndChar

StartChar: otilde
Encoding: 245 245 185
Width: 554
GlyphClass: 2
Flags: MW
HStem: -14 21<220 334 220 351> 519 21<220 334> 626 20<324.5 334 324.5 341> 651 20<220 229.5>
VStem: 30 24<179 345.5> 189 20<630 637.5 630 643> 345 20<659.5 667> 500 24<179 345.5 179 350.5>
LayerCount: 2
Fore
SplineSet
225 651 m 0
 215 651 209 645 209 630 c 1
 189 630 l 1
 189 656 201 671 225 671 c 0xdf
 241 671 255 667 282 658 c 0
 306 650 320 646 329 646 c 0
 339 646 345 652 345 667 c 1
 365 667 l 1
 365 641 353 626 329 626 c 0xef
 313 626 299 630 272 639 c 0
 248 647 234 651 225 651 c 0
277 540 m 0
 425 540 524 429 524 262 c 0
 524 96 425 -14 277 -14 c 0
 129 -14 30 96 30 262 c 0
 30 429 129 540 277 540 c 0
277 7 m 0
 391 7 500 86 500 262 c 0
 500 439 391 519 277 519 c 0
 163 519 54 439 54 262 c 0
 54 86 163 7 277 7 c 0
EndSplineSet
EndChar

StartChar: odieresis
Encoding: 246 246 180
Width: 554
GlyphClass: 2
Flags: MW
HStem: -14 21<220 334 220 351> 519 21<220 334> 613 40<231.5 242.5 311.5 322.5>
VStem: 30 24<179 345.5> 237 80<613 613 653 653> 500 24<179 345.5 179 350.5>
LayerCount: 2
Fore
SplineSet
237 613 m 0
 226 613 217 622 217 633 c 0
 217 644 226 653 237 653 c 0
 248 653 257 644 257 633 c 0
 257 622 248 613 237 613 c 0
317 613 m 0
 306 613 297 622 297 633 c 0
 297 644 306 653 317 653 c 0
 328 653 337 644 337 633 c 0
 337 622 328 613 317 613 c 0
277 540 m 0
 425 540 524 429 524 262 c 0
 524 96 425 -14 277 -14 c 0
 129 -14 30 96 30 262 c 0
 30 429 129 540 277 540 c 0
277 7 m 0
 391 7 500 86 500 262 c 0
 500 439 391 519 277 519 c 0
 163 519 54 439 54 262 c 0
 54 86 163 7 277 7 c 0
EndSplineSet
EndChar

StartChar: divide
Encoding: 247 247 289
Width: 530
Flags: MW
HStem: 136 52<257.5 272.5> 307 21<65 465 65 465> 446 52<257.5 272.5>
VStem: 239 52<154.5 169.5 464.5 479.5>
LayerCount: 2
Fore
SplineSet
265 498 m 0
 280 498 291 487 291 472 c 0
 291 457 280 446 265 446 c 0
 250 446 239 457 239 472 c 0
 239 487 250 498 265 498 c 0
465 307 m 1
 65 307 l 1
 65 328 l 1
 465 328 l 1
 465 307 l 1
265 188 m 0
 280 188 291 177 291 162 c 0
 291 147 280 136 265 136 c 0
 250 136 239 147 239 162 c 0
 239 177 250 188 265 188 c 0
EndSplineSet
EndChar

StartChar: oslash
Encoding: 248 248 184
Width: 594
GlyphClass: 2
Flags: MW
HStem: -14 21<262.5 350> -8 21G<41 41> 514 20G<553 553> 519 21<236 324.5>
VStem: 46 24<227 345.5> 516 24<179 296>
LayerCount: 2
Fore
SplineSet
568 519 m 1x9c
 490 441 l 1
 522 394 540 333 540 262 c 0
 540 96 441 -14 293 -14 c 0
 218 -14 156 14 112 63 c 1x9c
 41 -8 l 1x5c
 26 7 l 1
 99 80 l 1
 65 127 46 189 46 262 c 0
 46 429 145 540 293 540 c 0
 370 540 433 510 477 458 c 1x9c
 553 534 l 1xac
 568 519 l 1x9c
70 262 m 0
 70 192 87 137 115 96 c 1
 461 442 l 1
 418 494 356 519 293 519 c 0
 179 519 70 439 70 262 c 0
516 262 m 0
 516 330 500 384 474 424 c 1
 129 80 l 1
 171 30 232 7 293 7 c 0
 407 7 516 86 516 262 c 0
EndSplineSet
EndChar

StartChar: uacute
Encoding: 250 250 206
Width: 526
GlyphClass: 2
Flags: MW
HStem: -14 21<197 279.5> 0 21G<433 455 433 433> 506 20G<62 84 84 84 433 455 455 455> 580 110<246 334 246 334> 670 20G<306 334 334 334>
VStem: 62 22<234 243 243 526> 433 22<0 120 120 120 214 526 0 526>
LayerCount: 2
Fore
SplineSet
265 580 m 1xb6
 246 580 l 1
 306 690 l 1
 334 690 l 1
 265 580 l 1xb6
455 526 m 1
 455 0 l 1
 433 0 l 1x6e
 433 120 l 1
 412 68 l 1
 373 13 312 -14 247 -14 c 0
 141 -14 77 45 66 148 c 0
 63 175 62 191 62 234 c 2
 62 526 l 1
 84 526 l 1
 84 243 l 2
 84 206 85 183 88 156 c 0
 98 67 147 7 247 7 c 0
 343 7 433 74 433 214 c 2
 433 526 l 1
 455 526 l 1
EndSplineSet
EndChar

StartChar: ucircumflex
Encoding: 251 251 207
Width: 526
GlyphClass: 2
Flags: MW
HStem: -14 21<197 279.5> 0 21G<433 455 433 433> 506 20G<62 84 84 84 433 455 455 455> 674 16<258 258>
VStem: 62 22<234 243 243 526> 433 22<0 120 120 120 214 526 0 526>
LayerCount: 2
Fore
SplineSet
205 580 m 1xbc
 182 580 l 1
 247 690 l 1
 270 690 l 1
 335 580 l 1
 311 580 l 1
 258 674 l 1
 205 580 l 1xbc
455 526 m 1
 455 0 l 1
 433 0 l 1x7c
 433 120 l 1
 412 68 l 1
 373 13 312 -14 247 -14 c 0
 141 -14 77 45 66 148 c 0
 63 175 62 191 62 234 c 2
 62 526 l 1
 84 526 l 1
 84 243 l 2
 84 206 85 183 88 156 c 0
 98 67 147 7 247 7 c 0
 343 7 433 74 433 214 c 2
 433 526 l 1
 455 526 l 1
EndSplineSet
EndChar

StartChar: udieresis
Encoding: 252 252 208
Width: 526
GlyphClass: 2
Flags: MW
HStem: -14 21<197 279.5> 0 21G<433 455 433 433> 506 20G<62 84 84 84 433 455 455 455> 613 40<212.5 223.5 292.5 303.5>
VStem: 62 22<234 243 243 526> 218 80<613 613 653 653> 433 22<0 120 120 120 214 526 0 526>
LayerCount: 2
Fore
SplineSet
218 613 m 0xbe
 207 613 198 622 198 633 c 0
 198 644 207 653 218 653 c 0
 229 653 238 644 238 633 c 0
 238 622 229 613 218 613 c 0xbe
298 613 m 0
 287 613 278 622 278 633 c 0
 278 644 287 653 298 653 c 0
 309 653 318 644 318 633 c 0
 318 622 309 613 298 613 c 0
455 526 m 1
 455 0 l 1
 433 0 l 1x7e
 433 120 l 1
 412 68 l 1
 373 13 312 -14 247 -14 c 0
 141 -14 77 45 66 148 c 0
 63 175 62 191 62 234 c 2
 62 526 l 1
 84 526 l 1
 84 243 l 2
 84 206 85 183 88 156 c 0
 98 67 147 7 247 7 c 0
 343 7 433 74 433 214 c 2
 433 526 l 1
 455 526 l 1
EndSplineSet
EndChar

StartChar: yacute
Encoding: 253 253 222
Width: 457
GlyphClass: 2
Flags: MW
HStem: -210 20<72.5 99 72.5 104> 506 20G<13 38 38 38 424 449 449 449> 580 110<218 306 218 306>
VStem: 13 436<526 526>
LayerCount: 2
Fore
SplineSet
237 580 m 1
 218 580 l 1
 278 690 l 1
 306 690 l 1
 237 580 l 1
449 526 m 1
 246 0 l 2
 175 -185 133 -210 75 -210 c 0
 61 -210 51 -209 40 -206 c 1
 40 -186 l 1
 53 -189 66 -190 79 -190 c 0
 119 -190 157 -162 202 -52 c 2
 219 -10 l 1
 13 526 l 1
 38 526 l 1
 231 18 l 1
 424 526 l 1
 449 526 l 1
EndSplineSet
EndChar

StartChar: thorn
Encoding: 254 254 188
Width: 544
GlyphClass: 2
Flags: MW
HStem: -14 21<241.5 338 234 338.5> 519 21<251 351.5> 715 20G<71 93 93 93>
VStem: 71 22<-196 120 143 229 229 288 406 735> 490 24<187.5 332>
LayerCount: 2
Fore
SplineSet
287 540 m 0
 424 540 514 427 514 267 c 0
 514 81 402 -14 275 -14 c 0
 208 -14 165 6 122 54 c 1
 93 120 l 1
 93 -196 l 1
 71 -196 l 1
 71 735 l 1
 93 735 l 1
 93 406 l 1
 121 466 l 1
 168 522 215 540 287 540 c 0
275 7 m 0
 401 7 490 112 490 263 c 0
 490 401 418 519 285 519 c 0
 181 519 93 461 93 288 c 2
 93 229 l 2
 93 57 193 7 275 7 c 0
EndSplineSet
EndChar

StartChar: ydieresis
Encoding: 255 255 224
Width: 457
GlyphClass: 2
Flags: MW
HStem: -210 20<72.5 99 72.5 104> 506 20G<13 38 38 38 424 449 449 449> 613 40<184.5 195.5 264.5 275.5>
VStem: 190 80<613 613 653 653>
LayerCount: 2
Fore
SplineSet
190 613 m 0
 179 613 170 622 170 633 c 0
 170 644 179 653 190 653 c 0
 201 653 210 644 210 633 c 0
 210 622 201 613 190 613 c 0
270 613 m 0
 259 613 250 622 250 633 c 0
 250 644 259 653 270 653 c 0
 281 653 290 644 290 633 c 0
 290 622 281 613 270 613 c 0
449 526 m 1
 246 0 l 2
 175 -185 133 -210 75 -210 c 0
 61 -210 51 -209 40 -206 c 1
 40 -186 l 1
 53 -189 66 -190 79 -190 c 0
 119 -190 157 -162 202 -52 c 2
 219 -10 l 1
 13 526 l 1
 38 526 l 1
 231 18 l 1
 424 526 l 1
 449 526 l 1
EndSplineSet
EndChar

StartChar: Amacron
Encoding: 256 256 7
Width: 616
GlyphClass: 2
Flags: MW
HStem: 0 21G<36 59 36 36 575 575 575 599> 269 21<170 462 170 471 162 462> 671 19<317 317> 772 21<247 387 247 387>
VStem: 247 140<772 793 772 793>
LayerCount: 2
Fore
SplineSet
387 772 m 1
 247 772 l 1
 247 793 l 1
 387 793 l 1
 387 772 l 1
471 269 m 1
 162 269 l 1
 59 0 l 1
 36 0 l 1
 303 690 l 1
 332 690 l 1
 599 0 l 1
 575 0 l 1
 471 269 l 1
170 290 m 1
 462 290 l 1
 317 671 l 1
 170 290 l 1
EndSplineSet
Position2: "'cpsp' Capital Spacing in Latin lookup 0 subtable" dx=5 dy=0 dh=10 dv=0
EndChar

StartChar: Abreve
Encoding: 258 258 3
Width: 616
GlyphClass: 2
Flags: MW
HStem: 0 21G<36 59 36 36 575 575 575 599> 269 21<170 462 170 471 162 462> 671 19<317 317> 722 21<294.5 339.5 294.5 345.5>
VStem: 220 18<796.5 830> 396 18<796.5 830>
LayerCount: 2
Fore
SplineSet
317 722 m 0
 259 722 220 763 220 830 c 1
 238 830 l 1
 239 774 272 743 317 743 c 0
 362 743 395 774 396 830 c 1
 414 830 l 1
 414 763 374 722 317 722 c 0
471 269 m 1
 162 269 l 1
 59 0 l 1
 36 0 l 1
 303 690 l 1
 332 690 l 1
 599 0 l 1
 575 0 l 1
 471 269 l 1
170 290 m 1
 462 290 l 1
 317 671 l 1
 170 290 l 1
EndSplineSet
Position2: "'cpsp' Capital Spacing in Latin lookup 0 subtable" dx=5 dy=0 dh=10 dv=0
EndChar

StartChar: abreve
Encoding: 259 259 117
Width: 494
GlyphClass: 2
Flags: MW
HStem: -14 21<164 244.5> 0 21G<409 409 409 432> 281 22<367 401> 519 21<217 297> 570 21<232 278 232 285.5> 670 20G<164 182 182 182 327 345 345 345>
VStem: 47 24<91.5 188 91.5 188.5> 67 22<382 382> 164 18<653.5 690> 327 18<653.5 690> 401 22<209 281 281 281 303 330 330 332>
LayerCount: 2
Fore
SplineSet
255 570 m 0x7ee0
 193 570 164 617 164 690 c 1
 182 690 l 1
 183 628 209 591 255 591 c 0
 301 591 326 628 327 690 c 1
 345 690 l 1
 345 617 316 570 255 570 c 0x7ee0
409 0 m 1
 402 129 l 1
 379 76 l 1
 342 17 280 -14 209 -14 c 0
 109 -14 47 33 47 127 c 0xb6e0
 47 250 203 303 367 303 c 2
 401 303 l 1
 401 330 l 2
 401 355 401 375 399 398 c 0
 392 477 340 519 254 519 c 0
 180 519 101 480 89 382 c 1
 67 382 l 1
 73 470 150 540 254 540 c 0xb5e0
 357 540 414 489 421 401 c 0
 423 374 423 360 423 332 c 2
 423 170 l 2
 423 110 426 69 432 0 c 1
 409 0 l 1
212 7 m 0
 325 7 401 105 401 209 c 2
 401 281 l 1
 247 291 71 248 71 128 c 0
 71 55 116 7 212 7 c 0
EndSplineSet
EndChar

StartChar: Aogonek
Encoding: 260 260 8
Width: 616
GlyphClass: 2
Flags: MW
HStem: -223 20<506.5 530> 0 21G<36 59 36 36 594 599 594 594> 269 21<170 462 170 471 162 462> 671 19<317 317>
VStem: 452 22<-169.5 -119.5>
LayerCount: 2
Fore
SplineSet
599 0 m 1
 594 0 l 1
 525 -30 474 -84 474 -151 c 0
 474 -188 493 -203 520 -203 c 0
 543 -203 563 -194 585 -172 c 1
 585 -195 l 1
 566 -214 544 -223 516 -223 c 0
 484 -223 452 -208 452 -154 c 0
 452 -85 499 -23 572 8 c 1
 471 269 l 1
 162 269 l 1
 59 0 l 1
 36 0 l 1
 303 690 l 1
 332 690 l 1
 599 0 l 1
170 290 m 1
 462 290 l 1
 317 671 l 1
 170 290 l 1
EndSplineSet
Position2: "'cpsp' Capital Spacing in Latin lookup 0 subtable" dx=5 dy=0 dh=10 dv=0
EndChar

StartChar: aogonek
Encoding: 261 261 122
Width: 494
GlyphClass: 2
Flags: MW
HStem: -223 20<332.5 356> -14 21<164 244.5> 0 13 0 21G<422 432 422 422> 281 22<367 401> 519 21<217 297>
VStem: 47 24<91.5 188 91.5 188.5> 67 22<382 382> 278 22<-169.5 -117.5 -169.5 -117.5> 401 22<209 281 281 281 303 330 330 332>
LayerCount: 2
Fore
SplineSet
432 0 m 1x9dc0
 422 0 l 1
 350 -19 300 -84 300 -151 c 0
 300 -188 319 -203 346 -203 c 0
 369 -203 389 -194 411 -172 c 1
 411 -195 l 1
 392 -214 370 -223 342 -223 c 0
 310 -223 278 -208 278 -154 c 0
 278 -81 330 -11 408 13 c 1xaec0
 402 129 l 1
 379 76 l 1
 342 17 280 -14 209 -14 c 0
 109 -14 47 33 47 127 c 0xcec0
 47 250 203 303 367 303 c 2
 401 303 l 1
 401 330 l 2
 401 355 401 375 399 398 c 0
 392 477 340 519 254 519 c 0
 180 519 101 480 89 382 c 1
 67 382 l 1
 73 470 150 540 254 540 c 0
 357 540 414 489 421 401 c 0
 423 374 423 360 423 332 c 2
 423 170 l 2
 423 110 426 69 432 0 c 1x9dc0
212 7 m 0xcec0
 325 7 401 105 401 209 c 2
 401 281 l 1
 247 291 71 248 71 128 c 0
 71 55 116 7 212 7 c 0xcec0
EndSplineSet
EndChar

StartChar: Cacute
Encoding: 262 262 14
Width: 677
GlyphClass: 2
Flags: MW
HStem: -14 21<278 426 278 432.5> 683 21<288 428.5> 736 94<332 413 332 413>
VStem: 51 24<230.5 450.5> 603 22
AnchorPoint: "Anchor-0" 360 0 basechar 0
LayerCount: 2
Fore
SplineSet
351 736 m 1
 332 736 l 1
 385 830 l 1
 413 830 l 1
 351 736 l 1
364 704 m 0
 515 704 599 608 624 484 c 2
 626 474 l 1
 604 474 l 1
 602 484 l 2
 579 597 497 683 360 683 c 0
 216 683 75 565 75 344 c 0
 75 115 204 7 352 7 c 0
 500 7 580 99 604 217 c 2
 606 227 l 1
 628 227 l 1
 626 217 l 2
 600 88 515 -14 350 -14 c 0
 179 -14 51 118 51 343 c 0
 51 558 187 704 364 704 c 0
EndSplineSet
Position2: "'cpsp' Capital Spacing in Latin lookup 0 subtable" dx=5 dy=0 dh=10 dv=0
EndChar

StartChar: Cdotaccent
Encoding: 266 266 17
Width: 677
GlyphClass: 2
Flags: MW
HStem: -14 21<278 426 278 432.5> 683 21<288 428.5> 763 40<338.5 349.5>
VStem: 51 24<230.5 450.5> 603 22
AnchorPoint: "Anchor-0" 360 0 basechar 0
LayerCount: 2
Fore
SplineSet
344 803 m 0
 355 803 364 794 364 783 c 0
 364 772 355 763 344 763 c 0
 333 763 324 772 324 783 c 0
 324 794 333 803 344 803 c 0
364 704 m 0
 515 704 599 608 624 484 c 2
 626 474 l 1
 604 474 l 1
 602 484 l 2
 579 597 497 683 360 683 c 0
 216 683 75 565 75 344 c 0
 75 115 204 7 352 7 c 0
 500 7 580 99 604 217 c 2
 606 227 l 1
 628 227 l 1
 626 217 l 2
 600 88 515 -14 350 -14 c 0
 179 -14 51 118 51 343 c 0
 51 558 187 704 364 704 c 0
EndSplineSet
Position2: "'cpsp' Capital Spacing in Latin lookup 0 subtable" dx=5 dy=0 dh=10 dv=0
EndChar

StartChar: ccaron
Encoding: 269 269 129
Width: 517
GlyphClass: 2
Flags: MW
HStem: -14 20<212 310.5 212 317> 520 20<219.5 322.5> 580 16<254 266 266 266 266 277> 670 20G<189 213 213 213 319 342 342 342>
VStem: 30 24<179 348>
AnchorPoint: "Anchor-0" 255 0 basechar 0
LayerCount: 2
Fore
SplineSet
254 580 m 1
 189 690 l 1
 213 690 l 1
 266 596 l 1
 319 690 l 1
 342 690 l 1
 277 580 l 1
 254 580 l 1
265 6 m 0
 356 6 435 60 455 157 c 1
 477 157 l 1
 456 51 371 -14 263 -14 c 0
 134 -14 30 88 30 263 c 0
 30 433 139 540 271 540 c 0
 385 540 466 468 481 363 c 1
 459 363 l 1
 442 458 376 520 269 520 c 0
 170 520 54 438 54 268 c 0
 54 90 159 6 265 6 c 0
EndSplineSet
EndChar

StartChar: Dcaron
Encoding: 270 270 20
Width: 679
GlyphClass: 2
Flags: MW
HStem: 0 21<118 295 118 295> 669 21<118 295 118 118> 736 14<331 343 343 343 343 354>
VStem: 96 22<21 669 21 690 21 690> 617 24<244.5 456.5>
LayerCount: 2
Fore
SplineSet
331 736 m 1
 266 830 l 1
 290 830 l 1
 343 750 l 1
 396 830 l 1
 419 830 l 1
 354 736 l 1
 331 736 l 1
368 688 m 0
 474 680 641 592 641 348 c 0
 641 105 476 15 383 4 c 0
 348 0 327 0 295 0 c 2
 96 0 l 1
 96 690 l 1
 295 690 l 2
 327 690 343 690 368 688 c 0
380 25 m 0
 489 38 617 141 617 348 c 0
 617 565 476 657 367 667 c 0
 345 669 331 669 295 669 c 2
 118 669 l 1
 118 21 l 1
 295 21 l 2
 326 21 347 21 380 25 c 0
EndSplineSet
Position2: "'cpsp' Capital Spacing in Latin lookup 0 subtable" dx=5 dy=0 dh=10 dv=0
EndChar

StartChar: dcaron
Encoding: 271 271 134
Width: 544
GlyphClass: 2
Flags: MW
HStem: -14 21<192.5 293> 0 21G<451 473 451 451> 519 21<206 302.5 205.5 310> 612 122<503 571 503 571> 714 20G<546 571 571 571> 715 20G<451 473 473 473>
VStem: 30 24<194 338.5 194 352> 451 22<0 120 120 120 238 297 297 383 406 735 0 735>
LayerCount: 2
Fore
SplineSet
451 735 m 1xa7
 473 735 l 1
 473 0 l 1
 451 0 l 1x67
 451 120 l 1
 423 60 l 1
 376 4 329 -14 257 -14 c 0
 120 -14 30 99 30 259 c 0
 30 445 142 540 269 540 c 0
 336 540 379 520 422 472 c 1
 451 406 l 1
 451 735 l 1xa7
571 734 m 1xab
 571 729 l 1xab
 522 612 l 1
 503 612 l 1xb3
 546 734 l 1
 571 734 l 1xab
259 7 m 0xa7
 363 7 451 65 451 238 c 2
 451 297 l 2
 451 469 351 519 269 519 c 0
 143 519 54 414 54 263 c 0
 54 125 126 7 259 7 c 0xa7
EndSplineSet
EndChar

StartChar: Dcroat
Encoding: 272 272 21
Width: 685
GlyphClass: 2
Flags: MW
HStem: 0 21<124 301 124 301> 323 21<42 102 42 102 124 308> 669 21<124 301 124 124>
VStem: 102 22<21 323 21 323 21 323 344 669> 623 24<244.5 456.5>
LayerCount: 2
Fore
SplineSet
374 688 m 0
 480 680 647 592 647 348 c 0
 647 105 482 15 389 4 c 0
 354 0 333 0 301 0 c 2
 102 0 l 1
 102 323 l 1
 42 323 l 1
 42 344 l 1
 102 344 l 1
 102 690 l 1
 301 690 l 2
 333 690 349 690 374 688 c 0
386 25 m 0
 495 38 623 141 623 348 c 0
 623 565 482 657 373 667 c 0
 351 669 337 669 301 669 c 2
 124 669 l 1
 124 344 l 1
 308 344 l 1
 308 323 l 1
 124 323 l 1
 124 21 l 1
 301 21 l 2
 332 21 353 21 386 25 c 0
EndSplineSet
Position2: "'cpsp' Capital Spacing in Latin lookup 0 subtable" dx=5 dy=0 dh=10 dv=0
EndChar

StartChar: dcroat
Encoding: 273 273 135
Width: 546
GlyphClass: 2
Flags: MW
HStem: -14 21<192.5 293> 0 21G<451 473 451 451> 519 21<206 302.5 205.5 310> 613 21<334 451 334 451 473 515> 613 122<334 473 334 473 451 515 451 473>
VStem: 30 24<194 338.5 194 352> 451 22<0 120 120 120 238 297 297 383 406 613 0 613 634 735>
LayerCount: 2
Fore
SplineSet
515 613 m 1xb6
 473 613 l 1
 473 0 l 1
 451 0 l 1x76
 451 120 l 1
 423 60 l 1
 376 4 329 -14 257 -14 c 0
 120 -14 30 99 30 259 c 0
 30 445 142 540 269 540 c 0
 336 540 379 520 422 472 c 1
 451 406 l 1
 451 613 l 1
 334 613 l 1
 334 634 l 1
 451 634 l 1xb6
 451 735 l 1
 473 735 l 1xae
 473 634 l 1
 515 634 l 1
 515 613 l 1xb6
259 7 m 0xb6
 363 7 451 65 451 238 c 2
 451 297 l 2
 451 469 351 519 269 519 c 0
 143 519 54 414 54 263 c 0
 54 125 126 7 259 7 c 0xb6
EndSplineSet
EndChar

StartChar: Emacron
Encoding: 274 274 29
Width: 557
GlyphClass: 2
Flags: MW
HStem: 0 20<118 525 118 525> 335 20<118 495 118 495> 670 20<118 515 118 118> 772 21<220 360 220 360>
VStem: 96 22<20 335 355 670> 220 140<772 793 772 793>
AnchorPoint: "Anchor-0" 290 0 basechar 0
LayerCount: 2
Fore
SplineSet
360 772 m 1
 220 772 l 1
 220 793 l 1
 360 793 l 1
 360 772 l 1
525 20 m 1
 525 0 l 1
 96 0 l 1
 96 690 l 1
 515 690 l 1
 515 670 l 1
 118 670 l 1
 118 355 l 1
 495 355 l 1
 495 335 l 1
 118 335 l 1
 118 20 l 1
 525 20 l 1
EndSplineSet
Position2: "'cpsp' Capital Spacing in Latin lookup 0 subtable" dx=5 dy=0 dh=10 dv=0
EndChar

StartChar: Edotaccent
Encoding: 278 278 27
Width: 557
GlyphClass: 2
Flags: MW
HStem: 0 20<118 525 118 525> 335 20<118 495 118 495> 670 20<118 515 118 118> 763 40<284.5 295.5>
VStem: 96 22<20 335 355 670>
AnchorPoint: "Anchor-0" 290 0 basechar 0
LayerCount: 2
Fore
SplineSet
290 763 m 0
 279 763 270 772 270 783 c 0
 270 794 279 803 290 803 c 0
 301 803 310 794 310 783 c 0
 310 772 301 763 290 763 c 0
525 20 m 1
 525 0 l 1
 96 0 l 1
 96 690 l 1
 515 690 l 1
 515 670 l 1
 118 670 l 1
 118 355 l 1
 495 355 l 1
 495 335 l 1
 118 335 l 1
 118 20 l 1
 525 20 l 1
EndSplineSet
Position2: "'cpsp' Capital Spacing in Latin lookup 0 subtable" dx=5 dy=0 dh=10 dv=0
EndChar

StartChar: edotaccent
Encoding: 279 279 141
Width: 521
GlyphClass: 2
Flags: MW
HStem: -14 21<209.5 299.5 209.5 306> 258 21<53 463 53 484 53 463> 519 21<215.5 307> 613 40<250.5 261.5>
VStem: 30 23<258 258 258 279 258 348> 463 22<279 279>
AnchorPoint: "Anchor-0" 256 0 basechar 0
LayerCount: 2
Fore
SplineSet
256 613 m 0
 245 613 236 622 236 633 c 0
 236 644 245 653 256 653 c 0
 267 653 276 644 276 633 c 0
 276 622 267 613 256 613 c 0
485 277 m 0
 485 273 485 269 484 258 c 1
 53 258 l 1
 57 76 161 7 258 7 c 0
 341 7 424 54 455 161 c 1
 477 161 l 1
 445 45 356 -14 256 -14 c 0
 134 -14 30 81 30 265 c 0
 30 431 134 540 264 540 c 0
 415 540 485 408 485 277 c 0
262 519 m 0
 169 519 57 444 53 279 c 1
 463 279 l 1
 459 461 352 519 262 519 c 0
EndSplineSet
EndChar

StartChar: Eogonek
Encoding: 280 280 30
Width: 557
GlyphClass: 2
Flags: MW
HStem: -223 20<437.5 461> 0 20<118 485 118 525> 335 20<118 495 118 495> 670 20<118 515 118 118>
VStem: 96 22<20 335 355 670> 383 22<-169.5 -122>
AnchorPoint: "Anchor-0" 290 0 basechar 0
LayerCount: 2
Fore
SplineSet
525 20 m 1
 525 0 l 1
 456 -30 405 -84 405 -151 c 0
 405 -188 424 -203 451 -203 c 0
 474 -203 494 -194 516 -172 c 1
 516 -195 l 1
 497 -214 475 -223 447 -223 c 0
 415 -223 383 -208 383 -154 c 0
 383 -90 423 -33 485 0 c 1
 96 0 l 1
 96 690 l 1
 515 690 l 1
 515 670 l 1
 118 670 l 1
 118 355 l 1
 495 355 l 1
 495 335 l 1
 118 335 l 1
 118 20 l 1
 525 20 l 1
EndSplineSet
Position2: "'cpsp' Capital Spacing in Latin lookup 0 subtable" dx=5 dy=0 dh=10 dv=0
EndChar

StartChar: eogonek
Encoding: 281 281 144
Width: 521
GlyphClass: 2
Flags: MW
HStem: -223 20<247.5 271> -14 21<209.5 256 256 269> 258 21<53 463 53 484 53 463> 519 21<215.5 307>
VStem: 30 23<258 258 258 279 258 348> 193 22<-169.5 -127> 463 22<279 279>
AnchorPoint: "Anchor-0" 256 0 basechar 0
LayerCount: 2
Fore
SplineSet
485 277 m 0
 485 273 485 269 484 258 c 1
 53 258 l 1
 57 76 161 7 258 7 c 0
 341 7 424 54 455 161 c 1
 477 161 l 1
 454 78 402 24 336 0 c 0
 331 -2 326 -4 321 -5 c 0
 257 -29 215 -89 215 -151 c 0
 215 -188 234 -203 261 -203 c 0
 284 -203 304 -194 326 -172 c 1
 326 -195 l 1
 307 -214 285 -223 257 -223 c 0
 225 -223 193 -208 193 -154 c 0
 193 -100 222 -47 269 -14 c 1
 256 -14 l 2
 134 -14 30 81 30 265 c 0
 30 431 134 540 264 540 c 0
 415 540 485 408 485 277 c 0
262 519 m 0
 169 519 57 444 53 279 c 1
 463 279 l 1
 459 461 352 519 262 519 c 0
EndSplineSet
EndChar

StartChar: Ecaron
Encoding: 282 282 24
Width: 557
GlyphClass: 2
Flags: MW
HStem: 0 20<118 525 118 525> 335 20<118 495 118 495> 670 20<118 515 118 118> 670 160<214 238 344 367 214 515 118 238> 736 14<279 291 291 291 291 302>
VStem: 96 22<20 335 355 670>
AnchorPoint: "Anchor-0" 290 0 basechar 0
LayerCount: 2
Fore
SplineSet
279 736 m 1xec
 214 830 l 1
 238 830 l 1xd4
 291 750 l 1xec
 344 830 l 1
 367 830 l 1xd4
 302 736 l 1
 279 736 l 1xec
525 20 m 1
 525 0 l 1
 96 0 l 1
 96 690 l 1
 515 690 l 1
 515 670 l 1
 118 670 l 1xec
 118 355 l 1
 495 355 l 1
 495 335 l 1
 118 335 l 1
 118 20 l 1
 525 20 l 1
EndSplineSet
Position2: "'cpsp' Capital Spacing in Latin lookup 0 subtable" dx=5 dy=0 dh=10 dv=0
EndChar

StartChar: ecaron
Encoding: 283 283 138
Width: 521
GlyphClass: 2
Flags: MW
HStem: -14 21<209.5 299.5 209.5 306> 258 21<53 463 53 484 53 463> 519 21<215.5 307> 580 16<245 257 257 257 257 268> 670 20G<180 204 204 204 310 333 333 333>
VStem: 30 23<258 258 258 279 258 348> 463 22<279 279>
AnchorPoint: "Anchor-0" 256 0 basechar 0
LayerCount: 2
Fore
SplineSet
245 580 m 1
 180 690 l 1
 204 690 l 1
 257 596 l 1
 310 690 l 1
 333 690 l 1
 268 580 l 1
 245 580 l 1
485 277 m 0
 485 273 485 269 484 258 c 1
 53 258 l 1
 57 76 161 7 258 7 c 0
 341 7 424 54 455 161 c 1
 477 161 l 1
 445 45 356 -14 256 -14 c 0
 134 -14 30 81 30 265 c 0
 30 431 134 540 264 540 c 0
 415 540 485 408 485 277 c 0
262 519 m 0
 169 519 57 444 53 279 c 1
 463 279 l 1
 459 461 352 519 262 519 c 0
EndSplineSet
EndChar

StartChar: Gbreve
Encoding: 286 286 33
Width: 694
GlyphClass: 2
Flags: MW
HStem: -14 21<279.5 397.5> 0 21G<612 634 612 612> 287 20<379 612 379 634> 683 21<294.5 438.5> 722 21<337.5 382.5 337.5 388.5>
VStem: 51 24<230.5 450.5> 263 18<796.5 830> 439 18<796.5 830> 612 22<0 184 181 287 184 184>
AnchorPoint: "Anchor-0" 360 0 basechar 0
LayerCount: 2
Fore
SplineSet
360 722 m 0xbf80
 302 722 263 763 263 830 c 1
 281 830 l 1
 282 774 315 743 360 743 c 0
 405 743 438 774 439 830 c 1
 457 830 l 1
 457 763 417 722 360 722 c 0xbf80
379 307 m 1
 634 307 l 1
 634 0 l 1
 612 0 l 1x7780
 612 184 l 1
 592 119 l 1
 535 23 442 -14 353 -14 c 0
 179 -14 51 118 51 343 c 0
 51 558 190 704 374 704 c 0
 525 704 609 608 634 484 c 2
 636 474 l 1
 614 474 l 1
 612 484 l 2
 589 597 507 683 370 683 c 0xb780
 219 683 75 565 75 344 c 0
 75 115 204 7 355 7 c 0
 460 7 612 75 612 287 c 1
 379 287 l 1
 379 307 l 1
EndSplineSet
Position2: "'cpsp' Capital Spacing in Latin lookup 0 subtable" dx=5 dy=0 dh=10 dv=0
EndChar

StartChar: gbreve
Encoding: 287 287 147
Width: 544
GlyphClass: 2
Flags: MW
HStem: -220 21<214.5 320 214.5 323> -14 21<192.5 293> 510 20G<451 473 473 473> 519 21<206 302.5 205.5 310> 570 21<245 291 245 298.5> 670 20G<177 195 195 195 340 358 358 358>
VStem: 30 24<194 338.5 194 352> 54 22 177 18<653.5 690> 340 18<653.5 690> 451 22<100 120 120 120 238 297 297 383 406 530>
LayerCount: 2
Fore
SplineSet
268 570 m 0xeee0
 206 570 177 617 177 690 c 1
 195 690 l 1
 196 628 222 591 268 591 c 0
 314 591 339 628 340 690 c 1
 358 690 l 1
 358 617 329 570 268 570 c 0xeee0
473 530 m 1
 473 140 l 2
 473 57 473 16 472 -18 c 0
 468 -137 390 -220 256 -220 c 0
 159 -220 71 -181 55 -62 c 2
 53 -47 l 1
 75 -47 l 1
 77 -62 l 2xd5e0
 90 -163 171 -199 258 -199 c 0
 382 -199 447 -121 450 -11 c 0
 451 24 451 51 451 100 c 2
 451 120 l 1
 423 60 l 1
 376 4 329 -14 257 -14 c 0
 120 -14 30 99 30 259 c 0
 30 445 142 540 269 540 c 0
 336 540 379 520 422 472 c 1xd6e0
 451 406 l 1
 451 530 l 1
 473 530 l 1
259 7 m 0
 363 7 451 65 451 238 c 2
 451 297 l 2
 451 469 351 519 269 519 c 0
 143 519 54 414 54 263 c 0xd6e0
 54 125 126 7 259 7 c 0
EndSplineSet
EndChar

StartChar: Gdotaccent
Encoding: 288 288 35
Width: 694
GlyphClass: 2
Flags: MW
HStem: -14 21<279.5 397.5> 0 21G<612 634 612 612> 287 20<379 612 379 634> 683 21<294.5 438.5> 763 40<354.5 365.5>
VStem: 51 24<230.5 450.5> 612 22<0 184 181 287 184 184>
AnchorPoint: "Anchor-0" 360 0 basechar 0
LayerCount: 2
Fore
SplineSet
360 763 m 0xbe
 349 763 340 772 340 783 c 0
 340 794 349 803 360 803 c 0
 371 803 380 794 380 783 c 0
 380 772 371 763 360 763 c 0xbe
379 307 m 1
 634 307 l 1
 634 0 l 1
 612 0 l 1x7e
 612 184 l 1
 592 119 l 1
 535 23 442 -14 353 -14 c 0
 179 -14 51 118 51 343 c 0
 51 558 190 704 374 704 c 0
 525 704 609 608 634 484 c 2
 636 474 l 1
 614 474 l 1
 612 484 l 2
 589 597 507 683 370 683 c 0
 219 683 75 565 75 344 c 0
 75 115 204 7 355 7 c 0
 460 7 612 75 612 287 c 1
 379 287 l 1
 379 307 l 1
EndSplineSet
Position2: "'cpsp' Capital Spacing in Latin lookup 0 subtable" dx=5 dy=0 dh=10 dv=0
EndChar

StartChar: gdotaccent
Encoding: 289 289 149
Width: 544
GlyphClass: 2
Flags: MW
HStem: -220 21<214.5 320 214.5 323> -14 21<192.5 293> 510 20G<451 473 473 473> 519 21<206 302.5 205.5 310> 613 40<262.5 273.5>
VStem: 30 24<194 338.5 194 352> 54 22 451 22<100 120 120 120 238 297 297 383 406 530>
LayerCount: 2
Fore
SplineSet
268 613 m 0xdd
 257 613 248 622 248 633 c 0
 248 644 257 653 268 653 c 0
 279 653 288 644 288 633 c 0
 288 622 279 613 268 613 c 0xdd
473 530 m 1xed
 473 140 l 2
 473 57 473 16 472 -18 c 0
 468 -137 390 -220 256 -220 c 0
 159 -220 71 -181 55 -62 c 2
 53 -47 l 1
 75 -47 l 1
 77 -62 l 2xdb
 90 -163 171 -199 258 -199 c 0
 382 -199 447 -121 450 -11 c 0
 451 24 451 51 451 100 c 2
 451 120 l 1
 423 60 l 1
 376 4 329 -14 257 -14 c 0
 120 -14 30 99 30 259 c 0
 30 445 142 540 269 540 c 0
 336 540 379 520 422 472 c 1xdd
 451 406 l 1
 451 530 l 1
 473 530 l 1xed
259 7 m 0
 363 7 451 65 451 238 c 2
 451 297 l 2
 451 469 351 519 269 519 c 0
 143 519 54 414 54 263 c 0xdd
 54 125 126 7 259 7 c 0
EndSplineSet
EndChar

StartChar: Gcommaaccent
Encoding: 290 290 34
Width: 694
GlyphClass: 2
Flags: MW
HStem: -173 122<305 373 305 373> -14 21<279.5 397.5> 0 21G<612 634 612 612> 287 20<379 612 379 634> 683 21<294.5 438.5>
VStem: 51 24<230.5 450.5> 612 22<0 184 181 287 184 184>
AnchorPoint: "Anchor-0" 360 0 basechar 0
LayerCount: 2
Fore
SplineSet
379 307 m 1x5e
 634 307 l 1
 634 0 l 1
 612 0 l 1xbe
 612 184 l 1
 592 119 l 1
 535 23 442 -14 353 -14 c 0
 179 -14 51 118 51 343 c 0
 51 558 190 704 374 704 c 0
 525 704 609 608 634 484 c 2
 636 474 l 1
 614 474 l 1
 612 484 l 2
 589 597 507 683 370 683 c 0
 219 683 75 565 75 344 c 0
 75 115 204 7 355 7 c 0
 460 7 612 75 612 287 c 1
 379 287 l 1
 379 307 l 1x5e
348 -51 m 1
 373 -51 l 1
 373 -56 l 1
 324 -173 l 1
 305 -173 l 1
 348 -51 l 1
EndSplineSet
Position2: "'cpsp' Capital Spacing in Latin lookup 0 subtable" dx=5 dy=0 dh=10 dv=0
EndChar

StartChar: Hbar
Encoding: 294 294 37
Width: 655
GlyphClass: 2
Flags: MW
HStem: 0 21G<96 118 96 96 562 584 562 562> 328 21<118 562 118 562> 520 21<56 96 56 96 118 562 584 624> 520 170<56 118 56 118 96 118 96 562>
VStem: 96 22<0 328 0 349 349 520 541 690> 562 22<0 328 328 328 349 520 0 520 541 690>
LayerCount: 2
Fore
SplineSet
624 520 m 1xec
 584 520 l 1
 584 0 l 1
 562 0 l 1
 562 328 l 1
 118 328 l 1
 118 0 l 1
 96 0 l 1
 96 520 l 1
 56 520 l 1
 56 541 l 1
 96 541 l 1xec
 96 690 l 1
 118 690 l 1xdc
 118 541 l 1
 562 541 l 1xec
 562 690 l 1
 584 690 l 1xdc
 584 541 l 1
 624 541 l 1
 624 520 l 1xec
562 520 m 1
 118 520 l 1
 118 349 l 1
 562 349 l 1
 562 520 l 1
EndSplineSet
Position2: "'cpsp' Capital Spacing in Latin lookup 0 subtable" dx=5 dy=0 dh=10 dv=0
EndChar

StartChar: hbar
Encoding: 295 295 151
Width: 540
GlyphClass: 2
Flags: MW
HStem: 0 21G<81 103 81 81 452 474 452 452> 519 21<256.5 339> 613 21<31 81 31 81 103 213> 613 127<31 103 31 103 81 103 81 213>
VStem: 81 22<0 312 406 613 634 740> 452 22<0 283 283 292 0 301.5>
LayerCount: 2
Fore
SplineSet
470 378 m 0xec
 473 351 474 335 474 292 c 2
 474 0 l 1
 452 0 l 1
 452 283 l 2
 452 320 451 343 448 370 c 0
 438 459 389 519 289 519 c 0
 193 519 103 452 103 312 c 2
 103 0 l 1
 81 0 l 1
 81 613 l 1
 31 613 l 1
 31 634 l 1
 81 634 l 1xec
 81 740 l 1
 103 740 l 1xdc
 103 634 l 1
 213 634 l 1
 213 613 l 1
 103 613 l 1
 103 406 l 1
 124 458 l 1
 163 513 224 540 289 540 c 0
 395 540 459 481 470 378 c 0xec
EndSplineSet
EndChar

StartChar: Imacron
Encoding: 298 298 45
Width: 189
GlyphClass: 2
Flags: MW
HStem: 0 21G<96 118 96 96> 670 20G<96 118 118 118> 772 21<37 177 37 177>
VStem: 96 22<0 690>
LayerCount: 2
Fore
SplineSet
177 772 m 1
 37 772 l 1
 37 793 l 1
 177 793 l 1
 177 772 l 1
118 0 m 1
 96 0 l 1
 96 690 l 1
 118 690 l 1
 118 0 l 1
EndSplineSet
Position2: "'cpsp' Capital Spacing in Latin lookup 0 subtable" dx=5 dy=0 dh=10 dv=0
EndChar

StartChar: imacron
Encoding: 299 299 159
Width: 164
GlyphClass: 2
Flags: MW
HStem: 0 21G<71 93 71 71> 506 20G<71 93 93 93> 620 21<12 152 12 152>
VStem: 71 22<0 526>
LayerCount: 2
Fore
SplineSet
152 620 m 1
 12 620 l 1
 12 641 l 1
 152 641 l 1
 152 620 l 1
93 0 m 1
 71 0 l 1
 71 526 l 1
 93 526 l 1
 93 0 l 1
EndSplineSet
EndChar

StartChar: Iogonek
Encoding: 302 302 46
Width: 189
GlyphClass: 2
Flags: MW
HStem: -223 20<30.5 54> 0 21G<118 118> 670 20G<96 118 118 118>
VStem: -24 22<-169.5 -119> 96 22<9 690 0 690>
LayerCount: 2
Fore
SplineSet
118 690 m 1
 118 0 l 1
 49 -30 -2 -84 -2 -151 c 0
 -2 -188 17 -203 44 -203 c 0
 67 -203 87 -194 109 -172 c 1
 109 -195 l 1
 90 -214 68 -223 40 -223 c 0
 8 -223 -24 -208 -24 -154 c 0
 -24 -84 23 -23 96 9 c 1
 96 690 l 1
 118 690 l 1
EndSplineSet
Position2: "'cpsp' Capital Spacing in Latin lookup 0 subtable" dx=5 dy=0 dh=10 dv=0
EndChar

StartChar: iogonek
Encoding: 303 303 160
Width: 164
GlyphClass: 2
Flags: MW
HStem: -223 20<-5.5 18> 0 13 0 21G<84 93 84 84> 506 20G<71 93 93 93> 613 40<76.5 87.5>
VStem: -60 22<-169.5 -117.5 -169.5 -117.5> 71 22<13 526 0 526>
LayerCount: 2
Fore
SplineSet
82 653 m 0xbe
 93 653 102 644 102 633 c 0
 102 622 93 613 82 613 c 0
 71 613 62 622 62 633 c 0
 62 644 71 653 82 653 c 0xbe
71 526 m 1
 93 526 l 1
 93 0 l 1
 84 0 l 1
 12 -19 -38 -84 -38 -151 c 0
 -38 -188 -19 -203 8 -203 c 0
 31 -203 51 -194 73 -172 c 1
 73 -195 l 1
 54 -214 32 -223 4 -223 c 0
 -28 -223 -60 -208 -60 -154 c 0
 -60 -81 -8 -11 71 13 c 1xde
 71 526 l 1
EndSplineSet
EndChar

StartChar: Idotaccent
Encoding: 304 304 43
Width: 189
GlyphClass: 2
Flags: MW
HStem: 0 21G<96 118 96 96> 670 20G<96 118 118 118> 763 40<101.5 112.5>
VStem: 96 22<0 690>
LayerCount: 2
Fore
SplineSet
107 803 m 0
 118 803 127 794 127 783 c 0
 127 772 118 763 107 763 c 0
 96 763 87 772 87 783 c 0
 87 794 96 803 107 803 c 0
118 0 m 1
 96 0 l 1
 96 690 l 1
 118 690 l 1
 118 0 l 1
EndSplineSet
Position2: "'cpsp' Capital Spacing in Latin lookup 0 subtable" dx=5 dy=0 dh=10 dv=0
EndChar

StartChar: IJ
Encoding: 306 306 39
Width: 684
GlyphClass: 2
Flags: MW
HStem: -14 21<383.5 479 383.5 491> 0 21G<96 118 96 96> 670 20G<96 118 118 118 596 618 618 618>
VStem: 96 22<0 690> 236.5 22 596 22<252 260 260 690>
LayerCount: 2
Fore
SplineSet
118 0 m 1x7c
 96 0 l 1
 96 690 l 1
 118 690 l 1
 118 0 l 1x7c
618 690 m 1
 618 260 l 2
 618 229 618 201 616 169 c 0
 610 77 554 -14 428 -14 c 0
 312 -14 242 53 237 194 c 2
 236 224 l 1
 258 224 l 1
 259 194 l 2
 264 56 337 7 430 7 c 0xbc
 528 7 585 68 594 172 c 0
 596 194 596 221 596 252 c 2
 596 690 l 1
 618 690 l 1
EndSplineSet
Position2: "'cpsp' Capital Spacing in Latin lookup 0 subtable" dx=5 dy=0 dh=10 dv=0
EndChar

StartChar: ij
Encoding: 307 307 158
Width: 320
GlyphClass: 2
Flags: MW
HStem: -210 19.93 0 21G<71 93 71 71> 506 20G<71 93 93 93 228 250 250 250> 613 40<76.5 87.5 233.5 244.5>
VStem: 71 22<0 526> 82 157<613 613 653 653> 228 22<-83 -73 -73 526>
LayerCount: 2
Fore
SplineSet
82 653 m 0xf4
 93 653 102 644 102 633 c 0
 102 622 93 613 82 613 c 0
 71 613 62 622 62 633 c 0
 62 644 71 653 82 653 c 0xf4
239 653 m 0
 250 653 259 644 259 633 c 0
 259 622 250 613 239 613 c 0
 228 613 219 622 219 633 c 0
 219 644 228 653 239 653 c 0
93 0 m 1xfa
 71 0 l 1
 71 526 l 1
 93 526 l 1
 93 0 l 1xfa
250 526 m 1
 250 -73 l 2
 250 -93 250 -107 249 -125 c 0
 246 -184 209 -210 167 -210 c 0
 156 -210 145 -209 132 -206 c 1
 132 -187 l 1
 187 -197 224 -186 227 -123 c 0
 228 -109 228 -99 228 -84 c 2
 228 526 l 1
 250 526 l 1
EndSplineSet
EndChar

StartChar: kcommaaccent
Encoding: 311 311 163
Width: 458
GlyphClass: 2
Flags: MW
HStem: -173 122<174 242 174 242> 0 21G<71 93 71 71 404 437 404 404> 506 20G<403 436 436 436> 715 20G<71 93 93 93>
VStem: 71 22<0 215 241 735>
AnchorPoint: "Anchor-0" 229 0 basechar 0
LayerCount: 2
Fore
SplineSet
437 0 m 1
 404 0 l 1
 138 256 l 1
 93 215 l 1
 93 0 l 1
 71 0 l 1
 71 735 l 1
 93 735 l 1
 93 241 l 1
 403 526 l 1
 436 526 l 1
 156 271 l 1
 437 0 l 1
217 -51 m 1
 242 -51 l 1
 242 -56 l 1
 193 -173 l 1
 174 -173 l 1
 217 -51 l 1
EndSplineSet
EndChar

StartChar: Lcommaaccent
Encoding: 315 315 53
Width: 539
GlyphClass: 2
Flags: MW
HStem: -173 122<235 303 235 303> 0 20<118 525 118 525> 670 20G<96 118 118 118>
VStem: 96 22<20 690 20 690 20 690>
AnchorPoint: "Anchor-0" 290 0 basechar 0
LayerCount: 2
Fore
SplineSet
525 20 m 1
 525 0 l 1
 96 0 l 1
 96 690 l 1
 118 690 l 1
 118 20 l 1
 525 20 l 1
278 -51 m 1
 303 -51 l 1
 303 -56 l 1
 254 -173 l 1
 235 -173 l 1
 278 -51 l 1
EndSplineSet
Position2: "'cpsp' Capital Spacing in Latin lookup 0 subtable" dx=5 dy=0 dh=10 dv=0
EndChar

StartChar: lcommaaccent
Encoding: 316 316 167
Width: 173
GlyphClass: 2
Flags: MW
HStem: -173 122<57 125 57 125> -5 21 715 20G<68 90 90 90>
VStem: 68 22<120 735>
AnchorPoint: "Anchor-0" 112 0 basechar 0
LayerCount: 2
Fore
SplineSet
90 735 m 1
 90 120 l 2
 90 85 90 65 91 51 c 0
 93 18 106 11 147 16 c 1
 147 -3 l 1
 137 -5 128 -5 118 -5 c 0
 91 -5 71 6 69 46 c 0
 68 66 68 82 68 120 c 2
 68 735 l 1
 90 735 l 1
125 -56 m 1
 76 -173 l 1
 57 -173 l 1
 100 -51 l 1
 125 -51 l 1
 125 -56 l 1
EndSplineSet
EndChar

StartChar: Lcaron
Encoding: 317 317 52
Width: 539
GlyphClass: 2
Flags: MW
HStem: 0 20<118 525 118 525> 670 20G<96 118 118 118>
VStem: 96 22<20 690 20 690 20 690>
AnchorPoint: "Anchor-0" 290 0 basechar 0
LayerCount: 2
Fore
SplineSet
525 20 m 1
 525 0 l 1
 96 0 l 1
 96 690 l 1
 118 690 l 1
 118 20 l 1
 525 20 l 1
EndSplineSet
Position2: "'cpsp' Capital Spacing in Latin lookup 0 subtable" dx=5 dy=0 dh=10 dv=0
EndChar

StartChar: Ldot
Encoding: 319 319 54
Width: 539
GlyphClass: 2
Flags: MW
HStem: 0 20<118 525 118 525> 380 40<324.5 335.5> 670 20G<96 118 118 118>
VStem: 96 22<20 690 20 690 20 690>
AnchorPoint: "Anchor-0" 290 0 basechar 0
LayerCount: 2
Fore
SplineSet
525 20 m 1
 525 0 l 1
 96 0 l 1
 96 690 l 1
 118 690 l 1
 118 20 l 1
 525 20 l 1
330 380 m 0
 319 380 310 389 310 400 c 0
 310 411 319 420 330 420 c 0
 341 420 350 411 350 400 c 0
 350 389 341 380 330 380 c 0
EndSplineSet
Ligature2: "Ligature Substitution lookup 5 subtable" L periodcentered
Position2: "'cpsp' Capital Spacing in Latin lookup 0 subtable" dx=5 dy=0 dh=10 dv=0
EndChar

StartChar: ldot
Encoding: 320 320 168
Width: 180
GlyphClass: 2
Flags: MW
HStem: -5 21 380 40<151.5 162.5> 715 20G<68 90 90 90>
VStem: 68 22<120 735>
AnchorPoint: "Anchor-0" 112 0 basechar 0
LayerCount: 2
Fore
SplineSet
90 735 m 1
 90 120 l 2
 90 85 90 65 91 51 c 0
 93 18 106 11 147 16 c 1
 147 -3 l 1
 137 -5 128 -5 118 -5 c 0
 91 -5 71 6 69 46 c 0
 68 66 68 82 68 120 c 2
 68 735 l 1
 90 735 l 1
157 420 m 0
 168 420 177 411 177 400 c 0
 177 389 168 380 157 380 c 0
 146 380 137 389 137 400 c 0
 137 411 146 420 157 420 c 0
EndSplineSet
Ligature2: "Ligature Substitution lookup 5 subtable" l periodcentered
EndChar

StartChar: Lslash
Encoding: 321 321 55
Width: 571
GlyphClass: 2
Flags: MW
HStem: 0 20<150 557 150 557> 670 20G<128 150 150 150>
VStem: 128 22<20 313 313 313 350 690>
AnchorPoint: "Anchor-0" 322 0 basechar 0
LayerCount: 2
Fore
SplineSet
557 20 m 1
 557 0 l 1
 128 0 l 1
 128 313 l 1
 14 245 l 1
 14 269 l 1
 128 337 l 1
 128 690 l 1
 150 690 l 1
 150 350 l 1
 334 459 l 1
 334 435 l 1
 150 326 l 1
 150 20 l 1
 557 20 l 1
EndSplineSet
Position2: "'cpsp' Capital Spacing in Latin lookup 0 subtable" dx=5 dy=0 dh=10 dv=0
EndChar

StartChar: lslash
Encoding: 322 322 169
Width: 202
GlyphClass: 2
Flags: MW
HStem: -5 21 715 20G<87 109 109 109>
VStem: 87 22<120 301 301 301 343 735>
AnchorPoint: "Anchor-0" 131 0 basechar 0
LayerCount: 2
Fore
SplineSet
109 317 m 1
 109 120 l 2
 109 85 109 65 110 51 c 0
 112 18 125 11 166 16 c 1
 166 -3 l 1
 156 -5 147 -5 137 -5 c 0
 110 -5 90 6 88 46 c 0
 87 66 87 82 87 120 c 2
 87 301 l 1
 30 260 l 1
 30 286 l 1
 87 327 l 1
 87 735 l 1
 109 735 l 1
 109 343 l 1
 166 384 l 1
 166 358 l 1
 109 317 l 1
EndSplineSet
EndChar

StartChar: nacute
Encoding: 324 324 172
Width: 530
GlyphClass: 2
Flags: MW
HStem: 0 21G<71 93 71 71 442 464 442 442> 506 20G<71 93 93 93> 519 21<246.5 329> 580 110<250 338 250 338> 670 20G<310 338 338 338>
VStem: 71 22<0 312 406 526> 442 22<0 283 283 292 0 301.5>
AnchorPoint: "Anchor-0" 262 0 basechar 0
LayerCount: 2
Fore
SplineSet
269 580 m 1xb6
 250 580 l 1
 310 690 l 1
 338 690 l 1
 269 580 l 1xb6
460 378 m 0
 463 351 464 335 464 292 c 2
 464 0 l 1
 442 0 l 1
 442 283 l 2
 442 320 441 343 438 370 c 0
 428 459 379 519 279 519 c 0xae
 183 519 93 452 93 312 c 2
 93 0 l 1
 71 0 l 1
 71 526 l 1
 93 526 l 1xce
 93 406 l 1
 114 458 l 1
 153 513 214 540 279 540 c 0
 385 540 449 481 460 378 c 0
EndSplineSet
EndChar

StartChar: ncommaaccent
Encoding: 326 326 174
Width: 530
GlyphClass: 2
Flags: MW
HStem: -173 122<207 275 207 275> 0 21G<71 93 71 71 442 464 442 442> 506 20G<71 93 93 93> 519 21<246.5 329>
VStem: 71 22<0 312 406 526> 442 22<0 283 283 292 0 301.5>
AnchorPoint: "Anchor-0" 262 0 basechar 0
LayerCount: 2
Fore
SplineSet
460 378 m 0xdc
 463 351 464 335 464 292 c 2
 464 0 l 1
 442 0 l 1
 442 283 l 2
 442 320 441 343 438 370 c 0
 428 459 379 519 279 519 c 0xdc
 183 519 93 452 93 312 c 2
 93 0 l 1
 71 0 l 1
 71 526 l 1
 93 526 l 1xec
 93 406 l 1
 114 458 l 1
 153 513 214 540 279 540 c 0
 385 540 449 481 460 378 c 0xdc
250 -51 m 1
 275 -51 l 1
 275 -56 l 1
 226 -173 l 1
 207 -173 l 1
 250 -51 l 1
EndSplineSet
EndChar

StartChar: Ncaron
Encoding: 327 327 59
Width: 637
GlyphClass: 2
Flags: MW
HStem: 0 20<546 546 546 566 532 546> 670 20<116 116> 736 14<320 332 332 332 332 343>
VStem: 96 22<0 375 0 690> 544 22<315 690 0 690>
AnchorPoint: "Anchor-0" 331 0 basechar 0
LayerCount: 2
Fore
SplineSet
320 736 m 1
 255 830 l 1
 279 830 l 1
 332 750 l 1
 385 830 l 1
 408 830 l 1
 343 736 l 1
 320 736 l 1
566 690 m 1
 566 0 l 1
 532 0 l 1
 116 670 l 1
 118 577 118 468 118 375 c 2
 118 0 l 1
 96 0 l 1
 96 690 l 1
 129 690 l 1
 546 20 l 1
 544 113 544 222 544 315 c 2
 544 690 l 1
 566 690 l 1
EndSplineSet
Position2: "'cpsp' Capital Spacing in Latin lookup 0 subtable" dx=5 dy=0 dh=10 dv=0
EndChar

StartChar: ncaron
Encoding: 328 328 173
Width: 530
GlyphClass: 2
Flags: MW
HStem: 0 21G<71 93 71 71 442 464 442 442> 506 20G<71 93 93 93> 519 21<246.5 329> 580 16<251 263 263 263 263 274> 670 20G<186 210 210 210 316 339 339 339>
VStem: 71 22<0 312 406 526> 442 22<0 283 283 292 0 301.5>
AnchorPoint: "Anchor-0" 262 0 basechar 0
LayerCount: 2
Fore
SplineSet
251 580 m 1xbe
 186 690 l 1
 210 690 l 1
 263 596 l 1
 316 690 l 1
 339 690 l 1
 274 580 l 1
 251 580 l 1xbe
460 378 m 0
 463 351 464 335 464 292 c 2
 464 0 l 1
 442 0 l 1
 442 283 l 2
 442 320 441 343 438 370 c 0
 428 459 379 519 279 519 c 0xbe
 183 519 93 452 93 312 c 2
 93 0 l 1
 71 0 l 1
 71 526 l 1
 93 526 l 1xde
 93 406 l 1
 114 458 l 1
 153 513 214 540 279 540 c 0
 385 540 449 481 460 378 c 0
EndSplineSet
EndChar

StartChar: Eng
Encoding: 330 330 61
Width: 637
GlyphClass: 2
Flags: MW
HStem: -223 21<428 466.5> 0 20 670 20<116 116>
VStem: 96 22<0 375 0 690> 544 22<-76 -67 -67 -19 -19 -19 315 690>
LayerCount: 2
Fore
SplineSet
566 690 m 1
 566 -67 l 2
 566 -85 566 -94 565 -108 c 0
 559 -189 515 -220 428 -223 c 1
 428 -202 l 1
 505 -202 544 -175 544 -83 c 2
 544 -19 l 1
 116 670 l 1
 118 577 118 468 118 375 c 2
 118 0 l 1
 96 0 l 1
 96 690 l 1
 129 690 l 1
 546 20 l 1
 544 113 544 222 544 315 c 2
 544 690 l 1
 566 690 l 1
EndSplineSet
Position2: "'cpsp' Capital Spacing in Latin lookup 0 subtable" dx=5 dy=0 dh=10 dv=0
EndChar

StartChar: eng
Encoding: 331 331 175
Width: 530
GlyphClass: 2
Flags: MW
HStem: -210 21<326 360 326 369> 0 21G<71 93 71 71> 506 20G<71 93 93 93> 519 21<246.5 329>
VStem: 71 22<0 312 406 526> 442 22<-57 -54 -54 283 283 292>
LayerCount: 2
Fore
SplineSet
460 378 m 0xdc
 463 351 464 335 464 292 c 2
 464 -54 l 2
 464 -72 464 -81 463 -95 c 0
 457 -176 412 -210 326 -210 c 1
 326 -189 l 1
 394 -189 436 -168 441 -99 c 0
 442 -84 442 -73 442 -57 c 2
 442 283 l 2
 442 320 441 343 438 370 c 0
 428 459 379 519 279 519 c 0xdc
 183 519 93 452 93 312 c 2
 93 0 l 1
 71 0 l 1
 71 526 l 1
 93 526 l 1xec
 93 406 l 1
 114 458 l 1
 153 513 214 540 279 540 c 0
 385 540 449 481 460 378 c 0xdc
EndSplineSet
EndChar

StartChar: Ohungarumlaut
Encoding: 336 336 68
Width: 713
GlyphClass: 2
Flags: MW
HStem: -14 21<286 440 286 457> 683 21<286 440> 736 94<309 390 309 390 362 396 362 415>
VStem: 51 24<242 448.5> 651 24<242 448.5 242 453.5>
LayerCount: 2
Fore
SplineSet
328 736 m 1
 309 736 l 1
 362 830 l 1
 390 830 l 1
 328 736 l 1
415 736 m 1
 396 736 l 1
 449 830 l 1
 477 830 l 1
 415 736 l 1
363 704 m 0
 551 704 675 552 675 345 c 0
 675 139 551 -14 363 -14 c 0
 175 -14 51 139 51 345 c 0
 51 552 175 704 363 704 c 0
363 7 m 0
 517 7 651 129 651 345 c 0
 651 562 517 683 363 683 c 0
 209 683 75 562 75 345 c 0
 75 129 209 7 363 7 c 0
EndSplineSet
Position2: "'cpsp' Capital Spacing in Latin lookup 0 subtable" dx=5 dy=0 dh=10 dv=0
EndChar

StartChar: ohungarumlaut
Encoding: 337 337 182
Width: 554
GlyphClass: 2
Flags: MW
HStem: -14 21<220 334 220 351> 519 21<220 334> 580 110<213 301 213 301 273 313 273 332>
VStem: 30 24<179 345.5> 500 24<179 345.5 179 350.5>
LayerCount: 2
Fore
SplineSet
232 580 m 1
 213 580 l 1
 273 690 l 1
 301 690 l 1
 232 580 l 1
332 580 m 1
 313 580 l 1
 373 690 l 1
 401 690 l 1
 332 580 l 1
277 540 m 0
 425 540 524 429 524 262 c 0
 524 96 425 -14 277 -14 c 0
 129 -14 30 96 30 262 c 0
 30 429 129 540 277 540 c 0
277 7 m 0
 391 7 500 86 500 262 c 0
 500 439 391 519 277 519 c 0
 163 519 54 439 54 262 c 0
 54 86 163 7 277 7 c 0
EndSplineSet
EndChar

StartChar: OE
Encoding: 338 338 72
Width: 1112
GlyphClass: 2
Flags: MW
HStem: -14 21<286 418.5> 0 20<673 1080 673 1080> 335 20<673 1050 673 1050> 670 20<673 1070 673 673> 683 21<286 420.5 269 445>
VStem: 51 24<242 448.5> 651 22<20 206 206 206 237 335 355 453.5 484 670>
LayerCount: 2
Fore
SplineSet
1080 20 m 1x76
 1080 0 l 1
 651 0 l 1x76
 651 206 l 1
 620 128 l 1
 554 27 474 -14 363 -14 c 0
 175 -14 51 139 51 345 c 0
 51 552 175 704 363 704 c 0xae
 478 704 546 667 620 566 c 1
 651 484 l 1
 651 690 l 1
 1070 690 l 1
 1070 670 l 1
 673 670 l 1
 673 355 l 1
 1050 355 l 1
 1050 335 l 1
 673 335 l 1
 673 20 l 1
 1080 20 l 1x76
363 7 m 0xae
 527 7 651 129 651 345 c 0
 651 562 527 683 363 683 c 0
 209 683 75 562 75 345 c 0
 75 129 209 7 363 7 c 0xae
EndSplineSet
Position2: "'cpsp' Capital Spacing in Latin lookup 0 subtable" dx=5 dy=0 dh=10 dv=0
EndChar

StartChar: oe
Encoding: 339 339 186
Width: 991
GlyphClass: 2
Flags: MW
HStem: -14 21<220 334 220 334.5 679.5 769.5> 258 21<524 932 524 954 524 932> 519 21<220 334 685 778>
VStem: 30 24<179 345.5> 500 24<258 258 258 279 258 350.5> 932 23<279 279>
LayerCount: 2
Fore
SplineSet
955 277 m 0
 955 273 955 269 954 258 c 1
 524 258 l 1
 528 76 631 7 728 7 c 0
 811 7 894 54 925 161 c 1
 947 161 l 1
 915 45 826 -14 726 -14 c 0
 629 -14 538 46 510 173 c 1
 481 55 392 -14 277 -14 c 0
 129 -14 30 96 30 262 c 0
 30 429 129 540 277 540 c 0
 393 540 484 472 513 352 c 1
 539 473 633 540 735 540 c 0
 886 540 955 408 955 277 c 0
277 7 m 0
 391 7 500 86 500 262 c 0
 500 439 391 519 277 519 c 0
 163 519 54 439 54 262 c 0
 54 86 163 7 277 7 c 0
524 279 m 1
 932 279 l 1
 928 461 823 519 733 519 c 0
 637 519 528 444 524 279 c 1
EndSplineSet
EndChar

StartChar: racute
Encoding: 341 341 191
Width: 257
GlyphClass: 2
Flags: MW
HStem: 0 21G<71 93 71 71> 506 20G<71 93 93 93> 519 21<208.5 256> 580 110<116 204 116 204> 670 20G<176 204 204 204>
VStem: 71 22<0 288 413 526>
AnchorPoint: "Anchor-0" 82 0 basechar 0
LayerCount: 2
Fore
SplineSet
135 580 m 1xb4
 116 580 l 1
 176 690 l 1
 204 690 l 1
 135 580 l 1xb4
233 540 m 0
 241 540 249 540 256 539 c 1
 256 519 l 1xac
 160 527 93 462 93 288 c 2
 93 0 l 1
 71 0 l 1
 71 526 l 1
 93 526 l 1xcc
 93 413 l 1
 114 473 l 1
 142 515 184 540 233 540 c 0
EndSplineSet
EndChar

StartChar: rcommaaccent
Encoding: 343 343 193
Width: 257
GlyphClass: 2
Flags: MW
HStem: -173 122<27 95 27 95> 0 21G<71 93 71 71> 506 20G<71 93 93 93> 519 21<208.5 256>
VStem: 71 22<0 288 413 526>
AnchorPoint: "Anchor-0" 82 0 basechar 0
LayerCount: 2
Fore
SplineSet
233 540 m 0xd8
 241 540 249 540 256 539 c 1
 256 519 l 1xd8
 160 527 93 462 93 288 c 2
 93 0 l 1
 71 0 l 1
 71 526 l 1
 93 526 l 1xe8
 93 413 l 1
 114 473 l 1
 142 515 184 540 233 540 c 0xd8
70 -51 m 1xe8
 95 -51 l 1
 95 -56 l 1
 46 -173 l 1
 27 -173 l 1
 70 -51 l 1xe8
EndSplineSet
EndChar

StartChar: Rcaron
Encoding: 344 344 78
Width: 571
GlyphClass: 2
Flags: MW
HStem: 0 21G<96 118 96 96 513 539 513 513> 338 21<118 279 118 279> 669 21<118 263 118 118> 736 14<292 304 304 304 304 315>
VStem: 96 22<0 338 359 669> 505 24<472 559.5>
AnchorPoint: "Anchor-0" 293 0 basechar 0
LayerCount: 2
Fore
SplineSet
292 736 m 1
 227 830 l 1
 251 830 l 1
 304 750 l 1
 357 830 l 1
 380 830 l 1
 315 736 l 1
 292 736 l 1
493 189 m 0
 505 86 520 43 539 0 c 1
 513 0 l 1
 498 44 482 84 470 184 c 0
 461 261 426 333 342 337 c 0
 320 338 295 338 279 338 c 2
 118 338 l 1
 118 0 l 1
 96 0 l 1
 96 690 l 1
 263 690 l 2
 298 690 330 689 362 685 c 0
 469 672 529 615 529 516 c 0
 529 428 475 364 385 348 c 1
 449 330 484 269 493 189 c 0
118 359 m 1
 279 359 l 2
 305 359 322 359 354 361 c 0
 448 368 505 429 505 515 c 0
 505 604 452 652 358 664 c 0
 326 668 299 669 263 669 c 2
 118 669 l 1
 118 359 l 1
EndSplineSet
Position2: "'cpsp' Capital Spacing in Latin lookup 0 subtable" dx=5 dy=0 dh=10 dv=0
EndChar

StartChar: rcaron
Encoding: 345 345 192
Width: 257
GlyphClass: 2
Flags: MW
HStem: 0 21G<71 93 71 71> 506 20G<71 93 93 93> 519 21<208.5 256> 580 16<117 129 129 129 129 140> 670 20G<52 76 76 76 182 205 205 205>
VStem: 71 22<0 288 413 526>
AnchorPoint: "Anchor-0" 82 0 basechar 0
LayerCount: 2
Fore
SplineSet
117 580 m 1xdc
 52 690 l 1
 76 690 l 1
 129 596 l 1
 182 690 l 1
 205 690 l 1
 140 580 l 1
 117 580 l 1xdc
233 540 m 0xbc
 241 540 249 540 256 539 c 1
 256 519 l 1xbc
 160 527 93 462 93 288 c 2
 93 0 l 1
 71 0 l 1
 71 526 l 1
 93 526 l 1xdc
 93 413 l 1
 114 473 l 1
 142 515 184 540 233 540 c 0xbc
EndSplineSet
EndChar

StartChar: Sacute
Encoding: 346 346 81
Width: 560
GlyphClass: 2
Flags: MW
HStem: -14 21<228 340.5 228 347.5> 683 21<239 331.5> 736 94<268 349 268 349>
VStem: 39 22<180 180> 71 24<483.5 581.5> 483 24<118.5 214.5>
AnchorPoint: "Anchor-0" 280 0 basechar 0
LayerCount: 2
Fore
SplineSet
287 736 m 1
 268 736 l 1
 321 830 l 1
 349 830 l 1
 287 736 l 1
284 704 m 0
 413 704 482 617 495 514 c 1
 473 514 l 1
 455 620 380 683 283 683 c 0
 195 683 95 632 95 533 c 0xec
 95 434 156 403 294 363 c 0
 437 322 507 275 507 167 c 0
 507 65 412 -14 283 -14 c 0
 162 -14 53 47 39 180 c 1
 61 180 l 1xfc
 74 67 172 7 284 7 c 0
 397 7 483 72 483 165 c 0
 483 264 424 301 284 341 c 0
 136 383 71 425 71 531 c 0
 71 632 170 704 284 704 c 0
EndSplineSet
Position2: "'cpsp' Capital Spacing in Latin lookup 0 subtable" dx=5 dy=0 dh=10 dv=0
EndChar

StartChar: sacute
Encoding: 347 347 195
Width: 435
GlyphClass: 2
Flags: MW
HStem: -14 21<179 264.5 179 272.5> 519 21<177.5 257> 580 110<201 289 201 289> 670 20G<261 289 289 289>
VStem: 26 22<156 156> 51 23<362 437.5 362 438.5> 375 23<85 159.5>
AnchorPoint: "Anchor-0" 223 0 basechar 0
LayerCount: 2
Fore
SplineSet
220 580 m 1xe6
 201 580 l 1
 261 690 l 1
 289 690 l 1
 220 580 l 1xe6
215 540 m 0
 324 540 379 470 393 383 c 1
 371 383 l 1
 349 475 300 519 214 519 c 0
 141 519 74 476 74 399 c 0xd6
 74 325 133 296 217 277 c 0
 338 250 398 212 398 124 c 0
 398 40 324 -14 221 -14 c 0
 123 -14 39 36 26 156 c 1
 48 156 l 1xda
 65 45 135 7 223 7 c 0
 306 7 375 47 375 123 c 0
 375 196 333 227 207 256 c 0
 124 275 51 309 51 398 c 0
 51 479 119 540 215 540 c 0
EndSplineSet
EndChar

StartChar: Scedilla
Encoding: 350 350 83
Width: 560
GlyphClass: 2
Flags: MW
HStem: -210 21<240 273.5 240 275.5> -69 18 -14 21<284 340.5 228 348> -13 20<260 260> 683 21<239 331.5>
VStem: 39 22<180 180> 71 24<483.5 581.5> 329 23<-148.5 -108.5> 483 24<118.5 214.5>
AnchorPoint: "Anchor-0" 280 0 basechar 0
LayerCount: 2
Fore
SplineSet
507 167 m 0xeb80
 507 65 412 -14 284 -14 c 1xeb80
 264 -51 l 1
 318 -56 352 -79 352 -128 c 0
 352 -186 300 -210 251 -210 c 0
 229 -210 212 -207 198 -200 c 1
 198 -178 l 1
 213 -186 229 -189 251 -189 c 0
 296 -189 329 -169 329 -128 c 0
 329 -89 299 -66 231 -69 c 1
 260 -13 l 1xdf80
 148 -6 52 56 39 180 c 1
 61 180 l 1xef80
 74 67 172 7 284 7 c 0
 397 7 483 72 483 165 c 0
 483 264 424 301 284 341 c 0
 136 383 71 425 71 531 c 0
 71 632 170 704 284 704 c 0
 413 704 482 617 495 514 c 1
 473 514 l 1
 455 620 380 683 283 683 c 0
 195 683 95 632 95 533 c 0
 95 434 156 403 294 363 c 0
 437 322 507 275 507 167 c 0xeb80
EndSplineSet
Substitution2: "'locl' Localized Forms in Latin lookup 2 subtable" Scommaaccent
Substitution2: "'locl' Localized Forms in Latin lookup 1 subtable" Scommaaccent
Substitution2: "'aalt' Access All Alternates in Latin lookup 0 subtable" Scommaaccent
Position2: "'cpsp' Capital Spacing in Latin lookup 0 subtable" dx=5 dy=0 dh=10 dv=0
EndChar

StartChar: scedilla
Encoding: 351 351 197
Width: 435
GlyphClass: 2
Flags: MW
HStem: -210 21<183 216.5 183 218.5> -69 18 -13 20<203 203> 519 21<177.5 257>
VStem: 26 22<156 156> 51 23<362 437.5 362 438.5> 272 23<-148.5 -108.5> 375 23<85 159.5>
AnchorPoint: "Anchor-0" 223 0 basechar 0
LayerCount: 2
Fore
SplineSet
398 124 m 0
 398 42 327 -12 227 -14 c 1
 207 -51 l 1
 261 -56 295 -79 295 -128 c 0
 295 -186 243 -210 194 -210 c 0
 172 -210 155 -207 141 -200 c 1
 141 -178 l 1
 156 -186 172 -189 194 -189 c 0
 239 -189 272 -169 272 -128 c 0
 272 -89 242 -66 174 -69 c 1
 203 -13 l 1
 113 -7 38 44 26 156 c 1
 48 156 l 1xfb
 65 45 135 7 223 7 c 0
 306 7 375 47 375 123 c 0
 375 196 333 227 207 256 c 0
 124 275 51 309 51 398 c 0
 51 479 119 540 215 540 c 0
 324 540 379 470 393 383 c 1
 371 383 l 1
 349 475 300 519 214 519 c 0
 141 519 74 476 74 399 c 0
 74 325 133 296 217 277 c 0
 338 250 398 212 398 124 c 0
EndSplineSet
Substitution2: "'locl' Localized Forms in Latin lookup 2 subtable" scommaaccent
Substitution2: "'locl' Localized Forms in Latin lookup 1 subtable" scommaaccent
Substitution2: "'aalt' Access All Alternates in Latin lookup 0 subtable" scommaaccent
EndChar

StartChar: Scaron
Encoding: 352 352 82
Width: 560
GlyphClass: 2
Flags: MW
HStem: -14 21<228 340.5 228 347.5> 683 21<239 331.5> 736 14<269 281 281 281 281 292>
VStem: 39 22<180 180> 71 24<483.5 581.5> 483 24<118.5 214.5>
AnchorPoint: "Anchor-0" 280 0 basechar 0
LayerCount: 2
Fore
SplineSet
269 736 m 1
 204 830 l 1
 228 830 l 1
 281 750 l 1
 334 830 l 1
 357 830 l 1
 292 736 l 1
 269 736 l 1
294 363 m 0
 437 322 507 275 507 167 c 0
 507 65 412 -14 283 -14 c 0
 162 -14 53 47 39 180 c 1
 61 180 l 1xfc
 74 67 172 7 284 7 c 0
 397 7 483 72 483 165 c 0
 483 264 424 301 284 341 c 0
 136 383 71 425 71 531 c 0
 71 632 170 704 284 704 c 0
 413 704 482 617 495 514 c 1
 473 514 l 1
 455 620 380 683 283 683 c 0
 195 683 95 632 95 533 c 0
 95 434 156 403 294 363 c 0
EndSplineSet
Position2: "'cpsp' Capital Spacing in Latin lookup 0 subtable" dx=5 dy=0 dh=10 dv=0
EndChar

StartChar: scaron
Encoding: 353 353 196
Width: 435
GlyphClass: 2
Flags: MW
HStem: -14 21<179 264.5 179 272.5> 519 21<177.5 257> 580 16<202 214 214 214 214 225> 670 20G<137 161 161 161 267 290 290 290>
VStem: 26 22<156 156> 51 23<362 437.5 362 438.5> 375 23<85 159.5>
AnchorPoint: "Anchor-0" 223 0 basechar 0
LayerCount: 2
Fore
SplineSet
202 580 m 1
 137 690 l 1
 161 690 l 1
 214 596 l 1
 267 690 l 1
 290 690 l 1
 225 580 l 1
 202 580 l 1
217 277 m 0
 338 250 398 212 398 124 c 0
 398 40 324 -14 221 -14 c 0
 123 -14 39 36 26 156 c 1
 48 156 l 1xfa
 65 45 135 7 223 7 c 0
 306 7 375 47 375 123 c 0
 375 196 333 227 207 256 c 0
 124 275 51 309 51 398 c 0
 51 479 119 540 215 540 c 0
 324 540 379 470 393 383 c 1
 371 383 l 1
 349 475 300 519 214 519 c 0
 141 519 74 476 74 399 c 0
 74 325 133 296 217 277 c 0
EndSplineSet
EndChar

StartChar: Tcedilla
Encoding: 354 354 88
Width: 580
GlyphClass: 2
Flags: MW
HStem: -210 21<267 300.5 267 302.5> -69 18 670 20<32 296 32 582 318 582 318 318>
VStem: 296 22<7 670 7 670 7 670> 356 23<-148.5 -108.5>
AnchorPoint: "Anchor-0" 307 0 basechar 0
LayerCount: 2
Fore
SplineSet
318 670 m 1
 318 7 l 1
 322 7 l 1
 291 -51 l 1
 345 -56 379 -79 379 -128 c 0
 379 -186 327 -210 278 -210 c 0
 256 -210 239 -207 225 -200 c 1
 225 -178 l 1
 240 -186 256 -189 278 -189 c 0
 323 -189 356 -169 356 -128 c 0
 356 -89 326 -66 258 -69 c 1
 296 5 l 1
 296 670 l 1
 32 670 l 1
 32 690 l 1
 582 690 l 1
 582 670 l 1
 318 670 l 1
EndSplineSet
Substitution2: "'locl' Localized Forms in Latin lookup 2 subtable" uni021A
Substitution2: "'locl' Localized Forms in Latin lookup 1 subtable" uni021A
Substitution2: "'aalt' Access All Alternates in Latin lookup 0 subtable" uni021A
Position2: "'cpsp' Capital Spacing in Latin lookup 0 subtable" dx=5 dy=0 dh=10 dv=0
EndChar

StartChar: tcedilla
Encoding: 355 355 203
Width: 236
GlyphClass: 2
Flags: MW
HStem: -210 21<117 150.5 117 152.5> -69 18 -7 17.96 -4 14.96 504 18<28 91 28 91 113 216>
VStem: 91 22<132 504 522 630> 206 23<-148.5 -108.5>
AnchorPoint: "Anchor-0" 157 0 basechar 0
LayerCount: 2
Fore
SplineSet
165 -7 m 1xee
 141 -51 l 1
 195 -56 229 -79 229 -128 c 0
 229 -186 177 -210 128 -210 c 0
 106 -210 89 -207 75 -200 c 1
 75 -178 l 1
 90 -186 106 -189 128 -189 c 0
 173 -189 206 -169 206 -128 c 0
 206 -89 176 -66 108 -69 c 1
 141 -4 l 1
 112 4 96 25 93 61 c 0xde
 91 85 91 102 91 132 c 2
 91 504 l 1
 28 504 l 1
 28 522 l 1
 91 522 l 1
 91 630 l 1
 113 630 l 1
 113 522 l 1
 216 522 l 1
 216 504 l 1
 113 504 l 1
 113 128 l 2
 113 100 113 85 114 71 c 0
 118 19 141 3 219 14 c 1
 219 -4 l 1
 206 -6 186 -7 169 -7 c 2
 165 -7 l 1xee
EndSplineSet
Substitution2: "'locl' Localized Forms in Latin lookup 2 subtable" uni021B
Substitution2: "'locl' Localized Forms in Latin lookup 1 subtable" uni021B
Substitution2: "'aalt' Access All Alternates in Latin lookup 0 subtable" uni021B
EndChar

StartChar: Tcaron
Encoding: 356 356 87
Width: 580
GlyphClass: 2
Flags: MW
HStem: 0 21G<296 318 296 296> 670 20<32 296 32 582 318 582 318 318> 670 160<231 255 231 296 361 384 231 582 231 318> 736 14<296 308 308 308 308 319>
VStem: 296 22<0 670 0 670>
AnchorPoint: "Anchor-0" 307 0 basechar 0
LayerCount: 2
Fore
SplineSet
296 736 m 1xd8
 231 830 l 1
 255 830 l 1xa8
 308 750 l 1xd8
 361 830 l 1
 384 830 l 1xa8
 319 736 l 1
 296 736 l 1xd8
582 670 m 1xd8
 318 670 l 1
 318 0 l 1
 296 0 l 1
 296 670 l 1
 32 670 l 1
 32 690 l 1
 582 690 l 1
 582 670 l 1xd8
EndSplineSet
Position2: "'cpsp' Capital Spacing in Latin lookup 0 subtable" dx=5 dy=0 dh=10 dv=0
EndChar

StartChar: tcaron
Encoding: 357 357 202
Width: 221
GlyphClass: 2
Flags: MW
HStem: -7 17.96 504 18<28 91 28 91 113 216> 612 122<166 234 166 234> 714 20G<209 234 234 234>
VStem: 91 22<132 504 522 630>
AnchorPoint: "Anchor-0" 157 0 basechar 0
LayerCount: 2
Fore
SplineSet
234 734 m 1xd8
 234 729 l 1xd8
 185 612 l 1
 166 612 l 1xe8
 209 734 l 1
 234 734 l 1xd8
114 71 m 0
 118 19 141 3 219 14 c 1
 219 -4 l 1
 206 -6 186 -7 169 -7 c 0
 122 -7 97 15 93 61 c 0
 91 85 91 102 91 132 c 2
 91 504 l 1
 28 504 l 1
 28 522 l 1
 91 522 l 1
 91 630 l 1
 113 630 l 1
 113 522 l 1
 216 522 l 1
 216 504 l 1
 113 504 l 1
 113 128 l 2
 113 100 113 85 114 71 c 0
EndSplineSet
EndChar

StartChar: Tbar
Encoding: 358 358 86
Width: 580
GlyphClass: 2
Flags: MW
HStem: 0 21G<296 318 296 296> 323 21<152 296 152 296 318 462> 670 20<32 296 32 582 318 582 318 318>
VStem: 296 22<0 323 0 323 344 670>
AnchorPoint: "Anchor-0" 307 0 basechar 0
LayerCount: 2
Fore
SplineSet
318 670 m 1
 318 344 l 1
 462 344 l 1
 462 323 l 1
 318 323 l 1
 318 0 l 1
 296 0 l 1
 296 323 l 1
 152 323 l 1
 152 344 l 1
 296 344 l 1
 296 670 l 1
 32 670 l 1
 32 690 l 1
 582 690 l 1
 582 670 l 1
 318 670 l 1
EndSplineSet
Position2: "'cpsp' Capital Spacing in Latin lookup 0 subtable" dx=5 dy=0 dh=10 dv=0
EndChar

StartChar: tbar
Encoding: 359 359 201
Width: 236
GlyphClass: 2
Flags: MW
HStem: -7 17.96 330 21<36 91 36 91 113 176> 504 18<28 91 28 91 113 216>
VStem: 91 22<132 330 351 504 522 630>
AnchorPoint: "Anchor-0" 157 0 basechar 0
LayerCount: 2
Fore
SplineSet
114 71 m 0
 118 19 141 3 219 14 c 1
 219 -4 l 1
 206 -6 186 -7 169 -7 c 0
 122 -7 97 15 93 61 c 0
 91 85 91 102 91 132 c 2
 91 330 l 1
 36 330 l 1
 36 351 l 1
 91 351 l 1
 91 504 l 1
 28 504 l 1
 28 522 l 1
 91 522 l 1
 91 630 l 1
 113 630 l 1
 113 522 l 1
 216 522 l 1
 216 504 l 1
 113 504 l 1
 113 351 l 1
 176 351 l 1
 176 330 l 1
 113 330 l 1
 113 128 l 2
 113 100 113 85 114 71 c 0
EndSplineSet
EndChar

StartChar: Umacron
Encoding: 362 362 96
Width: 600
GlyphClass: 2
Flags: MW
HStem: -14 21<246.5 377.5 246.5 381> 670 20G<90 112 112 112 512 534 534 534> 772 21<242 382 242 382>
VStem: 90 22<233 690> 242 140<772 793 772 793> 512 22<229 233 233 690>
LayerCount: 2
Fore
SplineSet
382 772 m 1
 242 772 l 1
 242 793 l 1
 382 793 l 1
 382 772 l 1
534 690 m 1
 534 233 l 2
 534 218 533 197 531 166 c 0
 524 60 450 -14 312 -14 c 0
 174 -14 100 60 93 166 c 0
 91 197 90 218 90 233 c 2
 90 690 l 1
 112 690 l 1
 112 229 l 2
 112 206 113 188 115 167 c 0
 123 80 181 7 312 7 c 0
 443 7 501 80 509 167 c 0
 511 188 512 206 512 229 c 2
 512 690 l 1
 534 690 l 1
EndSplineSet
Position2: "'cpsp' Capital Spacing in Latin lookup 0 subtable" dx=5 dy=0 dh=10 dv=0
EndChar

StartChar: Uring
Encoding: 366 366 98
Width: 600
GlyphClass: 2
Flags: MW
HStem: -14 21<246.5 377.5 246.5 381> 670 20G<90 112 112 112 512 534 534 534> 722 21<299.5 324.5 299.5 329> 823 21<299.5 324.5>
VStem: 90 22<233 690> 249 24<772 794 772 802> 351 24<772 794> 512 22<229 233 233 690>
LayerCount: 2
Fore
SplineSet
312 844 m 0
 346 844 375 821 375 783 c 0
 375 745 346 722 312 722 c 0
 278 722 249 745 249 783 c 0
 249 821 278 844 312 844 c 0
312 823 m 0
 287 823 273 805 273 783 c 0
 273 761 287 743 312 743 c 0
 337 743 351 761 351 783 c 0
 351 805 337 823 312 823 c 0
534 690 m 1
 534 233 l 2
 534 218 533 197 531 166 c 0
 524 60 450 -14 312 -14 c 0
 174 -14 100 60 93 166 c 0
 91 197 90 218 90 233 c 2
 90 690 l 1
 112 690 l 1
 112 229 l 2
 112 206 113 188 115 167 c 0
 123 80 181 7 312 7 c 0
 443 7 501 80 509 167 c 0
 511 188 512 206 512 229 c 2
 512 690 l 1
 534 690 l 1
EndSplineSet
Position2: "'cpsp' Capital Spacing in Latin lookup 0 subtable" dx=5 dy=0 dh=10 dv=0
EndChar

StartChar: uring
Encoding: 367 367 213
Width: 526
GlyphClass: 2
Flags: MW
HStem: -14 21<197 279.5> 0 21G<433 455 433 433> 506 20G<62 84 84 84 433 455 455 455> 572 21<245.5 270.5 245.5 275> 675 21<245.5 270.5>
VStem: 62 22<234 243 243 526> 196 23<623 645 623 653> 297 23<623 645> 433 22<0 120 120 120 214 526 0 526>
LayerCount: 2
Fore
SplineSet
258 572 m 0xbf80
 224 572 196 596 196 634 c 0
 196 672 224 696 258 696 c 0
 292 696 320 672 320 634 c 0
 320 596 292 572 258 572 c 0xbf80
258 675 m 0
 233 675 219 656 219 634 c 0
 219 612 233 593 258 593 c 0
 283 593 297 612 297 634 c 0
 297 656 283 675 258 675 c 0
455 526 m 1
 455 0 l 1
 433 0 l 1x7f80
 433 120 l 1
 412 68 l 1
 373 13 312 -14 247 -14 c 0
 141 -14 77 45 66 148 c 0
 63 175 62 191 62 234 c 2
 62 526 l 1
 84 526 l 1
 84 243 l 2
 84 206 85 183 88 156 c 0
 98 67 147 7 247 7 c 0
 343 7 433 74 433 214 c 2
 433 526 l 1
 455 526 l 1
EndSplineSet
EndChar

StartChar: Uogonek
Encoding: 370 370 97
Width: 600
GlyphClass: 2
Flags: MW
HStem: -223 20<318.5 342> -14 21<246.5 318> 670 20G<90 112 112 112 512 534 534 534>
VStem: 90 22<233 690> 264 22<-169.5 -126> 512 22<229 233 233 690>
LayerCount: 2
Fore
SplineSet
534 690 m 1
 534 233 l 2
 534 218 533 197 531 166 c 0
 526 87 484 26 406 0 c 1
 337 -30 286 -84 286 -151 c 0
 286 -188 305 -203 332 -203 c 0
 355 -203 375 -194 397 -172 c 1
 397 -195 l 1
 378 -214 356 -223 328 -223 c 0
 296 -223 264 -208 264 -154 c 0
 264 -98 295 -47 346 -12 c 1
 335 -13 324 -14 312 -14 c 0
 174 -14 100 60 93 166 c 0
 91 197 90 218 90 233 c 2
 90 690 l 1
 112 690 l 1
 112 229 l 2
 112 206 113 188 115 167 c 0
 123 80 181 7 312 7 c 0
 443 7 501 80 509 167 c 0
 511 188 512 206 512 229 c 2
 512 690 l 1
 534 690 l 1
EndSplineSet
Position2: "'cpsp' Capital Spacing in Latin lookup 0 subtable" dx=5 dy=0 dh=10 dv=0
EndChar

StartChar: uogonek
Encoding: 371 371 212
Width: 526
GlyphClass: 2
Flags: MW
HStem: -223 20<356.5 380> -14 21<197 279.5> 0 13 506 20G<62 84 84 84 433 455 455 455>
VStem: 62 22<234 243 243 526> 302 22<-169.5 -117.5 -169.5 -117.5> 433 22<13 120 120 120 214 526 0 526>
LayerCount: 2
Fore
SplineSet
455 526 m 1xde
 455 0 l 1
 446 0 l 1
 374 -19 324 -84 324 -151 c 0
 324 -188 343 -203 370 -203 c 0
 393 -203 413 -194 435 -172 c 1
 435 -195 l 1
 416 -214 394 -223 366 -223 c 0
 334 -223 302 -208 302 -154 c 0
 302 -81 354 -11 433 13 c 1xbe
 433 120 l 1
 412 68 l 1
 373 13 312 -14 247 -14 c 0
 141 -14 77 45 66 148 c 0
 63 175 62 191 62 234 c 2
 62 526 l 1
 84 526 l 1
 84 243 l 2
 84 206 85 183 88 156 c 0
 98 67 147 7 247 7 c 0
 343 7 433 74 433 214 c 2
 433 526 l 1
 455 526 l 1xde
EndSplineSet
EndChar

StartChar: Wcircumflex
Encoding: 372 372 102
Width: 823
GlyphClass: 2
Flags: MW
HStem: 0 22<215 215 215 228 199 215> 656 24<427 427> 670 20G<26 49 49 49 804 826 826 826> 816 14<416 416>
VStem: 26 800<690 690>
LayerCount: 2
Fore
SplineSet
363 736 m 1xb8
 340 736 l 1
 405 830 l 1
 428 830 l 1
 493 736 l 1
 469 736 l 1
 416 816 l 1
 363 736 l 1xb8
826 690 m 1
 640 0 l 1
 612 0 l 1
 427 656 l 1xd8
 228 0 l 1
 199 0 l 1
 26 690 l 1
 49 690 l 1xb8
 215 22 l 1
 412 680 l 1
 442 680 l 1xd8
 626 24 l 1
 804 690 l 1
 826 690 l 1
EndSplineSet
Position2: "'cpsp' Capital Spacing in Latin lookup 0 subtable" dx=5 dy=0 dh=10 dv=0
EndChar

StartChar: wcircumflex
Encoding: 373 373 217
Width: 716
GlyphClass: 2
Flags: MW
HStem: 0 22<197 197 197 214 180 197> 499 25<364 364> 674 16<363 363>
VStem: 13 695<526 526>
LayerCount: 2
Fore
SplineSet
310 580 m 1
 287 580 l 1
 352 690 l 1
 375 690 l 1
 440 580 l 1
 416 580 l 1
 363 674 l 1
 310 580 l 1
708 526 m 1
 542 0 l 1
 514 0 l 1
 364 499 l 1
 214 0 l 1
 180 0 l 1
 13 526 l 1
 38 526 l 1
 197 22 l 1
 348 524 l 1
 379 524 l 1
 530 25 l 1
 684 526 l 1
 708 526 l 1
EndSplineSet
EndChar

StartChar: ycircumflex
Encoding: 375 375 223
Width: 457
GlyphClass: 2
Flags: MW
HStem: -210 20<72.5 99 72.5 104> 506 20G<13 38 38 38 424 449 449 449> 674 16<230 230>
VStem: 13 436<526 526>
LayerCount: 2
Fore
SplineSet
177 580 m 1
 154 580 l 1
 219 690 l 1
 242 690 l 1
 307 580 l 1
 283 580 l 1
 230 674 l 1
 177 580 l 1
449 526 m 1
 246 0 l 2
 175 -185 133 -210 75 -210 c 0
 61 -210 51 -209 40 -206 c 1
 40 -186 l 1
 53 -189 66 -190 79 -190 c 0
 119 -190 157 -162 202 -52 c 2
 219 -10 l 1
 13 526 l 1
 38 526 l 1
 231 18 l 1
 424 526 l 1
 449 526 l 1
EndSplineSet
EndChar

StartChar: Ydieresis
Encoding: 376 376 109
Width: 545
GlyphClass: 2
Flags: MW
HStem: 0 21G<268 290 268 268> 670 20G<23 49 49 49 509 536 536 536> 763 40<238.5 249.5 308.5 319.5>
VStem: 244 70<763 763 803 803> 268 22<0 282 0 282>
LayerCount: 2
Fore
SplineSet
244 763 m 0xf0
 233 763 224 772 224 783 c 0
 224 794 233 803 244 803 c 0
 255 803 264 794 264 783 c 0
 264 772 255 763 244 763 c 0xf0
314 763 m 0
 303 763 294 772 294 783 c 0
 294 794 303 803 314 803 c 0
 325 803 334 794 334 783 c 0
 334 772 325 763 314 763 c 0
290 282 m 1xe8
 290 0 l 1
 268 0 l 1
 268 282 l 1
 23 690 l 1
 49 690 l 1
 280 305 l 1
 509 690 l 1
 536 690 l 1
 290 282 l 1xe8
EndSplineSet
Position2: "'cpsp' Capital Spacing in Latin lookup 0 subtable" dx=5 dy=0 dh=10 dv=0
EndChar

StartChar: Zacute
Encoding: 377 377 112
Width: 537
GlyphClass: 2
Flags: MW
HStem: 0 21<64 512 64 512> 669 21<64 480 64 506> 669 161<315 343 315 480>
VStem: 36 476<0 17 17 17>
LayerCount: 2
Fore
SplineSet
281 736 m 1xb0
 262 736 l 1
 315 830 l 1
 343 830 l 1
 281 736 l 1xb0
512 21 m 1
 512 0 l 1
 36 0 l 1
 36 17 l 1
 480 669 l 1
 64 669 l 1
 64 690 l 1
 506 690 l 1
 506 670 l 1xd0
 64 21 l 1
 512 21 l 1
EndSplineSet
Position2: "'cpsp' Capital Spacing in Latin lookup 0 subtable" dx=5 dy=0 dh=10 dv=0
EndChar

StartChar: zacute
Encoding: 378 378 227
Width: 444
GlyphClass: 2
Flags: MW
HStem: 0 19<41 422 41 422> 497 21<40 390 40 419> 497 193<270 298 270 390> 580 110<210 298 210 298>
VStem: 13 409<0 18 18 18>
LayerCount: 2
Fore
SplineSet
229 580 m 1xd8
 210 580 l 1xd8
 270 690 l 1
 298 690 l 1xa8
 229 580 l 1xd8
422 19 m 1
 422 0 l 1
 13 0 l 1
 13 18 l 1
 390 497 l 1
 40 497 l 1
 40 518 l 1
 419 518 l 1
 419 498 l 1
 41 19 l 1
 422 19 l 1
EndSplineSet
EndChar

StartChar: Zdotaccent
Encoding: 379 379 114
Width: 537
GlyphClass: 2
Flags: MW
HStem: 0 21<64 512 64 512> 669 21<64 480 64 506> 763 40<268.5 279.5>
VStem: 36 476<0 17 17 17>
LayerCount: 2
Fore
SplineSet
274 763 m 0
 263 763 254 772 254 783 c 0
 254 794 263 803 274 803 c 0
 285 803 294 794 294 783 c 0
 294 772 285 763 274 763 c 0
512 21 m 1
 512 0 l 1
 36 0 l 1
 36 17 l 1
 480 669 l 1
 64 669 l 1
 64 690 l 1
 506 690 l 1
 506 670 l 1
 64 21 l 1
 512 21 l 1
EndSplineSet
Position2: "'cpsp' Capital Spacing in Latin lookup 0 subtable" dx=5 dy=0 dh=10 dv=0
EndChar

StartChar: zdotaccent
Encoding: 380 380 229
Width: 444
GlyphClass: 2
Flags: MW
HStem: 0 19<41 422 41 422> 497 21<40 390 40 419> 613 40<216.5 227.5>
VStem: 13 409<0 18 18 18>
LayerCount: 2
Fore
SplineSet
222 613 m 0
 211 613 202 622 202 633 c 0
 202 644 211 653 222 653 c 0
 233 653 242 644 242 633 c 0
 242 622 233 613 222 613 c 0
422 19 m 1
 422 0 l 1
 13 0 l 1
 13 18 l 1
 390 497 l 1
 40 497 l 1
 40 518 l 1
 419 518 l 1
 419 498 l 1
 41 19 l 1
 422 19 l 1
EndSplineSet
EndChar

StartChar: Zcaron
Encoding: 381 381 113
Width: 537
GlyphClass: 2
Flags: MW
HStem: 0 21<64 512 64 512> 669 21<64 480 64 506> 669 161<198 222 328 351 198 480 64 222> 736 14<263 275 275 275 275 286>
VStem: 36 476<0 17 17 17>
LayerCount: 2
Fore
SplineSet
263 736 m 1xd8
 198 830 l 1
 222 830 l 1xa8
 275 750 l 1xd8
 328 830 l 1
 351 830 l 1xa8
 286 736 l 1
 263 736 l 1xd8
512 21 m 1
 512 0 l 1
 36 0 l 1
 36 17 l 1
 480 669 l 1
 64 669 l 1
 64 690 l 1
 506 690 l 1
 506 670 l 1xd8
 64 21 l 1
 512 21 l 1
EndSplineSet
Position2: "'cpsp' Capital Spacing in Latin lookup 0 subtable" dx=5 dy=0 dh=10 dv=0
EndChar

StartChar: zcaron
Encoding: 382 382 228
Width: 444
GlyphClass: 2
Flags: MW
HStem: 0 19<41 422 41 422> 497 21<40 390 40 419> 497 193<146 170 276 299 146 390 40 170> 580 16<211 223 223 223 223 234>
VStem: 13 409<0 18 18 18>
LayerCount: 2
Fore
SplineSet
211 580 m 1xd8
 146 690 l 1
 170 690 l 1xa8
 223 596 l 1xd8
 276 690 l 1
 299 690 l 1xa8
 234 580 l 1
 211 580 l 1xd8
422 19 m 1
 422 0 l 1
 13 0 l 1
 13 18 l 1
 390 497 l 1
 40 497 l 1
 40 518 l 1
 419 518 l 1
 419 498 l 1xd8
 41 19 l 1
 422 19 l 1
EndSplineSet
EndChar

StartChar: Scommaaccent
Encoding: 536 536 84
Width: 560
GlyphClass: 2
Flags: MW
HStem: -173 122<225 293 225 293> -14 21<228 340.5 228 347.5> 683 21<239 331.5>
VStem: 39 22<180 180> 71 24<483.5 581.5> 483 24<118.5 214.5>
AnchorPoint: "Anchor-0" 280 0 basechar 0
LayerCount: 2
Fore
SplineSet
284 704 m 0
 413 704 482 617 495 514 c 1
 473 514 l 1
 455 620 380 683 283 683 c 0
 195 683 95 632 95 533 c 0x6c
 95 434 156 403 294 363 c 0
 437 322 507 275 507 167 c 0
 507 65 412 -14 283 -14 c 0
 162 -14 53 47 39 180 c 1
 61 180 l 1x7c
 74 67 172 7 284 7 c 0
 397 7 483 72 483 165 c 0
 483 264 424 301 284 341 c 0
 136 383 71 425 71 531 c 0
 71 632 170 704 284 704 c 0
293 -56 m 1xec
 244 -173 l 1
 225 -173 l 1
 268 -51 l 1
 293 -51 l 1
 293 -56 l 1xec
EndSplineSet
Position2: "'cpsp' Capital Spacing in Latin lookup 0 subtable" dx=5 dy=0 dh=10 dv=0
EndChar

StartChar: scommaaccent
Encoding: 537 537 198
Width: 435
GlyphClass: 2
Flags: MW
HStem: -173 122<168 236 168 236> -14 21<179 264.5 179 272.5> 519 21<177.5 257>
VStem: 26 22<156 156> 51 23<362 437.5 362 438.5> 375 23<85 159.5>
AnchorPoint: "Anchor-0" 223 0 basechar 0
LayerCount: 2
Fore
SplineSet
215 540 m 0
 324 540 379 470 393 383 c 1
 371 383 l 1
 349 475 300 519 214 519 c 0
 141 519 74 476 74 399 c 0x6c
 74 325 133 296 217 277 c 0
 338 250 398 212 398 124 c 0
 398 40 324 -14 221 -14 c 0
 123 -14 39 36 26 156 c 1
 48 156 l 1x74
 65 45 135 7 223 7 c 0
 306 7 375 47 375 123 c 0
 375 196 333 227 207 256 c 0
 124 275 51 309 51 398 c 0
 51 479 119 540 215 540 c 0
236 -56 m 1xec
 187 -173 l 1
 168 -173 l 1
 211 -51 l 1
 236 -51 l 1
 236 -56 l 1xec
EndSplineSet
EndChar

StartChar: uni021A
Encoding: 538 538 89
Width: 580
GlyphClass: 2
Flags: MW
HStem: -173 122<252 320 252 320> 0 21G<296 318 296 296> 670 20<32 296 32 582 318 582 318 318>
VStem: 296 22<0 670 0 670>
AnchorPoint: "Anchor-0" 307 0 basechar 0
LayerCount: 2
Fore
SplineSet
582 690 m 1
 582 670 l 1
 318 670 l 1
 318 0 l 1
 296 0 l 1
 296 670 l 1
 32 670 l 1
 32 690 l 1
 582 690 l 1
295 -51 m 1
 320 -51 l 1
 320 -56 l 1
 271 -173 l 1
 252 -173 l 1
 295 -51 l 1
EndSplineSet
Position2: "'cpsp' Capital Spacing in Latin lookup 0 subtable" dx=5 dy=0 dh=10 dv=0
EndChar

StartChar: uni021B
Encoding: 539 539 204
Width: 236
GlyphClass: 2
Flags: MW
HStem: -173 122<102 170 102 170> -7 17.96 504 18<28 91 28 91 113 216>
VStem: 91 22<132 504 522 630>
AnchorPoint: "Anchor-0" 157 0 basechar 0
LayerCount: 2
Fore
SplineSet
114 71 m 0
 118 19 141 3 219 14 c 1
 219 -4 l 1
 206 -6 186 -7 169 -7 c 0
 122 -7 97 15 93 61 c 0
 91 85 91 102 91 132 c 2
 91 504 l 1
 28 504 l 1
 28 522 l 1
 91 522 l 1
 91 630 l 1
 113 630 l 1
 113 522 l 1
 216 522 l 1
 216 504 l 1
 113 504 l 1
 113 128 l 2
 113 100 113 85 114 71 c 0
145 -51 m 1
 170 -51 l 1
 170 -56 l 1
 121 -173 l 1
 102 -173 l 1
 145 -51 l 1
EndSplineSet
EndChar

StartChar: circumflex
Encoding: 710 710 328
Width: 300
Flags: MW
HStem: 674 16<150 150>
VStem: 74 153<580 580>
LayerCount: 2
Fore
SplineSet
203 580 m 1
 150 674 l 1
 97 580 l 1
 74 580 l 1
 139 690 l 1
 162 690 l 1
 227 580 l 1
 203 580 l 1
EndSplineSet
EndChar

StartChar: caron
Encoding: 711 711 326
Width: 300
Flags: MW
HStem: 580 16<151 151 151 162 139 151> 670 20G<74 98 98 98 204 227 227 227>
VStem: 74 153<690 690>
LayerCount: 2
Fore
SplineSet
227 690 m 1
 162 580 l 1
 139 580 l 1
 74 690 l 1
 98 690 l 1
 151 596 l 1
 204 690 l 1
 227 690 l 1
EndSplineSet
EndChar

StartChar: breve
Encoding: 728 728 325
Width: 300
Flags: MW
HStem: 570 21<127 173 127 180.5> 670 20G<59 77 77 77 222 240 240 240>
VStem: 59 18<653.5 690> 222 18<653.5 690>
LayerCount: 2
Fore
SplineSet
222 690 m 1
 240 690 l 1
 240 617 211 570 150 570 c 0
 88 570 59 617 59 690 c 1
 77 690 l 1
 78 628 104 591 150 591 c 0
 196 591 221 628 222 690 c 1
EndSplineSet
EndChar

StartChar: dotaccent
Encoding: 729 729 330
Width: 300
Flags: MW
HStem: 613 40<144.5 155.5>
VStem: 130 40<627.5 638.5>
LayerCount: 2
Fore
SplineSet
150 653 m 0
 161 653 170 644 170 633 c 0
 170 622 161 613 150 613 c 0
 139 613 130 622 130 633 c 0
 130 644 139 653 150 653 c 0
EndSplineSet
EndChar

StartChar: ring
Encoding: 730 730 335
Width: 300
Flags: MW
HStem: 572 21<137.5 162.5 137.5 167> 675 21<137.5 162.5>
VStem: 88 23<623 645 623 653> 189 23<623 645>
LayerCount: 2
Fore
SplineSet
150 696 m 0
 184 696 212 672 212 634 c 0
 212 596 184 572 150 572 c 0
 116 572 88 596 88 634 c 0
 88 672 116 696 150 696 c 0
150 675 m 0
 125 675 111 656 111 634 c 0
 111 612 125 593 150 593 c 0
 175 593 189 612 189 634 c 0
 189 656 175 675 150 675 c 0
EndSplineSet
EndChar

StartChar: ogonek
Encoding: 731 731 334
Width: 300
Flags: MW
HStem: -223 20<73.5 97> 0 21G<163 163>
VStem: 19 22<-169.5 -117.5 -169.5 -117.5>
LayerCount: 2
Fore
SplineSet
150 13 m 1
 163 0 l 1
 91 -19 41 -84 41 -151 c 0
 41 -188 60 -203 87 -203 c 0
 110 -203 130 -194 152 -172 c 1
 152 -195 l 1
 133 -214 111 -223 83 -223 c 0
 51 -223 19 -208 19 -154 c 0
 19 -81 71 -11 150 13 c 1
EndSplineSet
EndChar

StartChar: tilde
Encoding: 732 732 336
Width: 300
Flags: MW
HStem: 626 20<197.5 207 197.5 214> 651 20<93 102.5>
VStem: 62 20<630 637.5 630 643> 218 20<659.5 667>
LayerCount: 2
Fore
SplineSet
98 671 m 0
 114 671 128 667 155 658 c 0
 179 650 193 646 202 646 c 0
 212 646 218 652 218 667 c 1
 238 667 l 1
 238 641 226 626 202 626 c 0xb0
 186 626 172 630 145 639 c 0
 121 647 107 651 98 651 c 0
 88 651 82 645 82 630 c 1
 62 630 l 1
 62 656 74 671 98 671 c 0
EndSplineSet
EndChar

StartChar: hungarumlaut
Encoding: 733 733 332
Width: 300
Flags: MW
HStem: 580 110<86 174 86 174 146 186 146 205>
VStem: 86 188<580 690>
LayerCount: 2
Fore
SplineSet
105 580 m 1
 86 580 l 1
 146 690 l 1
 174 690 l 1
 105 580 l 1
205 580 m 1
 186 580 l 1
 246 690 l 1
 274 690 l 1
 205 580 l 1
EndSplineSet
EndChar

StartChar: uni0326
Encoding: 806 806 337
Width: 0
GlyphClass: 4
Flags: MW
HStem: -173 122<95 163 95 163>
VStem: 95 68
AnchorPoint: "Anchor-0" 150 0 mark 0
LayerCount: 2
Fore
SplineSet
163 -56 m 1
 114 -173 l 1
 95 -173 l 1
 138 -51 l 1
 163 -51 l 1
 163 -56 l 1
EndSplineSet
EndChar

StartChar: Wgrave
Encoding: 7808 7808 104
Width: 823
GlyphClass: 2
Flags: MW
HStem: 0 22<215 215 215 228 199 215> 656 24<427 427> 670 20G<26 49 49 49 804 826 826 826> 736 94<344 406 344 425>
VStem: 26 800<690 690>
LayerCount: 2
Fore
SplineSet
406 736 m 1xb8
 344 830 l 1
 372 830 l 1
 425 736 l 1
 406 736 l 1xb8
826 690 m 1
 640 0 l 1
 612 0 l 1
 427 656 l 1xd8
 228 0 l 1
 199 0 l 1
 26 690 l 1
 49 690 l 1xb8
 215 22 l 1
 412 680 l 1
 442 680 l 1xd8
 626 24 l 1
 804 690 l 1
 826 690 l 1
EndSplineSet
Position2: "'cpsp' Capital Spacing in Latin lookup 0 subtable" dx=5 dy=0 dh=10 dv=0
EndChar

StartChar: wacute
Encoding: 7811 7811 216
Width: 716
GlyphClass: 2
Flags: MW
HStem: 0 22<197 197 197 214 180 197> 499 25<364 364> 580 110<351 439 351 439>
VStem: 13 695<526 526>
LayerCount: 2
Fore
SplineSet
370 580 m 1
 351 580 l 1
 411 690 l 1
 439 690 l 1
 370 580 l 1
708 526 m 1
 542 0 l 1
 514 0 l 1
 364 499 l 1
 214 0 l 1
 180 0 l 1
 13 526 l 1
 38 526 l 1
 197 22 l 1
 348 524 l 1
 379 524 l 1
 530 25 l 1
 684 526 l 1
 708 526 l 1
EndSplineSet
EndChar

StartChar: Wdieresis
Encoding: 7812 7812 103
Width: 823
GlyphClass: 2
Flags: MW
HStem: 0 22<215 215 215 228 199 215> 656 24<427 427> 670 20G<26 49 49 49 804 826 826 826> 763 40<375.5 386.5 445.5 456.5>
VStem: 381 70<763 763 803 803>
LayerCount: 2
Fore
SplineSet
381 763 m 0xb8
 370 763 361 772 361 783 c 0
 361 794 370 803 381 803 c 0
 392 803 401 794 401 783 c 0
 401 772 392 763 381 763 c 0xb8
451 763 m 0
 440 763 431 772 431 783 c 0
 431 794 440 803 451 803 c 0
 462 803 471 794 471 783 c 0
 471 772 462 763 451 763 c 0
826 690 m 1
 640 0 l 1
 612 0 l 1
 427 656 l 1xd8
 228 0 l 1
 199 0 l 1
 26 690 l 1
 49 690 l 1xb8
 215 22 l 1
 412 680 l 1
 442 680 l 1xd8
 626 24 l 1
 804 690 l 1
 826 690 l 1
EndSplineSet
Position2: "'cpsp' Capital Spacing in Latin lookup 0 subtable" dx=5 dy=0 dh=10 dv=0
EndChar

StartChar: wdieresis
Encoding: 7813 7813 218
Width: 716
GlyphClass: 2
Flags: MW
HStem: 0 22<197 197 197 214 180 197> 499 25<364 364> 613 40<317.5 328.5 397.5 408.5>
VStem: 323 80<613 613 653 653>
LayerCount: 2
Fore
SplineSet
323 613 m 0
 312 613 303 622 303 633 c 0
 303 644 312 653 323 653 c 0
 334 653 343 644 343 633 c 0
 343 622 334 613 323 613 c 0
403 613 m 0
 392 613 383 622 383 633 c 0
 383 644 392 653 403 653 c 0
 414 653 423 644 423 633 c 0
 423 622 414 613 403 613 c 0
708 526 m 1
 542 0 l 1
 514 0 l 1
 364 499 l 1
 214 0 l 1
 180 0 l 1
 13 526 l 1
 38 526 l 1
 197 22 l 1
 348 524 l 1
 379 524 l 1
 530 25 l 1
 684 526 l 1
 708 526 l 1
EndSplineSet
EndChar

StartChar: Ygrave
Encoding: 7922 7922 110
Width: 545
GlyphClass: 2
Flags: MW
HStem: 0 21G<268 290 268 268> 670 20G<23 49 49 49 509 536 536 536> 736 94<207 269 207 288>
VStem: 268 22<0 282 0 282>
LayerCount: 2
Fore
SplineSet
269 736 m 1
 207 830 l 1
 235 830 l 1
 288 736 l 1
 269 736 l 1
290 282 m 1
 290 0 l 1
 268 0 l 1
 268 282 l 1
 23 690 l 1
 49 690 l 1
 280 305 l 1
 509 690 l 1
 536 690 l 1
 290 282 l 1
EndSplineSet
Position2: "'cpsp' Capital Spacing in Latin lookup 0 subtable" dx=5 dy=0 dh=10 dv=0
EndChar

StartChar: ygrave
Encoding: 7923 7923 225
Width: 457
GlyphClass: 2
Flags: MW
HStem: -210 20<72.5 99 72.5 104> 506 20G<13 38 38 38 424 449 449 449> 580 110<156 225 156 244>
VStem: 13 436<526 526>
LayerCount: 2
Fore
SplineSet
225 580 m 1
 156 690 l 1
 184 690 l 1
 244 580 l 1
 225 580 l 1
449 526 m 1
 246 0 l 2
 175 -185 133 -210 75 -210 c 0
 61 -210 51 -209 40 -206 c 1
 40 -186 l 1
 53 -189 66 -190 79 -190 c 0
 119 -190 157 -162 202 -52 c 2
 219 -10 l 1
 13 526 l 1
 38 526 l 1
 231 18 l 1
 424 526 l 1
 449 526 l 1
EndSplineSet
EndChar

StartChar: endash
Encoding: 8211 8211 268
Width: 500
Flags: MW
HStem: 280 21<70 430 70 430>
VStem: 70 360<280 301 280 301>
LayerCount: 2
Fore
SplineSet
430 280 m 1
 70 280 l 1
 70 301 l 1
 430 301 l 1
 430 280 l 1
EndSplineSet
EndChar

StartChar: emdash
Encoding: 8212 8212 267
Width: 1000
Flags: MW
HStem: 280 21<70 930 70 930>
VStem: 70 860<280 301 280 301>
LayerCount: 2
Fore
SplineSet
930 280 m 1
 70 280 l 1
 70 301 l 1
 930 301 l 1
 930 280 l 1
EndSplineSet
EndChar

StartChar: quoteleft
Encoding: 8216 8216 277
Width: 114
Flags: MW
HStem: 715 20G<88 108 108 108>
VStem: 14 94
LayerCount: 2
Fore
SplineSet
14 496 m 1
 88 735 l 1
 108 735 l 1
 38 491 l 1
 15 491 l 1
 14 496 l 1
EndSplineSet
EndChar

StartChar: quoteright
Encoding: 8217 8217 278
Width: 114
Flags: MW
HStem: 715 20G<76 99 99 99>
VStem: 6 94
LayerCount: 2
Fore
SplineSet
100 730 m 1
 26 491 l 1
 6 491 l 1
 76 735 l 1
 99 735 l 1
 100 730 l 1
EndSplineSet
EndChar

StartChar: quotedblleft
Encoding: 8220 8220 275
Width: 204
Flags: MW
HStem: 715 20G<88 108 108 108 178 198 198 198>
VStem: 14 184
LayerCount: 2
Fore
SplineSet
14 496 m 1
 88 735 l 1
 108 735 l 1
 38 491 l 1
 15 491 l 1
 14 496 l 1
104 496 m 1
 178 735 l 1
 198 735 l 1
 128 491 l 1
 105 491 l 1
 104 496 l 1
EndSplineSet
EndChar

StartChar: quotedblright
Encoding: 8221 8221 276
Width: 204
Flags: MW
HStem: 715 20G<76 99 99 99 166 189 189 189>
VStem: 6 184
LayerCount: 2
Fore
SplineSet
100 730 m 1
 26 491 l 1
 6 491 l 1
 76 735 l 1
 99 735 l 1
 100 730 l 1
190 730 m 1
 116 491 l 1
 96 491 l 1
 166 735 l 1
 189 735 l 1
 190 730 l 1
EndSplineSet
EndChar

StartChar: quotedblbase
Encoding: 8222 8222 274
Width: 220
Flags: MW
HStem: -116 140<-2 67 -2 67 44 68 44 87>
VStem: -2 140<-116 19>
LayerCount: 2
Fore
SplineSet
68 19 m 1
 17 -116 l 1
 -2 -116 l 1
 44 24 l 1
 67 24 l 1
 68 19 l 1
138 19 m 1
 87 -116 l 1
 68 -116 l 1
 114 24 l 1
 137 24 l 1
 138 19 l 1
EndSplineSet
EndChar

StartChar: dagger
Encoding: 8224 8224 317
Width: 550
Flags: MW
HStem: 403.5 22 670 20G<262 288 288 288>
VStem: 263.5 24
LayerCount: 2
Fore
SplineSet
474 403 m 1
 287 404 l 1
 288 -160 l 1
 264 -160 l 1
 263 404 l 1
 76 403 l 1
 76 426 l 1
 263 425 l 1
 262 690 l 1
 288 690 l 1
 287 425 l 1
 474 426 l 1
 474 403 l 1
EndSplineSet
EndChar

StartChar: daggerdbl
Encoding: 8225 8225 318
Width: 550
Flags: MW
HStem: 102.5 22 403.5 22 670 20G<262 288 288 288>
VStem: 263 24<103 103 124 404>
LayerCount: 2
Fore
SplineSet
287 404 m 1
 287 124 l 1
 474 125 l 1
 474 102 l 1
 287 103 l 1
 288 -160 l 1
 264 -160 l 1
 263 103 l 1
 76 102 l 1
 76 125 l 1
 263 124 l 1
 263 404 l 1
 76 403 l 1
 76 426 l 1
 263 425 l 1
 262 690 l 1
 288 690 l 1
 287 425 l 1
 474 426 l 1
 474 403 l 1
 287 404 l 1
EndSplineSet
EndChar

StartChar: bullet
Encoding: 8226 8226 245
Width: 174
Flags: MW
HStem: 260 90<74 100>
VStem: 42 90<292 318>
LayerCount: 2
Fore
SplineSet
87 350 m 0
 113 350 132 331 132 305 c 0
 132 279 113 260 87 260 c 0
 61 260 42 279 42 305 c 0
 42 331 61 350 87 350 c 0
EndSplineSet
EndChar

StartChar: ellipsis
Encoding: 8230 8230 248
Width: 350
Flags: MW
HStem: -14 40<54.5 65.5 154.5 165.5 254.5 265.5>
VStem: 60 100<-14 -14 26 26> 160 100<-14 -14 26 26>
LayerCount: 2
Fore
SplineSet
60 26 m 0xc0
 71 26 80 17 80 6 c 0
 80 -5 71 -14 60 -14 c 0
 49 -14 40 -5 40 6 c 0
 40 17 49 26 60 26 c 0xc0
160 26 m 0
 171 26 180 17 180 6 c 0xc0
 180 -5 171 -14 160 -14 c 0
 149 -14 140 -5 140 6 c 0xa0
 140 17 149 26 160 26 c 0
260 26 m 0xa0
 271 26 280 17 280 6 c 0
 280 -5 271 -14 260 -14 c 0
 249 -14 240 -5 240 6 c 0
 240 17 249 26 260 26 c 0xa0
EndSplineSet
EndChar

StartChar: perthousand
Encoding: 8240 8240 304
Width: 1006
Flags: MW
HStem: -14 21<466 534 466 540 773 841> 0 21G<113 139 113 113> 283 21<466 534 773 841> 386 21<165 233 165 239> 670 20G<560 586 586 586> 683 21<165 233>
VStem: 71 24<505 585.5 505 590> 303 24<505 585.5> 372 24<105 185.5 105 190> 604 24<105 185.5> 679 24<105 185.5 105 190> 911 24<105 185.5>
LayerCount: 2
Fore
SplineSet
199 386 m 0xb7f0
 119 386 71 457 71 545 c 0
 71 635 119 704 199 704 c 0
 279 704 327 635 327 545 c 0
 327 457 279 386 199 386 c 0xb7f0
586 690 m 1x4a
 139 0 l 1
 113 0 l 1
 560 690 l 1
 586 690 l 1x4a
199 683 m 0xb7f0
 131 683 95 626 95 545 c 0
 95 465 131 407 199 407 c 0
 267 407 303 465 303 545 c 0
 303 626 267 683 199 683 c 0xb7f0
500 304 m 0
 580 304 628 235 628 145 c 0
 628 57 580 -14 500 -14 c 0
 420 -14 372 57 372 145 c 0
 372 235 420 304 500 304 c 0
807 304 m 0
 887 304 935 235 935 145 c 0
 935 57 887 -14 807 -14 c 0
 727 -14 679 57 679 145 c 0
 679 235 727 304 807 304 c 0
500 7 m 0
 568 7 604 65 604 145 c 0
 604 226 568 283 500 283 c 0
 432 283 396 226 396 145 c 0
 396 65 432 7 500 7 c 0
807 7 m 0
 875 7 911 65 911 145 c 0
 911 226 875 283 807 283 c 0
 739 283 703 226 703 145 c 0
 703 65 739 7 807 7 c 0
EndSplineSet
EndChar

StartChar: guilsinglleft
Encoding: 8249 8249 272
Width: 382
Flags: MW
HStem: 82 332<276 305 276 305>
VStem: 139 166
LayerCount: 2
Fore
SplineSet
305 414 m 1
 168 248 l 1
 305 82 l 1
 276 82 l 1
 139 248 l 1
 276 414 l 1
 305 414 l 1
EndSplineSet
EndChar

StartChar: guilsinglright
Encoding: 8250 8250 273
Width: 382
Flags: MW
HStem: 82 332<77 106 77 106>
VStem: 77 166
LayerCount: 2
Fore
SplineSet
243 248 m 1
 106 82 l 1
 77 82 l 1
 214 248 l 1
 77 414 l 1
 106 414 l 1
 243 248 l 1
EndSplineSet
EndChar

StartChar: fraction
Encoding: 8260 8260 242
Width: 73
Flags: MW
HStem: 0 21G<-200 -174 -200 -200> 670 20G<247 273 273 273>
VStem: -200 473
LayerCount: 2
Fore
SplineSet
-174 0 m 1
 -200 0 l 1
 247 690 l 1
 273 690 l 1
 -174 0 l 1
EndSplineSet
EndChar

StartChar: Euro
Encoding: 8364 8364 284
Width: 530
Flags: MW
HStem: -14 21<263 352.5> 280 21<6 68 6 69 -4 68 93 414 93 93> 390 21<31 69 21 70 94 453> 683 21<276.5 364>
VStem: 67 25
LayerCount: 2
Fore
SplineSet
331 683 m 0
 222 683 113 609 94 411 c 1
 464 411 l 1
 453 390 l 1
 92 390 l 1
 91 376 91 361 91 346 c 0
 91 330 91 315 92 301 c 1
 423 301 l 1
 414 280 l 1
 93 280 l 1
 109 91 192 7 334 7 c 0
 384 7 430 19 474 47 c 1
 474 23 l 1
 425 -5 376 -14 329 -14 c 0
 176 -14 84 78 69 280 c 1
 -4 280 l 1
 6 301 l 1
 68 301 l 1
 67 314 67 328 67 342 c 0
 67 359 68 375 69 390 c 1
 21 390 l 1
 31 411 l 1
 70 411 l 1
 90 608 195 704 333 704 c 0
 407 704 452 687 496 644 c 1
 481 628 l 1
 439 669 397 683 331 683 c 0
EndSplineSet
EndChar

StartChar: trademark
Encoding: 8482 8482 323
Width: 517
Flags: MW
HStem: 458 17<343 343 343 354 330 343> 641 19<24 108 24 214 130 214 130 130>
VStem: 108 22<456 641 456 641> 241 19.5 424 19
LayerCount: 2
Fore
SplineSet
214 660 m 1
 214 641 l 1
 130 641 l 1
 130 456 l 1
 108 456 l 1
 108 641 l 1
 24 641 l 1
 24 660 l 1
 214 660 l 1
443 659 m 1
 443 456 l 1
 423 456 l 1
 425 641 l 1
 354 458 l 1
 330 458 l 1
 260 640 l 1
 261 456 l 1
 241 456 l 1
 241 659 l 1
 272 659 l 1
 343 475 l 1
 414 659 l 1
 443 659 l 1
EndSplineSet
EndChar

StartChar: partialdiff
Encoding: 8706 8706 302
Width: 530
Flags: MW
HStem: -14 21<197 308 197 323.5> 436 21<211 303> 683 20G<90 90> 737 21<214.5 314>
VStem: 50 24<146 275 146 285> 441 24
LayerCount: 2
Fore
SplineSet
244 758 m 0
 416 758 465 564 465 323 c 0
 465 116 401 -14 246 -14 c 0
 129 -14 50 77 50 207 c 0
 50 363 145 457 271 457 c 0
 351 457 411 413 441 357 c 1
 438 564 387 737 241 737 c 0
 187 737 146 723 103 687 c 1
 90 703 l 1
 138 743 185 758 244 758 c 0
246 7 m 0
 370 7 438 98 441 319 c 1
 404 403 334 436 272 436 c 0
 150 436 74 341 74 209 c 0
 74 83 148 7 246 7 c 0
EndSplineSet
EndChar

StartChar: emptyset
Encoding: 8709 8709 290
Width: 838
Flags: MW
HStem: -15 21<373.5 511.5 373.5 518> 671 20G<770 770> 704 21<326.5 464.5>
VStem: 55 24<308.5 454.5 308.5 460.5> 759 24<255.5 401.5>
LayerCount: 2
Fore
SplineSet
770 691 m 1
 686 607 l 1xf8
 746 542 783 454 783 355 c 0
 783 144 617 -15 419 -15 c 0
 322 -15 232 23 166 87 c 1
 83 4 l 1
 68 19 l 1
 152 103 l 1
 92 168 55 256 55 355 c 0
 55 566 221 725 419 725 c 0xb8
 516 725 606 687 672 623 c 1
 755 706 l 1
 770 691 l 1
79 355 m 0
 79 262 113 180 168 119 c 1
 656 607 l 1
 594 668 510 704 419 704 c 0xb8
 234 704 79 554 79 355 c 0
419 6 m 0xb8
 604 6 759 156 759 355 c 0
 759 448 725 530 670 591 c 1
 182 103 l 1
 244 42 328 6 419 6 c 0xb8
EndSplineSet
EndChar

StartChar: product
Encoding: 8719 8719 307
Width: 530
Flags: MW
HStem: 669 21<43 99 43 487 121 409 121 121 431 487 431 431>
VStem: 99 22<-110 669 -110 669> 409 22<-110 669 -110 669>
LayerCount: 2
Fore
SplineSet
487 669 m 1
 431 669 l 1
 431 -110 l 1
 409 -110 l 1
 409 669 l 1
 121 669 l 1
 121 -110 l 1
 99 -110 l 1
 99 669 l 1
 43 669 l 1
 43 690 l 1
 487 690 l 1
 487 669 l 1
EndSplineSet
EndChar

StartChar: summation
Encoding: 8721 8721 309
Width: 530
Flags: MW
HStem: -110 21<56 497 56 497> 669 21<85 491 85 85>
VStem: 28 469<-110 -90 -90 -90>
LayerCount: 2
Fore
SplineSet
497 -89 m 1
 497 -110 l 1
 28 -110 l 1
 28 -90 l 1
 316 301 l 1
 58 670 l 1
 58 690 l 1
 491 690 l 1
 491 669 l 1
 85 669 l 1
 343 300 l 1
 56 -89 l 1
 497 -89 l 1
EndSplineSet
EndChar

StartChar: minus
Encoding: 8722 8722 299
Width: 530
Flags: MW
HStem: 307 21<65 465 65 465>
VStem: 65 400<307 328 307 328>
LayerCount: 2
Fore
SplineSet
465 307 m 1
 65 307 l 1
 65 328 l 1
 465 328 l 1
 465 307 l 1
EndSplineSet
EndChar

StartChar: radical
Encoding: 8730 8730 308
Width: 530
Flags: MW
HStem: -160 17<256 256 256 273 240 256> 289 21<42 108 42 124>
VStem: 42 450
LayerCount: 2
Fore
SplineSet
492 780 m 1
 273 -160 l 1
 240 -160 l 1
 108 289 l 1
 42 289 l 1
 42 310 l 1
 124 310 l 1
 256 -143 l 1
 469 780 l 1
 492 780 l 1
EndSplineSet
EndChar

StartChar: infinity
Encoding: 8734 8734 294
Width: 994
Flags: MW
HStem: -14 21<210 310 210 321.5 684 784> 523 21<210 310 684 784>
VStem: 30 24<181 347.5> 483 28<265 265> 940 24<181 347.5 181 352.5>
LayerCount: 2
Fore
SplineSet
732 544 m 0
 870 544 964 431 964 264 c 0
 964 98 870 -14 732 -14 c 0
 613 -14 531 62 496 213 c 1
 466 62 381 -14 262 -14 c 0
 124 -14 30 98 30 264 c 0
 30 431 124 544 262 544 c 0
 381 544 463 468 498 318 c 1
 525 465 613 544 732 544 c 0
262 7 m 0
 358 7 467 71 483 265 c 1
 457 459 358 523 262 523 c 0
 158 523 54 441 54 264 c 0
 54 88 158 7 262 7 c 0
732 7 m 0
 836 7 940 88 940 264 c 0
 940 441 836 523 732 523 c 0
 636 523 526 459 511 265 c 1
 536 71 636 7 732 7 c 0
EndSplineSet
EndChar

StartChar: integral
Encoding: 8747 8747 295
Width: 530
Flags: MW
HStem: -160 21<205 231.5 205 233.5> 733 21<275.5 302>
VStem: 205 24<568 642 568 658.5> 278 24<-48 26>
LayerCount: 2
Fore
SplineSet
295 754 m 0
 317 754 340 745 356 726 c 1
 342 711 l 1
 327 728 310 733 294 733 c 0
 257 733 229 693 229 591 c 0
 229 545 234 485 265 300 c 0
 293 130 302 65 302 -5 c 0
 302 -124 255 -160 212 -160 c 0
 190 -160 167 -151 151 -132 c 1
 165 -117 l 1
 180 -134 197 -139 213 -139 c 0
 250 -139 278 -99 278 3 c 0
 278 49 273 109 242 294 c 0
 214 464 205 529 205 599 c 0
 205 718 252 754 295 754 c 0
EndSplineSet
EndChar

StartChar: approxequal
Encoding: 8776 8776 287
Width: 530
Flags: MW
HStem: 170 21<353 392.5 353 393.5> 240 21<138.5 178> 350 21<353 392.5 353 393.5> 420 21<138.5 178>
VStem: 47 437<190 241 241 370>
LayerCount: 2
Fore
SplineSet
162 441 m 0
 197 441 221 430 271 404 c 0
 319 379 337 371 369 371 c 0
 416 371 439 388 469 433 c 1
 484 421 l 1
 456 372 418 350 369 350 c 0
 334 350 310 361 260 387 c 0
 212 412 194 420 162 420 c 0
 115 420 92 403 62 358 c 1
 47 370 l 1
 75 419 113 441 162 441 c 0
162 261 m 0
 197 261 221 250 271 224 c 0
 319 199 337 191 369 191 c 0
 416 191 439 208 469 253 c 1
 484 241 l 1
 456 192 418 170 369 170 c 0
 334 170 310 181 260 207 c 0
 212 232 194 240 162 240 c 0
 115 240 92 223 62 178 c 1
 47 190 l 1
 75 239 113 261 162 261 c 0
EndSplineSet
EndChar

StartChar: notequal
Encoding: 8800 8800 301
Width: 530
Flags: MW
HStem: 217 21<55 194 55 206 230 475 55 218> 397 21<55 299 55 311 335 475 55 323> 397 136<55 402 378 402 378 475 323 402>
VStem: 55 420<217 238 217 238 397 418 217 418>
LayerCount: 2
Fore
SplineSet
323 397 m 1xd0
 230 238 l 1
 475 238 l 1
 475 217 l 1
 218 217 l 1
 151 103 l 1
 127 103 l 1
 194 217 l 1
 55 217 l 1
 55 238 l 1
 206 238 l 1
 299 397 l 1
 55 397 l 1
 55 418 l 1
 311 418 l 1xd0
 378 533 l 1
 402 533 l 1xb0
 335 418 l 1
 475 418 l 1
 475 397 l 1
 323 397 l 1xd0
EndSplineSet
EndChar

StartChar: lessequal
Encoding: 8804 8804 297
Width: 530
Flags: MW
HStem: 0 21<72 472 72 472>
VStem: 72 28<275 275 275 285 275 285>
LayerCount: 2
Fore
SplineSet
472 436 m 1
 100 275 l 1
 472 114 l 1
 472 90 l 1
 72 265 l 1
 72 285 l 1
 472 460 l 1
 472 436 l 1
72 21 m 1
 472 21 l 1
 472 0 l 1
 72 0 l 1
 72 21 l 1
EndSplineSet
EndChar

StartChar: greaterequal
Encoding: 8805 8805 293
Width: 530
Flags: MW
HStem: 0 21<58 458 58 458>
VStem: 430 28<275 275>
LayerCount: 2
Fore
SplineSet
458 285 m 1
 458 265 l 1
 58 90 l 1
 58 114 l 1
 430 275 l 1
 58 436 l 1
 58 460 l 1
 458 285 l 1
58 21 m 1
 458 21 l 1
 458 0 l 1
 58 0 l 1
 58 21 l 1
EndSplineSet
EndChar

StartChar: lozenge
Encoding: 9674 9674 310
Width: 468
Flags: MW
HStem: 0 24<234 234 234 245 223 234> 665 25<234 234>
VStem: 56 356<345 345>
LayerCount: 2
Fore
SplineSet
412 345 m 1
 245 0 l 1
 223 0 l 1
 56 345 l 1
 223 690 l 1
 245 690 l 1
 412 345 l 1
388 345 m 1
 234 665 l 1
 80 345 l 1
 234 24 l 1
 388 345 l 1
EndSplineSet
EndChar

StartChar: fi
Encoding: 64257 64257 230
Width: 396
GlyphClass: 3
Flags: MW
HStem: 0 21G<82 104 82 82 303 325 303 303> 501 21<25 82 25 82 104 303> 731.15 17.85 731.15 22.85
VStem: 82 22<0 501 0 501 522 566> 303 22<0 501 501 501>
LayerCount: 2
Fore
SplineSet
325 522 m 1xec
 325 0 l 1
 303 0 l 1
 303 501 l 1
 104 501 l 1
 104 0 l 1
 82 0 l 1
 82 501 l 1
 25 501 l 1
 25 522 l 1
 82 522 l 1
 82 566 l 2
 82 581 82 598 84 619 c 0
 91 695 154 754 256 754 c 0xdc
 276 754 285 753 303 749 c 1
 303 728 l 1
 169 746 112 684 106 616 c 0
 104 594 104 581 104 566 c 2
 104 522 l 1
 325 522 l 1xec
EndSplineSet
Ligature2: "'liga' Standard Ligatures in Latin lookup 4 subtable" f i
EndChar

StartChar: fl
Encoding: 64258 64258 231
Width: 378
GlyphClass: 3
Flags: MW
HStem: -5 21 0 21G<72 94 72 72> 501 21<25 72 25 72 94 201> 715 20G<295 295> 733 21<175 229.5>
VStem: 72 22<0 501 0 501 522 566> 273 22<120 721 721 721>
LayerCount: 2
Fore
SplineSet
296 51 m 0xae
 298 18 311 11 352 16 c 1
 352 -3 l 1
 342 -5 333 -5 323 -5 c 0
 296 -5 276 6 274 46 c 0xae
 273 66 273 82 273 120 c 2
 273 721 l 1
 260 729 242 733 217 733 c 0
 133 733 101 676 96 616 c 0
 94 594 94 581 94 566 c 2
 94 522 l 1
 201 522 l 1
 201 501 l 1
 94 501 l 1
 94 0 l 1
 72 0 l 1
 72 501 l 1
 25 501 l 1
 25 522 l 1
 72 522 l 1
 72 566 l 2
 72 581 72 598 74 619 c 0
 81 695 126 754 216 754 c 0x6e
 249 754 277 747 295 735 c 1xb6
 295 120 l 2
 295 85 295 65 296 51 c 0xae
EndSplineSet
Ligature2: "'liga' Standard Ligatures in Latin lookup 4 subtable" f l
EndChar
